M48
;DRILL file {KiCad 5.0.2-bee76a0~70~ubuntu18.04.1} date nie, 22 wrz 2019, 19:21:30
;FORMAT={-:-/ absolute / inch / decimal}
FMAT,2
INCH,TZ
T1C0.0157
T2C0.0236
T3C0.0315
T4C0.0335
T5C0.0394
T6C0.0630
T7C0.1181
T8C0.1575
%
G90
G05
T1
X1.5945Y-1.4173
X1.6732Y-3.0118
X1.6732Y-3.0709
X1.7126Y-1.1811
X1.7323Y-3.0512
X1.7913Y-1.3189
X1.8307Y-3.3858
X1.8898Y-1.2992
X1.9291Y-2.9134
X2.0079Y-0.9055
X2.0079Y-2.9134
X2.0472Y-1.752
X2.1457Y-1.3583
X2.2244Y-2.7559
X2.2244Y-2.9528
X2.2244Y-3.1496
X2.2244Y-3.4646
X2.2441Y-2.1063
X2.3031Y-0.8858
X2.4016Y-0.7874
X2.4213Y-2.7559
X2.4213Y-2.9528
X2.4213Y-3.1496
X2.5787Y-0.9843
X2.5787Y-1.2205
X2.6575Y-0.9843
X2.6575Y-1.2205
X2.815Y-2.3819
X2.8543Y-1.6732
X2.8543Y-2.2835
X2.9921Y-2.1063
X3.0906Y-3.7598
X3.1299Y-2.5984
X3.2677Y-1.5354
X3.2677Y-3.8976
X3.3465Y-1.5748
X3.3661Y-3.878
X3.7205Y-1.752
X3.7205Y-3.7205
X3.7598Y-2.3425
X3.7598Y-2.5197
X3.937Y-2.3031
T3
X3.5433Y-1.7913
X3.5433Y-1.8913
X3.5433Y-1.9913
X3.5433Y-2.0913
X3.5433Y-2.1913
X3.5433Y-2.2913
X3.5433Y-2.3913
X3.5433Y-2.4913
X3.5433Y-2.5913
X3.5433Y-2.6913
X3.5433Y-2.7913
X3.5433Y-2.8913
X3.5433Y-2.9913
X3.5433Y-3.0913
X3.8433Y-1.7913
X3.8433Y-1.8913
X3.8433Y-1.9913
X3.8433Y-2.0913
X3.8433Y-2.1913
X3.8433Y-2.2913
X3.8433Y-2.3913
X3.8433Y-2.4913
X3.8433Y-2.5913
X3.8433Y-2.6913
X3.8433Y-2.7913
X3.8433Y-2.8913
X3.8433Y-2.9913
X3.8433Y-3.0913
X3.3465Y-2.5394
X3.3465Y-2.7315
T4
X2.6575Y-0.7559
X2.8543Y-0.7559
T5
X2.5937Y-4.2126
X2.6937Y-4.2126
X2.7937Y-4.2126
X2.8937Y-4.2126
X3.8189Y-3.4252
X3.8189Y-3.5252
X3.8189Y-3.6252
X3.8189Y-3.7252
X3.8189Y-3.8252
X1.6929Y-3.4252
X1.6929Y-3.5252
X1.6929Y-3.6252
X1.6929Y-3.7252
X1.6929Y-3.8252
X1.9094Y-1.9882
X1.9094Y-2.0882
X1.9094Y-2.1882
X1.9094Y-2.2882
X1.9094Y-2.3882
X1.9094Y-2.4882
T6
X2.7559Y-1.1417
X2.7559Y-3.9764
T7
X2.7559Y-1.5551
X2.7559Y-3.563
T8
X1.7323Y-0.8268
X1.7323Y-4.2913
X3.7795Y-0.8268
X3.7795Y-4.2913
T2
X2.6181Y-0.6634G85X2.6181Y-0.6358
G05
X2.8937Y-0.6634G85X2.8937Y-0.6358
G05
T0
M30
