G04 #@! TF.GenerationSoftware,KiCad,Pcbnew,5.0.2-bee76a0~70~ubuntu18.04.1*
G04 #@! TF.CreationDate,2019-09-22T19:21:34+02:00*
G04 #@! TF.ProjectId,snail,736e6169-6c2e-46b6-9963-61645f706362,rev?*
G04 #@! TF.SameCoordinates,Original*
G04 #@! TF.FileFunction,Soldermask,Top*
G04 #@! TF.FilePolarity,Negative*
%FSLAX46Y46*%
G04 Gerber Fmt 4.6, Leading zero omitted, Abs format (unit mm)*
G04 Created by KiCad (PCBNEW 5.0.2-bee76a0~70~ubuntu18.04.1) date nie, 22 wrz 2019, 19:21:34*
%MOMM*%
%LPD*%
G01*
G04 APERTURE LIST*
%ADD10C,0.100000*%
G04 APERTURE END LIST*
D10*
G36*
X54775562Y-108740681D02*
X54810477Y-108751273D01*
X54842665Y-108768478D01*
X54870873Y-108791627D01*
X54894022Y-108819835D01*
X54911227Y-108852023D01*
X54921819Y-108886938D01*
X54926000Y-108929395D01*
X54926000Y-110070605D01*
X54921819Y-110113062D01*
X54911227Y-110147977D01*
X54894022Y-110180165D01*
X54870873Y-110208373D01*
X54842665Y-110231522D01*
X54810477Y-110248727D01*
X54775562Y-110259319D01*
X54733105Y-110263500D01*
X53266895Y-110263500D01*
X53224438Y-110259319D01*
X53189523Y-110248727D01*
X53157335Y-110231522D01*
X53129127Y-110208373D01*
X53105978Y-110180165D01*
X53088773Y-110147977D01*
X53078181Y-110113062D01*
X53074000Y-110070605D01*
X53074000Y-108929395D01*
X53078181Y-108886938D01*
X53088773Y-108852023D01*
X53105978Y-108819835D01*
X53129127Y-108791627D01*
X53157335Y-108768478D01*
X53189523Y-108751273D01*
X53224438Y-108740681D01*
X53266895Y-108736500D01*
X54733105Y-108736500D01*
X54775562Y-108740681D01*
X54775562Y-108740681D01*
G37*
G36*
X80588677Y-108403465D02*
X80626364Y-108414898D01*
X80661103Y-108433466D01*
X80691548Y-108458452D01*
X80716534Y-108488897D01*
X80735102Y-108523636D01*
X80746535Y-108561323D01*
X80751000Y-108606661D01*
X80751000Y-109443339D01*
X80746535Y-109488677D01*
X80735102Y-109526364D01*
X80716534Y-109561103D01*
X80691548Y-109591548D01*
X80661103Y-109616534D01*
X80626364Y-109635102D01*
X80588677Y-109646535D01*
X80543339Y-109651000D01*
X79456661Y-109651000D01*
X79411323Y-109646535D01*
X79373636Y-109635102D01*
X79338897Y-109616534D01*
X79308452Y-109591548D01*
X79283466Y-109561103D01*
X79264898Y-109526364D01*
X79253465Y-109488677D01*
X79249000Y-109443339D01*
X79249000Y-108606661D01*
X79253465Y-108561323D01*
X79264898Y-108523636D01*
X79283466Y-108488897D01*
X79308452Y-108458452D01*
X79338897Y-108433466D01*
X79373636Y-108414898D01*
X79411323Y-108403465D01*
X79456661Y-108399000D01*
X80543339Y-108399000D01*
X80588677Y-108403465D01*
X80588677Y-108403465D01*
G37*
G36*
X58588677Y-108378465D02*
X58626364Y-108389898D01*
X58661103Y-108408466D01*
X58691548Y-108433452D01*
X58716534Y-108463897D01*
X58735102Y-108498636D01*
X58746535Y-108536323D01*
X58751000Y-108581661D01*
X58751000Y-109418339D01*
X58746535Y-109463677D01*
X58735102Y-109501364D01*
X58716534Y-109536103D01*
X58691548Y-109566548D01*
X58661103Y-109591534D01*
X58626364Y-109610102D01*
X58588677Y-109621535D01*
X58543339Y-109626000D01*
X57456661Y-109626000D01*
X57411323Y-109621535D01*
X57373636Y-109610102D01*
X57338897Y-109591534D01*
X57308452Y-109566548D01*
X57283466Y-109536103D01*
X57264898Y-109501364D01*
X57253465Y-109463677D01*
X57249000Y-109418339D01*
X57249000Y-108581661D01*
X57253465Y-108536323D01*
X57264898Y-108498636D01*
X57283466Y-108463897D01*
X57308452Y-108433452D01*
X57338897Y-108408466D01*
X57373636Y-108389898D01*
X57411323Y-108378465D01*
X57456661Y-108374000D01*
X58543339Y-108374000D01*
X58588677Y-108378465D01*
X58588677Y-108378465D01*
G37*
G36*
X91701000Y-108801000D02*
X90099000Y-108801000D01*
X90099000Y-107199000D01*
X91701000Y-107199000D01*
X91701000Y-108801000D01*
X91701000Y-108801000D01*
G37*
G36*
X83901000Y-108801000D02*
X82299000Y-108801000D01*
X82299000Y-107199000D01*
X83901000Y-107199000D01*
X83901000Y-108801000D01*
X83901000Y-108801000D01*
G37*
G36*
X74401000Y-107901000D02*
X72599000Y-107901000D01*
X72599000Y-106099000D01*
X74401000Y-106099000D01*
X74401000Y-107901000D01*
X74401000Y-107901000D01*
G37*
G36*
X65990442Y-106105518D02*
X66056627Y-106112037D01*
X66169853Y-106146384D01*
X66226467Y-106163557D01*
X66365087Y-106237652D01*
X66382991Y-106247222D01*
X66418729Y-106276552D01*
X66520186Y-106359814D01*
X66590064Y-106444962D01*
X66632778Y-106497009D01*
X66632779Y-106497011D01*
X66716443Y-106653533D01*
X66716443Y-106653534D01*
X66767963Y-106823373D01*
X66785359Y-107000000D01*
X66767963Y-107176627D01*
X66738508Y-107273727D01*
X66716443Y-107346467D01*
X66658410Y-107455038D01*
X66632778Y-107502991D01*
X66603448Y-107538729D01*
X66520186Y-107640186D01*
X66418729Y-107723448D01*
X66382991Y-107752778D01*
X66382989Y-107752779D01*
X66226467Y-107836443D01*
X66169853Y-107853616D01*
X66056627Y-107887963D01*
X65990442Y-107894482D01*
X65924260Y-107901000D01*
X65835740Y-107901000D01*
X65769558Y-107894482D01*
X65703373Y-107887963D01*
X65590147Y-107853616D01*
X65533533Y-107836443D01*
X65377011Y-107752779D01*
X65377009Y-107752778D01*
X65341271Y-107723448D01*
X65239814Y-107640186D01*
X65156552Y-107538729D01*
X65127222Y-107502991D01*
X65101590Y-107455038D01*
X65043557Y-107346467D01*
X65021492Y-107273727D01*
X64992037Y-107176627D01*
X64974641Y-107000000D01*
X64992037Y-106823373D01*
X65043557Y-106653534D01*
X65043557Y-106653533D01*
X65127221Y-106497011D01*
X65127222Y-106497009D01*
X65169936Y-106444962D01*
X65239814Y-106359814D01*
X65341271Y-106276552D01*
X65377009Y-106247222D01*
X65394913Y-106237652D01*
X65533533Y-106163557D01*
X65590147Y-106146384D01*
X65703373Y-106112037D01*
X65769558Y-106105518D01*
X65835740Y-106099000D01*
X65924260Y-106099000D01*
X65990442Y-106105518D01*
X65990442Y-106105518D01*
G37*
G36*
X71070442Y-106105518D02*
X71136627Y-106112037D01*
X71249853Y-106146384D01*
X71306467Y-106163557D01*
X71445087Y-106237652D01*
X71462991Y-106247222D01*
X71498729Y-106276552D01*
X71600186Y-106359814D01*
X71670064Y-106444962D01*
X71712778Y-106497009D01*
X71712779Y-106497011D01*
X71796443Y-106653533D01*
X71796443Y-106653534D01*
X71847963Y-106823373D01*
X71865359Y-107000000D01*
X71847963Y-107176627D01*
X71818508Y-107273727D01*
X71796443Y-107346467D01*
X71738410Y-107455038D01*
X71712778Y-107502991D01*
X71683448Y-107538729D01*
X71600186Y-107640186D01*
X71498729Y-107723448D01*
X71462991Y-107752778D01*
X71462989Y-107752779D01*
X71306467Y-107836443D01*
X71249853Y-107853616D01*
X71136627Y-107887963D01*
X71070442Y-107894482D01*
X71004260Y-107901000D01*
X70915740Y-107901000D01*
X70849558Y-107894482D01*
X70783373Y-107887963D01*
X70670147Y-107853616D01*
X70613533Y-107836443D01*
X70457011Y-107752779D01*
X70457009Y-107752778D01*
X70421271Y-107723448D01*
X70319814Y-107640186D01*
X70236552Y-107538729D01*
X70207222Y-107502991D01*
X70181590Y-107455038D01*
X70123557Y-107346467D01*
X70101492Y-107273727D01*
X70072037Y-107176627D01*
X70054641Y-107000000D01*
X70072037Y-106823373D01*
X70123557Y-106653534D01*
X70123557Y-106653533D01*
X70207221Y-106497011D01*
X70207222Y-106497009D01*
X70249936Y-106444962D01*
X70319814Y-106359814D01*
X70421271Y-106276552D01*
X70457009Y-106247222D01*
X70474913Y-106237652D01*
X70613533Y-106163557D01*
X70670147Y-106146384D01*
X70783373Y-106112037D01*
X70849558Y-106105518D01*
X70915740Y-106099000D01*
X71004260Y-106099000D01*
X71070442Y-106105518D01*
X71070442Y-106105518D01*
G37*
G36*
X68530442Y-106105518D02*
X68596627Y-106112037D01*
X68709853Y-106146384D01*
X68766467Y-106163557D01*
X68905087Y-106237652D01*
X68922991Y-106247222D01*
X68958729Y-106276552D01*
X69060186Y-106359814D01*
X69130064Y-106444962D01*
X69172778Y-106497009D01*
X69172779Y-106497011D01*
X69256443Y-106653533D01*
X69256443Y-106653534D01*
X69307963Y-106823373D01*
X69325359Y-107000000D01*
X69307963Y-107176627D01*
X69278508Y-107273727D01*
X69256443Y-107346467D01*
X69198410Y-107455038D01*
X69172778Y-107502991D01*
X69143448Y-107538729D01*
X69060186Y-107640186D01*
X68958729Y-107723448D01*
X68922991Y-107752778D01*
X68922989Y-107752779D01*
X68766467Y-107836443D01*
X68709853Y-107853616D01*
X68596627Y-107887963D01*
X68530442Y-107894482D01*
X68464260Y-107901000D01*
X68375740Y-107901000D01*
X68309558Y-107894482D01*
X68243373Y-107887963D01*
X68130147Y-107853616D01*
X68073533Y-107836443D01*
X67917011Y-107752779D01*
X67917009Y-107752778D01*
X67881271Y-107723448D01*
X67779814Y-107640186D01*
X67696552Y-107538729D01*
X67667222Y-107502991D01*
X67641590Y-107455038D01*
X67583557Y-107346467D01*
X67561492Y-107273727D01*
X67532037Y-107176627D01*
X67514641Y-107000000D01*
X67532037Y-106823373D01*
X67583557Y-106653534D01*
X67583557Y-106653533D01*
X67667221Y-106497011D01*
X67667222Y-106497009D01*
X67709936Y-106444962D01*
X67779814Y-106359814D01*
X67881271Y-106276552D01*
X67917009Y-106247222D01*
X67934913Y-106237652D01*
X68073533Y-106163557D01*
X68130147Y-106146384D01*
X68243373Y-106112037D01*
X68309558Y-106105518D01*
X68375740Y-106099000D01*
X68464260Y-106099000D01*
X68530442Y-106105518D01*
X68530442Y-106105518D01*
G37*
G36*
X80588677Y-106353465D02*
X80626364Y-106364898D01*
X80661103Y-106383466D01*
X80691548Y-106408452D01*
X80716534Y-106438897D01*
X80735102Y-106473636D01*
X80746535Y-106511323D01*
X80751000Y-106556661D01*
X80751000Y-107393339D01*
X80746535Y-107438677D01*
X80735102Y-107476364D01*
X80716534Y-107511103D01*
X80691548Y-107541548D01*
X80661103Y-107566534D01*
X80626364Y-107585102D01*
X80588677Y-107596535D01*
X80543339Y-107601000D01*
X79456661Y-107601000D01*
X79411323Y-107596535D01*
X79373636Y-107585102D01*
X79338897Y-107566534D01*
X79308452Y-107541548D01*
X79283466Y-107511103D01*
X79264898Y-107476364D01*
X79253465Y-107438677D01*
X79249000Y-107393339D01*
X79249000Y-106556661D01*
X79253465Y-106511323D01*
X79264898Y-106473636D01*
X79283466Y-106438897D01*
X79308452Y-106408452D01*
X79338897Y-106383466D01*
X79373636Y-106364898D01*
X79411323Y-106353465D01*
X79456661Y-106349000D01*
X80543339Y-106349000D01*
X80588677Y-106353465D01*
X80588677Y-106353465D01*
G37*
G36*
X58588677Y-106328465D02*
X58626364Y-106339898D01*
X58661103Y-106358466D01*
X58691548Y-106383452D01*
X58716534Y-106413897D01*
X58735102Y-106448636D01*
X58746535Y-106486323D01*
X58751000Y-106531661D01*
X58751000Y-107368339D01*
X58746535Y-107413677D01*
X58735102Y-107451364D01*
X58716534Y-107486103D01*
X58691548Y-107516548D01*
X58661103Y-107541534D01*
X58626364Y-107560102D01*
X58588677Y-107571535D01*
X58543339Y-107576000D01*
X57456661Y-107576000D01*
X57411323Y-107571535D01*
X57373636Y-107560102D01*
X57338897Y-107541534D01*
X57308452Y-107516548D01*
X57283466Y-107486103D01*
X57264898Y-107451364D01*
X57253465Y-107413677D01*
X57249000Y-107368339D01*
X57249000Y-106531661D01*
X57253465Y-106486323D01*
X57264898Y-106448636D01*
X57283466Y-106413897D01*
X57308452Y-106383452D01*
X57338897Y-106358466D01*
X57373636Y-106339898D01*
X57411323Y-106328465D01*
X57456661Y-106324000D01*
X58543339Y-106324000D01*
X58588677Y-106328465D01*
X58588677Y-106328465D01*
G37*
G36*
X54775562Y-105765681D02*
X54810477Y-105776273D01*
X54842665Y-105793478D01*
X54870873Y-105816627D01*
X54894022Y-105844835D01*
X54911227Y-105877023D01*
X54921819Y-105911938D01*
X54926000Y-105954395D01*
X54926000Y-107095605D01*
X54921819Y-107138062D01*
X54911227Y-107172977D01*
X54894022Y-107205165D01*
X54870873Y-107233373D01*
X54842665Y-107256522D01*
X54810477Y-107273727D01*
X54775562Y-107284319D01*
X54733105Y-107288500D01*
X53266895Y-107288500D01*
X53224438Y-107284319D01*
X53189523Y-107273727D01*
X53157335Y-107256522D01*
X53129127Y-107233373D01*
X53105978Y-107205165D01*
X53088773Y-107172977D01*
X53078181Y-107138062D01*
X53074000Y-107095605D01*
X53074000Y-105954395D01*
X53078181Y-105911938D01*
X53088773Y-105877023D01*
X53105978Y-105844835D01*
X53129127Y-105816627D01*
X53157335Y-105793478D01*
X53189523Y-105776273D01*
X53224438Y-105765681D01*
X53266895Y-105761500D01*
X54733105Y-105761500D01*
X54775562Y-105765681D01*
X54775562Y-105765681D01*
G37*
G36*
X70361113Y-99184567D02*
X70539917Y-99220133D01*
X70876777Y-99359665D01*
X71177902Y-99560870D01*
X71179947Y-99562237D01*
X71437763Y-99820053D01*
X71437765Y-99820056D01*
X71640335Y-100123223D01*
X71779867Y-100460083D01*
X71851000Y-100817692D01*
X71851000Y-101182308D01*
X71779867Y-101539917D01*
X71640335Y-101876777D01*
X71439130Y-102177902D01*
X71437763Y-102179947D01*
X71179947Y-102437763D01*
X71179944Y-102437765D01*
X70876777Y-102640335D01*
X70539917Y-102779867D01*
X70361112Y-102815434D01*
X70182309Y-102851000D01*
X69817691Y-102851000D01*
X69638888Y-102815434D01*
X69460083Y-102779867D01*
X69123223Y-102640335D01*
X68820056Y-102437765D01*
X68820053Y-102437763D01*
X68562237Y-102179947D01*
X68560870Y-102177902D01*
X68359665Y-101876777D01*
X68220133Y-101539917D01*
X68149000Y-101182308D01*
X68149000Y-100817692D01*
X68220133Y-100460083D01*
X68359665Y-100123223D01*
X68562235Y-99820056D01*
X68562237Y-99820053D01*
X68820053Y-99562237D01*
X68822098Y-99560870D01*
X69123223Y-99359665D01*
X69460083Y-99220133D01*
X69638887Y-99184567D01*
X69817691Y-99149000D01*
X70182309Y-99149000D01*
X70361113Y-99184567D01*
X70361113Y-99184567D01*
G37*
G36*
X43110443Y-96265519D02*
X43176627Y-96272037D01*
X43289853Y-96306384D01*
X43346467Y-96323557D01*
X43485087Y-96397652D01*
X43502991Y-96407222D01*
X43538729Y-96436552D01*
X43640186Y-96519814D01*
X43723448Y-96621271D01*
X43752778Y-96657009D01*
X43752779Y-96657011D01*
X43836443Y-96813533D01*
X43836443Y-96813534D01*
X43887963Y-96983373D01*
X43905359Y-97160000D01*
X43887963Y-97336627D01*
X43853616Y-97449853D01*
X43836443Y-97506467D01*
X43762348Y-97645087D01*
X43752778Y-97662991D01*
X43723448Y-97698729D01*
X43640186Y-97800186D01*
X43538729Y-97883448D01*
X43502991Y-97912778D01*
X43502989Y-97912779D01*
X43346467Y-97996443D01*
X43289853Y-98013616D01*
X43176627Y-98047963D01*
X43110442Y-98054482D01*
X43044260Y-98061000D01*
X42955740Y-98061000D01*
X42889558Y-98054482D01*
X42823373Y-98047963D01*
X42710147Y-98013616D01*
X42653533Y-97996443D01*
X42497011Y-97912779D01*
X42497009Y-97912778D01*
X42461271Y-97883448D01*
X42359814Y-97800186D01*
X42276552Y-97698729D01*
X42247222Y-97662991D01*
X42237652Y-97645087D01*
X42163557Y-97506467D01*
X42146384Y-97449853D01*
X42112037Y-97336627D01*
X42094641Y-97160000D01*
X42112037Y-96983373D01*
X42163557Y-96813534D01*
X42163557Y-96813533D01*
X42247221Y-96657011D01*
X42247222Y-96657009D01*
X42276552Y-96621271D01*
X42359814Y-96519814D01*
X42461271Y-96436552D01*
X42497009Y-96407222D01*
X42514913Y-96397652D01*
X42653533Y-96323557D01*
X42710147Y-96306384D01*
X42823373Y-96272037D01*
X42889557Y-96265519D01*
X42955740Y-96259000D01*
X43044260Y-96259000D01*
X43110443Y-96265519D01*
X43110443Y-96265519D01*
G37*
G36*
X97110443Y-96265519D02*
X97176627Y-96272037D01*
X97289853Y-96306384D01*
X97346467Y-96323557D01*
X97485087Y-96397652D01*
X97502991Y-96407222D01*
X97538729Y-96436552D01*
X97640186Y-96519814D01*
X97723448Y-96621271D01*
X97752778Y-96657009D01*
X97752779Y-96657011D01*
X97836443Y-96813533D01*
X97836443Y-96813534D01*
X97887963Y-96983373D01*
X97905359Y-97160000D01*
X97887963Y-97336627D01*
X97853616Y-97449853D01*
X97836443Y-97506467D01*
X97762348Y-97645087D01*
X97752778Y-97662991D01*
X97723448Y-97698729D01*
X97640186Y-97800186D01*
X97538729Y-97883448D01*
X97502991Y-97912778D01*
X97502989Y-97912779D01*
X97346467Y-97996443D01*
X97289853Y-98013616D01*
X97176627Y-98047963D01*
X97110442Y-98054482D01*
X97044260Y-98061000D01*
X96955740Y-98061000D01*
X96889558Y-98054482D01*
X96823373Y-98047963D01*
X96710147Y-98013616D01*
X96653533Y-97996443D01*
X96497011Y-97912779D01*
X96497009Y-97912778D01*
X96461271Y-97883448D01*
X96359814Y-97800186D01*
X96276552Y-97698729D01*
X96247222Y-97662991D01*
X96237652Y-97645087D01*
X96163557Y-97506467D01*
X96146384Y-97449853D01*
X96112037Y-97336627D01*
X96094641Y-97160000D01*
X96112037Y-96983373D01*
X96163557Y-96813534D01*
X96163557Y-96813533D01*
X96247221Y-96657011D01*
X96247222Y-96657009D01*
X96276552Y-96621271D01*
X96359814Y-96519814D01*
X96461271Y-96436552D01*
X96497009Y-96407222D01*
X96514913Y-96397652D01*
X96653533Y-96323557D01*
X96710147Y-96306384D01*
X96823373Y-96272037D01*
X96889558Y-96265518D01*
X96955740Y-96259000D01*
X97044260Y-96259000D01*
X97110443Y-96265519D01*
X97110443Y-96265519D01*
G37*
G36*
X55501000Y-97296000D02*
X53899000Y-97296000D01*
X53899000Y-96594000D01*
X55501000Y-96594000D01*
X55501000Y-97296000D01*
X55501000Y-97296000D01*
G37*
G36*
X50101000Y-97296000D02*
X48499000Y-97296000D01*
X48499000Y-96594000D01*
X50101000Y-96594000D01*
X50101000Y-97296000D01*
X50101000Y-97296000D01*
G37*
G36*
X86101000Y-96796000D02*
X84499000Y-96796000D01*
X84499000Y-96094000D01*
X86101000Y-96094000D01*
X86101000Y-96796000D01*
X86101000Y-96796000D01*
G37*
G36*
X91501000Y-96796000D02*
X89899000Y-96796000D01*
X89899000Y-96094000D01*
X91501000Y-96094000D01*
X91501000Y-96796000D01*
X91501000Y-96796000D01*
G37*
G36*
X50101000Y-96026000D02*
X48499000Y-96026000D01*
X48499000Y-95324000D01*
X50101000Y-95324000D01*
X50101000Y-96026000D01*
X50101000Y-96026000D01*
G37*
G36*
X55501000Y-96026000D02*
X53899000Y-96026000D01*
X53899000Y-95324000D01*
X55501000Y-95324000D01*
X55501000Y-96026000D01*
X55501000Y-96026000D01*
G37*
G36*
X86101000Y-95526000D02*
X84499000Y-95526000D01*
X84499000Y-94824000D01*
X86101000Y-94824000D01*
X86101000Y-95526000D01*
X86101000Y-95526000D01*
G37*
G36*
X91501000Y-95526000D02*
X89899000Y-95526000D01*
X89899000Y-94824000D01*
X91501000Y-94824000D01*
X91501000Y-95526000D01*
X91501000Y-95526000D01*
G37*
G36*
X43110442Y-93725518D02*
X43176627Y-93732037D01*
X43289853Y-93766384D01*
X43346467Y-93783557D01*
X43485087Y-93857652D01*
X43502991Y-93867222D01*
X43538729Y-93896552D01*
X43640186Y-93979814D01*
X43723448Y-94081271D01*
X43752778Y-94117009D01*
X43752779Y-94117011D01*
X43836443Y-94273533D01*
X43836443Y-94273534D01*
X43887963Y-94443373D01*
X43905359Y-94620000D01*
X43887963Y-94796627D01*
X43853616Y-94909853D01*
X43836443Y-94966467D01*
X43762348Y-95105087D01*
X43752778Y-95122991D01*
X43723448Y-95158729D01*
X43640186Y-95260186D01*
X43562427Y-95324000D01*
X43502991Y-95372778D01*
X43502989Y-95372779D01*
X43346467Y-95456443D01*
X43289853Y-95473616D01*
X43176627Y-95507963D01*
X43110442Y-95514482D01*
X43044260Y-95521000D01*
X42955740Y-95521000D01*
X42889558Y-95514482D01*
X42823373Y-95507963D01*
X42710147Y-95473616D01*
X42653533Y-95456443D01*
X42497011Y-95372779D01*
X42497009Y-95372778D01*
X42437573Y-95324000D01*
X42359814Y-95260186D01*
X42276552Y-95158729D01*
X42247222Y-95122991D01*
X42237652Y-95105087D01*
X42163557Y-94966467D01*
X42146384Y-94909853D01*
X42112037Y-94796627D01*
X42094641Y-94620000D01*
X42112037Y-94443373D01*
X42163557Y-94273534D01*
X42163557Y-94273533D01*
X42247221Y-94117011D01*
X42247222Y-94117009D01*
X42276552Y-94081271D01*
X42359814Y-93979814D01*
X42461271Y-93896552D01*
X42497009Y-93867222D01*
X42514913Y-93857652D01*
X42653533Y-93783557D01*
X42710147Y-93766384D01*
X42823373Y-93732037D01*
X42889558Y-93725518D01*
X42955740Y-93719000D01*
X43044260Y-93719000D01*
X43110442Y-93725518D01*
X43110442Y-93725518D01*
G37*
G36*
X97110442Y-93725518D02*
X97176627Y-93732037D01*
X97289853Y-93766384D01*
X97346467Y-93783557D01*
X97485087Y-93857652D01*
X97502991Y-93867222D01*
X97538729Y-93896552D01*
X97640186Y-93979814D01*
X97723448Y-94081271D01*
X97752778Y-94117009D01*
X97752779Y-94117011D01*
X97836443Y-94273533D01*
X97836443Y-94273534D01*
X97887963Y-94443373D01*
X97905359Y-94620000D01*
X97887963Y-94796627D01*
X97853616Y-94909853D01*
X97836443Y-94966467D01*
X97762348Y-95105087D01*
X97752778Y-95122991D01*
X97723448Y-95158729D01*
X97640186Y-95260186D01*
X97562427Y-95324000D01*
X97502991Y-95372778D01*
X97502989Y-95372779D01*
X97346467Y-95456443D01*
X97289853Y-95473616D01*
X97176627Y-95507963D01*
X97110442Y-95514482D01*
X97044260Y-95521000D01*
X96955740Y-95521000D01*
X96889558Y-95514482D01*
X96823373Y-95507963D01*
X96710147Y-95473616D01*
X96653533Y-95456443D01*
X96497011Y-95372779D01*
X96497009Y-95372778D01*
X96437573Y-95324000D01*
X96359814Y-95260186D01*
X96276552Y-95158729D01*
X96247222Y-95122991D01*
X96237652Y-95105087D01*
X96163557Y-94966467D01*
X96146384Y-94909853D01*
X96112037Y-94796627D01*
X96094641Y-94620000D01*
X96112037Y-94443373D01*
X96163557Y-94273534D01*
X96163557Y-94273533D01*
X96247221Y-94117011D01*
X96247222Y-94117009D01*
X96276552Y-94081271D01*
X96359814Y-93979814D01*
X96461271Y-93896552D01*
X96497009Y-93867222D01*
X96514913Y-93857652D01*
X96653533Y-93783557D01*
X96710147Y-93766384D01*
X96823373Y-93732037D01*
X96889558Y-93725518D01*
X96955740Y-93719000D01*
X97044260Y-93719000D01*
X97110442Y-93725518D01*
X97110442Y-93725518D01*
G37*
G36*
X50101000Y-94756000D02*
X48499000Y-94756000D01*
X48499000Y-94054000D01*
X50101000Y-94054000D01*
X50101000Y-94756000D01*
X50101000Y-94756000D01*
G37*
G36*
X55501000Y-94756000D02*
X53899000Y-94756000D01*
X53899000Y-94054000D01*
X55501000Y-94054000D01*
X55501000Y-94756000D01*
X55501000Y-94756000D01*
G37*
G36*
X91501000Y-94256000D02*
X89899000Y-94256000D01*
X89899000Y-93554000D01*
X91501000Y-93554000D01*
X91501000Y-94256000D01*
X91501000Y-94256000D01*
G37*
G36*
X86101000Y-94256000D02*
X84499000Y-94256000D01*
X84499000Y-93554000D01*
X86101000Y-93554000D01*
X86101000Y-94256000D01*
X86101000Y-94256000D01*
G37*
G36*
X55501000Y-93486000D02*
X53899000Y-93486000D01*
X53899000Y-92784000D01*
X55501000Y-92784000D01*
X55501000Y-93486000D01*
X55501000Y-93486000D01*
G37*
G36*
X50101000Y-93486000D02*
X48499000Y-93486000D01*
X48499000Y-92784000D01*
X50101000Y-92784000D01*
X50101000Y-93486000D01*
X50101000Y-93486000D01*
G37*
G36*
X86101000Y-92986000D02*
X84499000Y-92986000D01*
X84499000Y-92284000D01*
X86101000Y-92284000D01*
X86101000Y-92986000D01*
X86101000Y-92986000D01*
G37*
G36*
X91501000Y-92986000D02*
X89899000Y-92986000D01*
X89899000Y-92284000D01*
X91501000Y-92284000D01*
X91501000Y-92986000D01*
X91501000Y-92986000D01*
G37*
G36*
X97110442Y-91185518D02*
X97176627Y-91192037D01*
X97289853Y-91226384D01*
X97346467Y-91243557D01*
X97485087Y-91317652D01*
X97502991Y-91327222D01*
X97538729Y-91356552D01*
X97640186Y-91439814D01*
X97723448Y-91541271D01*
X97752778Y-91577009D01*
X97752779Y-91577011D01*
X97836443Y-91733533D01*
X97836443Y-91733534D01*
X97887963Y-91903373D01*
X97905359Y-92080000D01*
X97887963Y-92256627D01*
X97869475Y-92317573D01*
X97836443Y-92426467D01*
X97812008Y-92472181D01*
X97752778Y-92582991D01*
X97723448Y-92618729D01*
X97640186Y-92720186D01*
X97562427Y-92784000D01*
X97502991Y-92832778D01*
X97502989Y-92832779D01*
X97346467Y-92916443D01*
X97289853Y-92933616D01*
X97176627Y-92967963D01*
X97110443Y-92974481D01*
X97044260Y-92981000D01*
X96955740Y-92981000D01*
X96889557Y-92974481D01*
X96823373Y-92967963D01*
X96710147Y-92933616D01*
X96653533Y-92916443D01*
X96497011Y-92832779D01*
X96497009Y-92832778D01*
X96437573Y-92784000D01*
X96359814Y-92720186D01*
X96276552Y-92618729D01*
X96247222Y-92582991D01*
X96187992Y-92472181D01*
X96163557Y-92426467D01*
X96130525Y-92317573D01*
X96112037Y-92256627D01*
X96094641Y-92080000D01*
X96112037Y-91903373D01*
X96163557Y-91733534D01*
X96163557Y-91733533D01*
X96247221Y-91577011D01*
X96247222Y-91577009D01*
X96276552Y-91541271D01*
X96359814Y-91439814D01*
X96461271Y-91356552D01*
X96497009Y-91327222D01*
X96514913Y-91317652D01*
X96653533Y-91243557D01*
X96710147Y-91226384D01*
X96823373Y-91192037D01*
X96889558Y-91185518D01*
X96955740Y-91179000D01*
X97044260Y-91179000D01*
X97110442Y-91185518D01*
X97110442Y-91185518D01*
G37*
G36*
X43110442Y-91185518D02*
X43176627Y-91192037D01*
X43289853Y-91226384D01*
X43346467Y-91243557D01*
X43485087Y-91317652D01*
X43502991Y-91327222D01*
X43538729Y-91356552D01*
X43640186Y-91439814D01*
X43723448Y-91541271D01*
X43752778Y-91577009D01*
X43752779Y-91577011D01*
X43836443Y-91733533D01*
X43836443Y-91733534D01*
X43887963Y-91903373D01*
X43905359Y-92080000D01*
X43887963Y-92256627D01*
X43869475Y-92317573D01*
X43836443Y-92426467D01*
X43812008Y-92472181D01*
X43752778Y-92582991D01*
X43723448Y-92618729D01*
X43640186Y-92720186D01*
X43562427Y-92784000D01*
X43502991Y-92832778D01*
X43502989Y-92832779D01*
X43346467Y-92916443D01*
X43289853Y-92933616D01*
X43176627Y-92967963D01*
X43110443Y-92974481D01*
X43044260Y-92981000D01*
X42955740Y-92981000D01*
X42889557Y-92974481D01*
X42823373Y-92967963D01*
X42710147Y-92933616D01*
X42653533Y-92916443D01*
X42497011Y-92832779D01*
X42497009Y-92832778D01*
X42437573Y-92784000D01*
X42359814Y-92720186D01*
X42276552Y-92618729D01*
X42247222Y-92582991D01*
X42187992Y-92472181D01*
X42163557Y-92426467D01*
X42130525Y-92317573D01*
X42112037Y-92256627D01*
X42094641Y-92080000D01*
X42112037Y-91903373D01*
X42163557Y-91733534D01*
X42163557Y-91733533D01*
X42247221Y-91577011D01*
X42247222Y-91577009D01*
X42276552Y-91541271D01*
X42359814Y-91439814D01*
X42461271Y-91356552D01*
X42497009Y-91327222D01*
X42514913Y-91317652D01*
X42653533Y-91243557D01*
X42710147Y-91226384D01*
X42823373Y-91192037D01*
X42889558Y-91185518D01*
X42955740Y-91179000D01*
X43044260Y-91179000D01*
X43110442Y-91185518D01*
X43110442Y-91185518D01*
G37*
G36*
X70598252Y-88527818D02*
X70598254Y-88527819D01*
X70598255Y-88527819D01*
X70971513Y-88682427D01*
X71296855Y-88899814D01*
X71307439Y-88906886D01*
X71593114Y-89192561D01*
X71593116Y-89192564D01*
X71817573Y-89528487D01*
X71972181Y-89901745D01*
X71972182Y-89901748D01*
X72051000Y-90297993D01*
X72051000Y-90702007D01*
X71988941Y-91014000D01*
X71972181Y-91098255D01*
X71817573Y-91471513D01*
X71747081Y-91577011D01*
X71593114Y-91807439D01*
X71307439Y-92093114D01*
X71307436Y-92093116D01*
X70971513Y-92317573D01*
X70598255Y-92472181D01*
X70598254Y-92472181D01*
X70598252Y-92472182D01*
X70202007Y-92551000D01*
X69797993Y-92551000D01*
X69401748Y-92472182D01*
X69401746Y-92472181D01*
X69401745Y-92472181D01*
X69028487Y-92317573D01*
X68692564Y-92093116D01*
X68692561Y-92093114D01*
X68406886Y-91807439D01*
X68252919Y-91577011D01*
X68182427Y-91471513D01*
X68027819Y-91098255D01*
X68011060Y-91014000D01*
X67949000Y-90702007D01*
X67949000Y-90297993D01*
X68027818Y-89901748D01*
X68027819Y-89901745D01*
X68182427Y-89528487D01*
X68406884Y-89192564D01*
X68406886Y-89192561D01*
X68692561Y-88906886D01*
X68703145Y-88899814D01*
X69028487Y-88682427D01*
X69401745Y-88527819D01*
X69401746Y-88527819D01*
X69401748Y-88527818D01*
X69797993Y-88449000D01*
X70202007Y-88449000D01*
X70598252Y-88527818D01*
X70598252Y-88527818D01*
G37*
G36*
X50101000Y-92216000D02*
X48499000Y-92216000D01*
X48499000Y-91514000D01*
X50101000Y-91514000D01*
X50101000Y-92216000D01*
X50101000Y-92216000D01*
G37*
G36*
X55501000Y-92216000D02*
X53899000Y-92216000D01*
X53899000Y-91514000D01*
X55501000Y-91514000D01*
X55501000Y-92216000D01*
X55501000Y-92216000D01*
G37*
G36*
X86101000Y-91716000D02*
X84499000Y-91716000D01*
X84499000Y-91014000D01*
X86101000Y-91014000D01*
X86101000Y-91716000D01*
X86101000Y-91716000D01*
G37*
G36*
X91501000Y-91716000D02*
X89899000Y-91716000D01*
X89899000Y-91014000D01*
X91501000Y-91014000D01*
X91501000Y-91716000D01*
X91501000Y-91716000D01*
G37*
G36*
X50101000Y-90946000D02*
X48499000Y-90946000D01*
X48499000Y-90244000D01*
X50101000Y-90244000D01*
X50101000Y-90946000D01*
X50101000Y-90946000D01*
G37*
G36*
X55501000Y-90946000D02*
X53899000Y-90946000D01*
X53899000Y-90244000D01*
X55501000Y-90244000D01*
X55501000Y-90946000D01*
X55501000Y-90946000D01*
G37*
G36*
X91501000Y-90446000D02*
X89899000Y-90446000D01*
X89899000Y-89744000D01*
X91501000Y-89744000D01*
X91501000Y-90446000D01*
X91501000Y-90446000D01*
G37*
G36*
X86101000Y-90446000D02*
X84499000Y-90446000D01*
X84499000Y-89744000D01*
X86101000Y-89744000D01*
X86101000Y-90446000D01*
X86101000Y-90446000D01*
G37*
G36*
X43110443Y-88645519D02*
X43176627Y-88652037D01*
X43276813Y-88682428D01*
X43346467Y-88703557D01*
X43485087Y-88777652D01*
X43502991Y-88787222D01*
X43538729Y-88816552D01*
X43640186Y-88899814D01*
X43723448Y-89001271D01*
X43752778Y-89037009D01*
X43752779Y-89037011D01*
X43836443Y-89193533D01*
X43836443Y-89193534D01*
X43887963Y-89363373D01*
X43905359Y-89540000D01*
X43887963Y-89716627D01*
X43853616Y-89829853D01*
X43836443Y-89886467D01*
X43828275Y-89901748D01*
X43752778Y-90042991D01*
X43723448Y-90078729D01*
X43640186Y-90180186D01*
X43562427Y-90244000D01*
X43502991Y-90292778D01*
X43502989Y-90292779D01*
X43346467Y-90376443D01*
X43289853Y-90393616D01*
X43176627Y-90427963D01*
X43110442Y-90434482D01*
X43044260Y-90441000D01*
X42955740Y-90441000D01*
X42889558Y-90434482D01*
X42823373Y-90427963D01*
X42710147Y-90393616D01*
X42653533Y-90376443D01*
X42497011Y-90292779D01*
X42497009Y-90292778D01*
X42437573Y-90244000D01*
X42359814Y-90180186D01*
X42276552Y-90078729D01*
X42247222Y-90042991D01*
X42171725Y-89901748D01*
X42163557Y-89886467D01*
X42146384Y-89829853D01*
X42112037Y-89716627D01*
X42094641Y-89540000D01*
X42112037Y-89363373D01*
X42163557Y-89193534D01*
X42163557Y-89193533D01*
X42247221Y-89037011D01*
X42247222Y-89037009D01*
X42276552Y-89001271D01*
X42359814Y-88899814D01*
X42461271Y-88816552D01*
X42497009Y-88787222D01*
X42514913Y-88777652D01*
X42653533Y-88703557D01*
X42723187Y-88682428D01*
X42823373Y-88652037D01*
X42889557Y-88645519D01*
X42955740Y-88639000D01*
X43044260Y-88639000D01*
X43110443Y-88645519D01*
X43110443Y-88645519D01*
G37*
G36*
X97110443Y-88645519D02*
X97176627Y-88652037D01*
X97276813Y-88682428D01*
X97346467Y-88703557D01*
X97485087Y-88777652D01*
X97502991Y-88787222D01*
X97538729Y-88816552D01*
X97640186Y-88899814D01*
X97723448Y-89001271D01*
X97752778Y-89037009D01*
X97752779Y-89037011D01*
X97836443Y-89193533D01*
X97836443Y-89193534D01*
X97887963Y-89363373D01*
X97905359Y-89540000D01*
X97887963Y-89716627D01*
X97853616Y-89829853D01*
X97836443Y-89886467D01*
X97828275Y-89901748D01*
X97752778Y-90042991D01*
X97723448Y-90078729D01*
X97640186Y-90180186D01*
X97562427Y-90244000D01*
X97502991Y-90292778D01*
X97502989Y-90292779D01*
X97346467Y-90376443D01*
X97289853Y-90393616D01*
X97176627Y-90427963D01*
X97110442Y-90434482D01*
X97044260Y-90441000D01*
X96955740Y-90441000D01*
X96889558Y-90434482D01*
X96823373Y-90427963D01*
X96710147Y-90393616D01*
X96653533Y-90376443D01*
X96497011Y-90292779D01*
X96497009Y-90292778D01*
X96437573Y-90244000D01*
X96359814Y-90180186D01*
X96276552Y-90078729D01*
X96247222Y-90042991D01*
X96171725Y-89901748D01*
X96163557Y-89886467D01*
X96146384Y-89829853D01*
X96112037Y-89716627D01*
X96094641Y-89540000D01*
X96112037Y-89363373D01*
X96163557Y-89193534D01*
X96163557Y-89193533D01*
X96247221Y-89037011D01*
X96247222Y-89037009D01*
X96276552Y-89001271D01*
X96359814Y-88899814D01*
X96461271Y-88816552D01*
X96497009Y-88787222D01*
X96514913Y-88777652D01*
X96653533Y-88703557D01*
X96723187Y-88682428D01*
X96823373Y-88652037D01*
X96889557Y-88645519D01*
X96955740Y-88639000D01*
X97044260Y-88639000D01*
X97110443Y-88645519D01*
X97110443Y-88645519D01*
G37*
G36*
X50101000Y-89676000D02*
X48499000Y-89676000D01*
X48499000Y-88974000D01*
X50101000Y-88974000D01*
X50101000Y-89676000D01*
X50101000Y-89676000D01*
G37*
G36*
X55501000Y-89676000D02*
X53899000Y-89676000D01*
X53899000Y-88974000D01*
X55501000Y-88974000D01*
X55501000Y-89676000D01*
X55501000Y-89676000D01*
G37*
G36*
X86101000Y-89176000D02*
X84499000Y-89176000D01*
X84499000Y-88474000D01*
X86101000Y-88474000D01*
X86101000Y-89176000D01*
X86101000Y-89176000D01*
G37*
G36*
X91501000Y-89176000D02*
X89899000Y-89176000D01*
X89899000Y-88474000D01*
X91501000Y-88474000D01*
X91501000Y-89176000D01*
X91501000Y-89176000D01*
G37*
G36*
X55501000Y-88406000D02*
X53899000Y-88406000D01*
X53899000Y-87704000D01*
X55501000Y-87704000D01*
X55501000Y-88406000D01*
X55501000Y-88406000D01*
G37*
G36*
X50101000Y-88406000D02*
X48499000Y-88406000D01*
X48499000Y-87704000D01*
X50101000Y-87704000D01*
X50101000Y-88406000D01*
X50101000Y-88406000D01*
G37*
G36*
X91501000Y-87906000D02*
X89899000Y-87906000D01*
X89899000Y-87204000D01*
X91501000Y-87204000D01*
X91501000Y-87906000D01*
X91501000Y-87906000D01*
G37*
G36*
X86101000Y-87906000D02*
X84499000Y-87906000D01*
X84499000Y-87204000D01*
X86101000Y-87204000D01*
X86101000Y-87906000D01*
X86101000Y-87906000D01*
G37*
G36*
X97901000Y-87901000D02*
X96099000Y-87901000D01*
X96099000Y-86099000D01*
X97901000Y-86099000D01*
X97901000Y-87901000D01*
X97901000Y-87901000D01*
G37*
G36*
X43901000Y-87901000D02*
X42099000Y-87901000D01*
X42099000Y-86099000D01*
X43901000Y-86099000D01*
X43901000Y-87901000D01*
X43901000Y-87901000D01*
G37*
G36*
X42413677Y-79753465D02*
X42451364Y-79764898D01*
X42486103Y-79783466D01*
X42516548Y-79808452D01*
X42541534Y-79838897D01*
X42560102Y-79873636D01*
X42571535Y-79911323D01*
X42576000Y-79956661D01*
X42576000Y-81043339D01*
X42571535Y-81088677D01*
X42560102Y-81126364D01*
X42541534Y-81161103D01*
X42516548Y-81191548D01*
X42486103Y-81216534D01*
X42451364Y-81235102D01*
X42413677Y-81246535D01*
X42368339Y-81251000D01*
X41531661Y-81251000D01*
X41486323Y-81246535D01*
X41448636Y-81235102D01*
X41413897Y-81216534D01*
X41383452Y-81191548D01*
X41358466Y-81161103D01*
X41339898Y-81126364D01*
X41328465Y-81088677D01*
X41324000Y-81043339D01*
X41324000Y-79956661D01*
X41328465Y-79911323D01*
X41339898Y-79873636D01*
X41358466Y-79838897D01*
X41383452Y-79808452D01*
X41413897Y-79783466D01*
X41448636Y-79764898D01*
X41486323Y-79753465D01*
X41531661Y-79749000D01*
X42368339Y-79749000D01*
X42413677Y-79753465D01*
X42413677Y-79753465D01*
G37*
G36*
X44463677Y-79753465D02*
X44501364Y-79764898D01*
X44536103Y-79783466D01*
X44566548Y-79808452D01*
X44591534Y-79838897D01*
X44610102Y-79873636D01*
X44621535Y-79911323D01*
X44626000Y-79956661D01*
X44626000Y-81043339D01*
X44621535Y-81088677D01*
X44610102Y-81126364D01*
X44591534Y-81161103D01*
X44566548Y-81191548D01*
X44536103Y-81216534D01*
X44501364Y-81235102D01*
X44463677Y-81246535D01*
X44418339Y-81251000D01*
X43581661Y-81251000D01*
X43536323Y-81246535D01*
X43498636Y-81235102D01*
X43463897Y-81216534D01*
X43433452Y-81191548D01*
X43408466Y-81161103D01*
X43389898Y-81126364D01*
X43378465Y-81088677D01*
X43374000Y-81043339D01*
X43374000Y-79956661D01*
X43378465Y-79911323D01*
X43389898Y-79873636D01*
X43408466Y-79838897D01*
X43433452Y-79808452D01*
X43463897Y-79783466D01*
X43498636Y-79764898D01*
X43536323Y-79753465D01*
X43581661Y-79749000D01*
X44418339Y-79749000D01*
X44463677Y-79753465D01*
X44463677Y-79753465D01*
G37*
G36*
X49963677Y-79753465D02*
X50001364Y-79764898D01*
X50036103Y-79783466D01*
X50066548Y-79808452D01*
X50091534Y-79838897D01*
X50110102Y-79873636D01*
X50121535Y-79911323D01*
X50126000Y-79956661D01*
X50126000Y-81043339D01*
X50121535Y-81088677D01*
X50110102Y-81126364D01*
X50091534Y-81161103D01*
X50066548Y-81191548D01*
X50036103Y-81216534D01*
X50001364Y-81235102D01*
X49963677Y-81246535D01*
X49918339Y-81251000D01*
X49081661Y-81251000D01*
X49036323Y-81246535D01*
X48998636Y-81235102D01*
X48963897Y-81216534D01*
X48933452Y-81191548D01*
X48908466Y-81161103D01*
X48889898Y-81126364D01*
X48878465Y-81088677D01*
X48874000Y-81043339D01*
X48874000Y-79956661D01*
X48878465Y-79911323D01*
X48889898Y-79873636D01*
X48908466Y-79838897D01*
X48933452Y-79808452D01*
X48963897Y-79783466D01*
X48998636Y-79764898D01*
X49036323Y-79753465D01*
X49081661Y-79749000D01*
X49918339Y-79749000D01*
X49963677Y-79753465D01*
X49963677Y-79753465D01*
G37*
G36*
X47913677Y-79753465D02*
X47951364Y-79764898D01*
X47986103Y-79783466D01*
X48016548Y-79808452D01*
X48041534Y-79838897D01*
X48060102Y-79873636D01*
X48071535Y-79911323D01*
X48076000Y-79956661D01*
X48076000Y-81043339D01*
X48071535Y-81088677D01*
X48060102Y-81126364D01*
X48041534Y-81161103D01*
X48016548Y-81191548D01*
X47986103Y-81216534D01*
X47951364Y-81235102D01*
X47913677Y-81246535D01*
X47868339Y-81251000D01*
X47031661Y-81251000D01*
X46986323Y-81246535D01*
X46948636Y-81235102D01*
X46913897Y-81216534D01*
X46883452Y-81191548D01*
X46858466Y-81161103D01*
X46839898Y-81126364D01*
X46828465Y-81088677D01*
X46824000Y-81043339D01*
X46824000Y-79956661D01*
X46828465Y-79911323D01*
X46839898Y-79873636D01*
X46858466Y-79838897D01*
X46883452Y-79808452D01*
X46913897Y-79783466D01*
X46948636Y-79764898D01*
X46986323Y-79753465D01*
X47031661Y-79749000D01*
X47868339Y-79749000D01*
X47913677Y-79753465D01*
X47913677Y-79753465D01*
G37*
G36*
X90166821Y-77681313D02*
X90166824Y-77681314D01*
X90166825Y-77681314D01*
X90327239Y-77729975D01*
X90327241Y-77729976D01*
X90327244Y-77729977D01*
X90475078Y-77808995D01*
X90604659Y-77915341D01*
X90711005Y-78044922D01*
X90790023Y-78192756D01*
X90838687Y-78353179D01*
X90855117Y-78520000D01*
X90838687Y-78686821D01*
X90790023Y-78847244D01*
X90711005Y-78995078D01*
X90604659Y-79124659D01*
X90475078Y-79231005D01*
X90327244Y-79310023D01*
X90327241Y-79310024D01*
X90327239Y-79310025D01*
X90166825Y-79358686D01*
X90166824Y-79358686D01*
X90166821Y-79358687D01*
X90041804Y-79371000D01*
X89958196Y-79371000D01*
X89833179Y-79358687D01*
X89833176Y-79358686D01*
X89833175Y-79358686D01*
X89672761Y-79310025D01*
X89672759Y-79310024D01*
X89672756Y-79310023D01*
X89524922Y-79231005D01*
X89395341Y-79124659D01*
X89288995Y-78995078D01*
X89209977Y-78847244D01*
X89161313Y-78686821D01*
X89144883Y-78520000D01*
X89161313Y-78353179D01*
X89209977Y-78192756D01*
X89288995Y-78044922D01*
X89395341Y-77915341D01*
X89524922Y-77808995D01*
X89672756Y-77729977D01*
X89672759Y-77729976D01*
X89672761Y-77729975D01*
X89833175Y-77681314D01*
X89833176Y-77681314D01*
X89833179Y-77681313D01*
X89958196Y-77669000D01*
X90041804Y-77669000D01*
X90166821Y-77681313D01*
X90166821Y-77681313D01*
G37*
G36*
X97786821Y-77681313D02*
X97786824Y-77681314D01*
X97786825Y-77681314D01*
X97947239Y-77729975D01*
X97947241Y-77729976D01*
X97947244Y-77729977D01*
X98095078Y-77808995D01*
X98224659Y-77915341D01*
X98331005Y-78044922D01*
X98410023Y-78192756D01*
X98458687Y-78353179D01*
X98475117Y-78520000D01*
X98458687Y-78686821D01*
X98410023Y-78847244D01*
X98331005Y-78995078D01*
X98224659Y-79124659D01*
X98095078Y-79231005D01*
X97947244Y-79310023D01*
X97947241Y-79310024D01*
X97947239Y-79310025D01*
X97786825Y-79358686D01*
X97786824Y-79358686D01*
X97786821Y-79358687D01*
X97661804Y-79371000D01*
X97578196Y-79371000D01*
X97453179Y-79358687D01*
X97453176Y-79358686D01*
X97453175Y-79358686D01*
X97292761Y-79310025D01*
X97292759Y-79310024D01*
X97292756Y-79310023D01*
X97144922Y-79231005D01*
X97015341Y-79124659D01*
X96908995Y-78995078D01*
X96829977Y-78847244D01*
X96781313Y-78686821D01*
X96764883Y-78520000D01*
X96781313Y-78353179D01*
X96829977Y-78192756D01*
X96908995Y-78044922D01*
X97015341Y-77915341D01*
X97144922Y-77808995D01*
X97292756Y-77729977D01*
X97292759Y-77729976D01*
X97292761Y-77729975D01*
X97453175Y-77681314D01*
X97453176Y-77681314D01*
X97453179Y-77681313D01*
X97578196Y-77669000D01*
X97661804Y-77669000D01*
X97786821Y-77681313D01*
X97786821Y-77681313D01*
G37*
G36*
X53088677Y-76928465D02*
X53126364Y-76939898D01*
X53161103Y-76958466D01*
X53191548Y-76983452D01*
X53216534Y-77013897D01*
X53235102Y-77048636D01*
X53246535Y-77086323D01*
X53251000Y-77131661D01*
X53251000Y-77968339D01*
X53246535Y-78013677D01*
X53235102Y-78051364D01*
X53216534Y-78086103D01*
X53191548Y-78116548D01*
X53161103Y-78141534D01*
X53126364Y-78160102D01*
X53088677Y-78171535D01*
X53043339Y-78176000D01*
X51956661Y-78176000D01*
X51911323Y-78171535D01*
X51873636Y-78160102D01*
X51838897Y-78141534D01*
X51808452Y-78116548D01*
X51783466Y-78086103D01*
X51764898Y-78051364D01*
X51753465Y-78013677D01*
X51749000Y-77968339D01*
X51749000Y-77131661D01*
X51753465Y-77086323D01*
X51764898Y-77048636D01*
X51783466Y-77013897D01*
X51808452Y-76983452D01*
X51838897Y-76958466D01*
X51873636Y-76939898D01*
X51911323Y-76928465D01*
X51956661Y-76924000D01*
X53043339Y-76924000D01*
X53088677Y-76928465D01*
X53088677Y-76928465D01*
G37*
G36*
X50588677Y-76928465D02*
X50626364Y-76939898D01*
X50661103Y-76958466D01*
X50691548Y-76983452D01*
X50716534Y-77013897D01*
X50735102Y-77048636D01*
X50746535Y-77086323D01*
X50751000Y-77131661D01*
X50751000Y-77968339D01*
X50746535Y-78013677D01*
X50735102Y-78051364D01*
X50716534Y-78086103D01*
X50691548Y-78116548D01*
X50661103Y-78141534D01*
X50626364Y-78160102D01*
X50588677Y-78171535D01*
X50543339Y-78176000D01*
X49456661Y-78176000D01*
X49411323Y-78171535D01*
X49373636Y-78160102D01*
X49338897Y-78141534D01*
X49308452Y-78116548D01*
X49283466Y-78086103D01*
X49264898Y-78051364D01*
X49253465Y-78013677D01*
X49249000Y-77968339D01*
X49249000Y-77131661D01*
X49253465Y-77086323D01*
X49264898Y-77048636D01*
X49283466Y-77013897D01*
X49308452Y-76983452D01*
X49338897Y-76958466D01*
X49373636Y-76939898D01*
X49411323Y-76928465D01*
X49456661Y-76924000D01*
X50543339Y-76924000D01*
X50588677Y-76928465D01*
X50588677Y-76928465D01*
G37*
G36*
X47726000Y-78081000D02*
X45274000Y-78081000D01*
X45274000Y-76719000D01*
X47726000Y-76719000D01*
X47726000Y-78081000D01*
X47726000Y-78081000D01*
G37*
G36*
X90166821Y-75141313D02*
X90166824Y-75141314D01*
X90166825Y-75141314D01*
X90327239Y-75189975D01*
X90327241Y-75189976D01*
X90327244Y-75189977D01*
X90475078Y-75268995D01*
X90604659Y-75375341D01*
X90711005Y-75504922D01*
X90790023Y-75652756D01*
X90838687Y-75813179D01*
X90855117Y-75980000D01*
X90838687Y-76146821D01*
X90790023Y-76307244D01*
X90711005Y-76455078D01*
X90604659Y-76584659D01*
X90475078Y-76691005D01*
X90327244Y-76770023D01*
X90327241Y-76770024D01*
X90327239Y-76770025D01*
X90166825Y-76818686D01*
X90166824Y-76818686D01*
X90166821Y-76818687D01*
X90041804Y-76831000D01*
X89958196Y-76831000D01*
X89833179Y-76818687D01*
X89833176Y-76818686D01*
X89833175Y-76818686D01*
X89672761Y-76770025D01*
X89672759Y-76770024D01*
X89672756Y-76770023D01*
X89524922Y-76691005D01*
X89395341Y-76584659D01*
X89288995Y-76455078D01*
X89209977Y-76307244D01*
X89161313Y-76146821D01*
X89144883Y-75980000D01*
X89161313Y-75813179D01*
X89209977Y-75652756D01*
X89288995Y-75504922D01*
X89395341Y-75375341D01*
X89524922Y-75268995D01*
X89672756Y-75189977D01*
X89672759Y-75189976D01*
X89672761Y-75189975D01*
X89833175Y-75141314D01*
X89833176Y-75141314D01*
X89833179Y-75141313D01*
X89958196Y-75129000D01*
X90041804Y-75129000D01*
X90166821Y-75141313D01*
X90166821Y-75141313D01*
G37*
G36*
X97786821Y-75141313D02*
X97786824Y-75141314D01*
X97786825Y-75141314D01*
X97947239Y-75189975D01*
X97947241Y-75189976D01*
X97947244Y-75189977D01*
X98095078Y-75268995D01*
X98224659Y-75375341D01*
X98331005Y-75504922D01*
X98410023Y-75652756D01*
X98458687Y-75813179D01*
X98475117Y-75980000D01*
X98458687Y-76146821D01*
X98410023Y-76307244D01*
X98331005Y-76455078D01*
X98224659Y-76584659D01*
X98095078Y-76691005D01*
X97947244Y-76770023D01*
X97947241Y-76770024D01*
X97947239Y-76770025D01*
X97786825Y-76818686D01*
X97786824Y-76818686D01*
X97786821Y-76818687D01*
X97661804Y-76831000D01*
X97578196Y-76831000D01*
X97453179Y-76818687D01*
X97453176Y-76818686D01*
X97453175Y-76818686D01*
X97292761Y-76770025D01*
X97292759Y-76770024D01*
X97292756Y-76770023D01*
X97144922Y-76691005D01*
X97015341Y-76584659D01*
X96908995Y-76455078D01*
X96829977Y-76307244D01*
X96781313Y-76146821D01*
X96764883Y-75980000D01*
X96781313Y-75813179D01*
X96829977Y-75652756D01*
X96908995Y-75504922D01*
X97015341Y-75375341D01*
X97144922Y-75268995D01*
X97292756Y-75189977D01*
X97292759Y-75189976D01*
X97292761Y-75189975D01*
X97453175Y-75141314D01*
X97453176Y-75141314D01*
X97453179Y-75141313D01*
X97578196Y-75129000D01*
X97661804Y-75129000D01*
X97786821Y-75141313D01*
X97786821Y-75141313D01*
G37*
G36*
X47951000Y-76321000D02*
X45049000Y-76321000D01*
X45049000Y-73679000D01*
X47951000Y-73679000D01*
X47951000Y-76321000D01*
X47951000Y-76321000D01*
G37*
G36*
X53088677Y-74878465D02*
X53126364Y-74889898D01*
X53161103Y-74908466D01*
X53191548Y-74933452D01*
X53216534Y-74963897D01*
X53235102Y-74998636D01*
X53246535Y-75036323D01*
X53251000Y-75081661D01*
X53251000Y-75918339D01*
X53246535Y-75963677D01*
X53235102Y-76001364D01*
X53216534Y-76036103D01*
X53191548Y-76066548D01*
X53161103Y-76091534D01*
X53126364Y-76110102D01*
X53088677Y-76121535D01*
X53043339Y-76126000D01*
X51956661Y-76126000D01*
X51911323Y-76121535D01*
X51873636Y-76110102D01*
X51838897Y-76091534D01*
X51808452Y-76066548D01*
X51783466Y-76036103D01*
X51764898Y-76001364D01*
X51753465Y-75963677D01*
X51749000Y-75918339D01*
X51749000Y-75081661D01*
X51753465Y-75036323D01*
X51764898Y-74998636D01*
X51783466Y-74963897D01*
X51808452Y-74933452D01*
X51838897Y-74908466D01*
X51873636Y-74889898D01*
X51911323Y-74878465D01*
X51956661Y-74874000D01*
X53043339Y-74874000D01*
X53088677Y-74878465D01*
X53088677Y-74878465D01*
G37*
G36*
X50588677Y-74878465D02*
X50626364Y-74889898D01*
X50661103Y-74908466D01*
X50691548Y-74933452D01*
X50716534Y-74963897D01*
X50735102Y-74998636D01*
X50746535Y-75036323D01*
X50751000Y-75081661D01*
X50751000Y-75918339D01*
X50746535Y-75963677D01*
X50735102Y-76001364D01*
X50716534Y-76036103D01*
X50691548Y-76066548D01*
X50661103Y-76091534D01*
X50626364Y-76110102D01*
X50588677Y-76121535D01*
X50543339Y-76126000D01*
X49456661Y-76126000D01*
X49411323Y-76121535D01*
X49373636Y-76110102D01*
X49338897Y-76091534D01*
X49308452Y-76066548D01*
X49283466Y-76036103D01*
X49264898Y-76001364D01*
X49253465Y-75963677D01*
X49249000Y-75918339D01*
X49249000Y-75081661D01*
X49253465Y-75036323D01*
X49264898Y-74998636D01*
X49283466Y-74963897D01*
X49308452Y-74933452D01*
X49338897Y-74908466D01*
X49373636Y-74889898D01*
X49411323Y-74878465D01*
X49456661Y-74874000D01*
X50543339Y-74874000D01*
X50588677Y-74878465D01*
X50588677Y-74878465D01*
G37*
G36*
X43588677Y-73928465D02*
X43626364Y-73939898D01*
X43661103Y-73958466D01*
X43691548Y-73983452D01*
X43716534Y-74013897D01*
X43735102Y-74048636D01*
X43746535Y-74086323D01*
X43751000Y-74131661D01*
X43751000Y-74968339D01*
X43746535Y-75013677D01*
X43735102Y-75051364D01*
X43716534Y-75086103D01*
X43691548Y-75116548D01*
X43661103Y-75141534D01*
X43626364Y-75160102D01*
X43588677Y-75171535D01*
X43543339Y-75176000D01*
X42456661Y-75176000D01*
X42411323Y-75171535D01*
X42373636Y-75160102D01*
X42338897Y-75141534D01*
X42308452Y-75116548D01*
X42283466Y-75086103D01*
X42264898Y-75051364D01*
X42253465Y-75013677D01*
X42249000Y-74968339D01*
X42249000Y-74131661D01*
X42253465Y-74086323D01*
X42264898Y-74048636D01*
X42283466Y-74013897D01*
X42308452Y-73983452D01*
X42338897Y-73958466D01*
X42373636Y-73939898D01*
X42411323Y-73928465D01*
X42456661Y-73924000D01*
X43543339Y-73924000D01*
X43588677Y-73928465D01*
X43588677Y-73928465D01*
G37*
G36*
X97786821Y-72601313D02*
X97786824Y-72601314D01*
X97786825Y-72601314D01*
X97947239Y-72649975D01*
X97947241Y-72649976D01*
X97947244Y-72649977D01*
X98095078Y-72728995D01*
X98224659Y-72835341D01*
X98331005Y-72964922D01*
X98410023Y-73112756D01*
X98410024Y-73112759D01*
X98410025Y-73112761D01*
X98414041Y-73126000D01*
X98458687Y-73273179D01*
X98475117Y-73440000D01*
X98458687Y-73606821D01*
X98410023Y-73767244D01*
X98331005Y-73915078D01*
X98224659Y-74044659D01*
X98095078Y-74151005D01*
X97947244Y-74230023D01*
X97947241Y-74230024D01*
X97947239Y-74230025D01*
X97786825Y-74278686D01*
X97786824Y-74278686D01*
X97786821Y-74278687D01*
X97661804Y-74291000D01*
X97578196Y-74291000D01*
X97453179Y-74278687D01*
X97453176Y-74278686D01*
X97453175Y-74278686D01*
X97292761Y-74230025D01*
X97292759Y-74230024D01*
X97292756Y-74230023D01*
X97144922Y-74151005D01*
X97015341Y-74044659D01*
X96908995Y-73915078D01*
X96829977Y-73767244D01*
X96781313Y-73606821D01*
X96764883Y-73440000D01*
X96781313Y-73273179D01*
X96825959Y-73126000D01*
X96829975Y-73112761D01*
X96829976Y-73112759D01*
X96829977Y-73112756D01*
X96908995Y-72964922D01*
X97015341Y-72835341D01*
X97144922Y-72728995D01*
X97292756Y-72649977D01*
X97292759Y-72649976D01*
X97292761Y-72649975D01*
X97453175Y-72601314D01*
X97453176Y-72601314D01*
X97453179Y-72601313D01*
X97578196Y-72589000D01*
X97661804Y-72589000D01*
X97786821Y-72601313D01*
X97786821Y-72601313D01*
G37*
G36*
X90166821Y-72601313D02*
X90166824Y-72601314D01*
X90166825Y-72601314D01*
X90327239Y-72649975D01*
X90327241Y-72649976D01*
X90327244Y-72649977D01*
X90475078Y-72728995D01*
X90604659Y-72835341D01*
X90711005Y-72964922D01*
X90790023Y-73112756D01*
X90790024Y-73112759D01*
X90790025Y-73112761D01*
X90794041Y-73126000D01*
X90838687Y-73273179D01*
X90855117Y-73440000D01*
X90838687Y-73606821D01*
X90790023Y-73767244D01*
X90711005Y-73915078D01*
X90604659Y-74044659D01*
X90475078Y-74151005D01*
X90327244Y-74230023D01*
X90327241Y-74230024D01*
X90327239Y-74230025D01*
X90166825Y-74278686D01*
X90166824Y-74278686D01*
X90166821Y-74278687D01*
X90041804Y-74291000D01*
X89958196Y-74291000D01*
X89833179Y-74278687D01*
X89833176Y-74278686D01*
X89833175Y-74278686D01*
X89672761Y-74230025D01*
X89672759Y-74230024D01*
X89672756Y-74230023D01*
X89524922Y-74151005D01*
X89395341Y-74044659D01*
X89288995Y-73915078D01*
X89209977Y-73767244D01*
X89161313Y-73606821D01*
X89144883Y-73440000D01*
X89161313Y-73273179D01*
X89205959Y-73126000D01*
X89209975Y-73112761D01*
X89209976Y-73112759D01*
X89209977Y-73112756D01*
X89288995Y-72964922D01*
X89395341Y-72835341D01*
X89524922Y-72728995D01*
X89672756Y-72649977D01*
X89672759Y-72649976D01*
X89672761Y-72649975D01*
X89833175Y-72601314D01*
X89833176Y-72601314D01*
X89833179Y-72601313D01*
X89958196Y-72589000D01*
X90041804Y-72589000D01*
X90166821Y-72601313D01*
X90166821Y-72601313D01*
G37*
G36*
X47726000Y-73281000D02*
X45274000Y-73281000D01*
X45274000Y-71919000D01*
X47726000Y-71919000D01*
X47726000Y-73281000D01*
X47726000Y-73281000D01*
G37*
G36*
X43588677Y-71878465D02*
X43626364Y-71889898D01*
X43661103Y-71908466D01*
X43691548Y-71933452D01*
X43716534Y-71963897D01*
X43735102Y-71998636D01*
X43746535Y-72036323D01*
X43751000Y-72081661D01*
X43751000Y-72918339D01*
X43746535Y-72963677D01*
X43735102Y-73001364D01*
X43716534Y-73036103D01*
X43691548Y-73066548D01*
X43661103Y-73091534D01*
X43626364Y-73110102D01*
X43588677Y-73121535D01*
X43543339Y-73126000D01*
X42456661Y-73126000D01*
X42411323Y-73121535D01*
X42373636Y-73110102D01*
X42338897Y-73091534D01*
X42308452Y-73066548D01*
X42283466Y-73036103D01*
X42264898Y-73001364D01*
X42253465Y-72963677D01*
X42249000Y-72918339D01*
X42249000Y-72081661D01*
X42253465Y-72036323D01*
X42264898Y-71998636D01*
X42283466Y-71963897D01*
X42308452Y-71933452D01*
X42338897Y-71908466D01*
X42373636Y-71889898D01*
X42411323Y-71878465D01*
X42456661Y-71874000D01*
X43543339Y-71874000D01*
X43588677Y-71878465D01*
X43588677Y-71878465D01*
G37*
G36*
X90166821Y-70061313D02*
X90166824Y-70061314D01*
X90166825Y-70061314D01*
X90327239Y-70109975D01*
X90327241Y-70109976D01*
X90327244Y-70109977D01*
X90475078Y-70188995D01*
X90604659Y-70295341D01*
X90711005Y-70424922D01*
X90790023Y-70572756D01*
X90838687Y-70733179D01*
X90855117Y-70900000D01*
X90838687Y-71066821D01*
X90790023Y-71227244D01*
X90711005Y-71375078D01*
X90604659Y-71504659D01*
X90475078Y-71611005D01*
X90327244Y-71690023D01*
X90327241Y-71690024D01*
X90327239Y-71690025D01*
X90166825Y-71738686D01*
X90166824Y-71738686D01*
X90166821Y-71738687D01*
X90041804Y-71751000D01*
X89958196Y-71751000D01*
X89833179Y-71738687D01*
X89833176Y-71738686D01*
X89833175Y-71738686D01*
X89672761Y-71690025D01*
X89672759Y-71690024D01*
X89672756Y-71690023D01*
X89524922Y-71611005D01*
X89395341Y-71504659D01*
X89288995Y-71375078D01*
X89209977Y-71227244D01*
X89161313Y-71066821D01*
X89144883Y-70900000D01*
X89161313Y-70733179D01*
X89209977Y-70572756D01*
X89288995Y-70424922D01*
X89395341Y-70295341D01*
X89524922Y-70188995D01*
X89672756Y-70109977D01*
X89672759Y-70109976D01*
X89672761Y-70109975D01*
X89833175Y-70061314D01*
X89833176Y-70061314D01*
X89833179Y-70061313D01*
X89958196Y-70049000D01*
X90041804Y-70049000D01*
X90166821Y-70061313D01*
X90166821Y-70061313D01*
G37*
G36*
X97786821Y-70061313D02*
X97786824Y-70061314D01*
X97786825Y-70061314D01*
X97947239Y-70109975D01*
X97947241Y-70109976D01*
X97947244Y-70109977D01*
X98095078Y-70188995D01*
X98224659Y-70295341D01*
X98331005Y-70424922D01*
X98410023Y-70572756D01*
X98458687Y-70733179D01*
X98475117Y-70900000D01*
X98458687Y-71066821D01*
X98410023Y-71227244D01*
X98331005Y-71375078D01*
X98224659Y-71504659D01*
X98095078Y-71611005D01*
X97947244Y-71690023D01*
X97947241Y-71690024D01*
X97947239Y-71690025D01*
X97786825Y-71738686D01*
X97786824Y-71738686D01*
X97786821Y-71738687D01*
X97661804Y-71751000D01*
X97578196Y-71751000D01*
X97453179Y-71738687D01*
X97453176Y-71738686D01*
X97453175Y-71738686D01*
X97292761Y-71690025D01*
X97292759Y-71690024D01*
X97292756Y-71690023D01*
X97144922Y-71611005D01*
X97015341Y-71504659D01*
X96908995Y-71375078D01*
X96829977Y-71227244D01*
X96781313Y-71066821D01*
X96764883Y-70900000D01*
X96781313Y-70733179D01*
X96829977Y-70572756D01*
X96908995Y-70424922D01*
X97015341Y-70295341D01*
X97144922Y-70188995D01*
X97292756Y-70109977D01*
X97292759Y-70109976D01*
X97292761Y-70109975D01*
X97453175Y-70061314D01*
X97453176Y-70061314D01*
X97453179Y-70061313D01*
X97578196Y-70049000D01*
X97661804Y-70049000D01*
X97786821Y-70061313D01*
X97786821Y-70061313D01*
G37*
G36*
X48613062Y-67628181D02*
X48647977Y-67638773D01*
X48680165Y-67655978D01*
X48708373Y-67679127D01*
X48731522Y-67707335D01*
X48748727Y-67739523D01*
X48759319Y-67774438D01*
X48763500Y-67816895D01*
X48763500Y-70183105D01*
X48759319Y-70225562D01*
X48748727Y-70260477D01*
X48731522Y-70292665D01*
X48708373Y-70320873D01*
X48680165Y-70344022D01*
X48647977Y-70361227D01*
X48613062Y-70371819D01*
X48570605Y-70376000D01*
X47429395Y-70376000D01*
X47386938Y-70371819D01*
X47352023Y-70361227D01*
X47319835Y-70344022D01*
X47291627Y-70320873D01*
X47268478Y-70292665D01*
X47251273Y-70260477D01*
X47240681Y-70225562D01*
X47236500Y-70183105D01*
X47236500Y-67816895D01*
X47240681Y-67774438D01*
X47251273Y-67739523D01*
X47268478Y-67707335D01*
X47291627Y-67679127D01*
X47319835Y-67655978D01*
X47352023Y-67638773D01*
X47386938Y-67628181D01*
X47429395Y-67624000D01*
X48570605Y-67624000D01*
X48613062Y-67628181D01*
X48613062Y-67628181D01*
G37*
G36*
X45638062Y-67628181D02*
X45672977Y-67638773D01*
X45705165Y-67655978D01*
X45733373Y-67679127D01*
X45756522Y-67707335D01*
X45773727Y-67739523D01*
X45784319Y-67774438D01*
X45788500Y-67816895D01*
X45788500Y-70183105D01*
X45784319Y-70225562D01*
X45773727Y-70260477D01*
X45756522Y-70292665D01*
X45733373Y-70320873D01*
X45705165Y-70344022D01*
X45672977Y-70361227D01*
X45638062Y-70371819D01*
X45595605Y-70376000D01*
X44454395Y-70376000D01*
X44411938Y-70371819D01*
X44377023Y-70361227D01*
X44344835Y-70344022D01*
X44316627Y-70320873D01*
X44293478Y-70292665D01*
X44276273Y-70260477D01*
X44265681Y-70225562D01*
X44261500Y-70183105D01*
X44261500Y-67816895D01*
X44265681Y-67774438D01*
X44276273Y-67739523D01*
X44293478Y-67707335D01*
X44316627Y-67679127D01*
X44344835Y-67655978D01*
X44377023Y-67638773D01*
X44411938Y-67628181D01*
X44454395Y-67624000D01*
X45595605Y-67624000D01*
X45638062Y-67628181D01*
X45638062Y-67628181D01*
G37*
G36*
X85233643Y-68609781D02*
X85379415Y-68670162D01*
X85510611Y-68757824D01*
X85622176Y-68869389D01*
X85709838Y-69000585D01*
X85770219Y-69146357D01*
X85801000Y-69301107D01*
X85801000Y-69458893D01*
X85770219Y-69613643D01*
X85709838Y-69759415D01*
X85622176Y-69890611D01*
X85510611Y-70002176D01*
X85379415Y-70089838D01*
X85233643Y-70150219D01*
X85078893Y-70181000D01*
X84921107Y-70181000D01*
X84766357Y-70150219D01*
X84620585Y-70089838D01*
X84489389Y-70002176D01*
X84377824Y-69890611D01*
X84290162Y-69759415D01*
X84229781Y-69613643D01*
X84199000Y-69458893D01*
X84199000Y-69301107D01*
X84229781Y-69146357D01*
X84290162Y-69000585D01*
X84377824Y-68869389D01*
X84489389Y-68757824D01*
X84620585Y-68670162D01*
X84766357Y-68609781D01*
X84921107Y-68579000D01*
X85078893Y-68579000D01*
X85233643Y-68609781D01*
X85233643Y-68609781D01*
G37*
G36*
X97786821Y-67521313D02*
X97786824Y-67521314D01*
X97786825Y-67521314D01*
X97947239Y-67569975D01*
X97947241Y-67569976D01*
X97947244Y-67569977D01*
X98095078Y-67648995D01*
X98224659Y-67755341D01*
X98331005Y-67884922D01*
X98410023Y-68032756D01*
X98458687Y-68193179D01*
X98475117Y-68360000D01*
X98458687Y-68526821D01*
X98458686Y-68526824D01*
X98458686Y-68526825D01*
X98415205Y-68670163D01*
X98410023Y-68687244D01*
X98331005Y-68835078D01*
X98224659Y-68964659D01*
X98095078Y-69071005D01*
X97947244Y-69150023D01*
X97947241Y-69150024D01*
X97947239Y-69150025D01*
X97786825Y-69198686D01*
X97786824Y-69198686D01*
X97786821Y-69198687D01*
X97661804Y-69211000D01*
X97578196Y-69211000D01*
X97453179Y-69198687D01*
X97453176Y-69198686D01*
X97453175Y-69198686D01*
X97292761Y-69150025D01*
X97292759Y-69150024D01*
X97292756Y-69150023D01*
X97144922Y-69071005D01*
X97015341Y-68964659D01*
X96908995Y-68835078D01*
X96829977Y-68687244D01*
X96824796Y-68670163D01*
X96781314Y-68526825D01*
X96781314Y-68526824D01*
X96781313Y-68526821D01*
X96764883Y-68360000D01*
X96781313Y-68193179D01*
X96829977Y-68032756D01*
X96908995Y-67884922D01*
X97015341Y-67755341D01*
X97144922Y-67648995D01*
X97292756Y-67569977D01*
X97292759Y-67569976D01*
X97292761Y-67569975D01*
X97453175Y-67521314D01*
X97453176Y-67521314D01*
X97453179Y-67521313D01*
X97578196Y-67509000D01*
X97661804Y-67509000D01*
X97786821Y-67521313D01*
X97786821Y-67521313D01*
G37*
G36*
X90166821Y-67521313D02*
X90166824Y-67521314D01*
X90166825Y-67521314D01*
X90327239Y-67569975D01*
X90327241Y-67569976D01*
X90327244Y-67569977D01*
X90475078Y-67648995D01*
X90604659Y-67755341D01*
X90711005Y-67884922D01*
X90790023Y-68032756D01*
X90838687Y-68193179D01*
X90855117Y-68360000D01*
X90838687Y-68526821D01*
X90838686Y-68526824D01*
X90838686Y-68526825D01*
X90795205Y-68670163D01*
X90790023Y-68687244D01*
X90711005Y-68835078D01*
X90604659Y-68964659D01*
X90475078Y-69071005D01*
X90327244Y-69150023D01*
X90327241Y-69150024D01*
X90327239Y-69150025D01*
X90166825Y-69198686D01*
X90166824Y-69198686D01*
X90166821Y-69198687D01*
X90041804Y-69211000D01*
X89958196Y-69211000D01*
X89833179Y-69198687D01*
X89833176Y-69198686D01*
X89833175Y-69198686D01*
X89672761Y-69150025D01*
X89672759Y-69150024D01*
X89672756Y-69150023D01*
X89524922Y-69071005D01*
X89395341Y-68964659D01*
X89288995Y-68835078D01*
X89209977Y-68687244D01*
X89204796Y-68670163D01*
X89161314Y-68526825D01*
X89161314Y-68526824D01*
X89161313Y-68526821D01*
X89144883Y-68360000D01*
X89161313Y-68193179D01*
X89209977Y-68032756D01*
X89288995Y-67884922D01*
X89395341Y-67755341D01*
X89524922Y-67648995D01*
X89672756Y-67569977D01*
X89672759Y-67569976D01*
X89672761Y-67569975D01*
X89833175Y-67521314D01*
X89833176Y-67521314D01*
X89833179Y-67521313D01*
X89958196Y-67509000D01*
X90041804Y-67509000D01*
X90166821Y-67521313D01*
X90166821Y-67521313D01*
G37*
G36*
X90166821Y-64981313D02*
X90166824Y-64981314D01*
X90166825Y-64981314D01*
X90327239Y-65029975D01*
X90327241Y-65029976D01*
X90327244Y-65029977D01*
X90475078Y-65108995D01*
X90604659Y-65215341D01*
X90711005Y-65344922D01*
X90790023Y-65492756D01*
X90838687Y-65653179D01*
X90855117Y-65820000D01*
X90838687Y-65986821D01*
X90790023Y-66147244D01*
X90711005Y-66295078D01*
X90604659Y-66424659D01*
X90475078Y-66531005D01*
X90327244Y-66610023D01*
X90327241Y-66610024D01*
X90327239Y-66610025D01*
X90166825Y-66658686D01*
X90166824Y-66658686D01*
X90166821Y-66658687D01*
X90041804Y-66671000D01*
X89958196Y-66671000D01*
X89833179Y-66658687D01*
X89833176Y-66658686D01*
X89833175Y-66658686D01*
X89672761Y-66610025D01*
X89672759Y-66610024D01*
X89672756Y-66610023D01*
X89524922Y-66531005D01*
X89395341Y-66424659D01*
X89288995Y-66295078D01*
X89209977Y-66147244D01*
X89161313Y-65986821D01*
X89144883Y-65820000D01*
X89161313Y-65653179D01*
X89209977Y-65492756D01*
X89288995Y-65344922D01*
X89395341Y-65215341D01*
X89524922Y-65108995D01*
X89672756Y-65029977D01*
X89672759Y-65029976D01*
X89672761Y-65029975D01*
X89833175Y-64981314D01*
X89833176Y-64981314D01*
X89833179Y-64981313D01*
X89958196Y-64969000D01*
X90041804Y-64969000D01*
X90166821Y-64981313D01*
X90166821Y-64981313D01*
G37*
G36*
X97786821Y-64981313D02*
X97786824Y-64981314D01*
X97786825Y-64981314D01*
X97947239Y-65029975D01*
X97947241Y-65029976D01*
X97947244Y-65029977D01*
X98095078Y-65108995D01*
X98224659Y-65215341D01*
X98331005Y-65344922D01*
X98410023Y-65492756D01*
X98458687Y-65653179D01*
X98475117Y-65820000D01*
X98458687Y-65986821D01*
X98410023Y-66147244D01*
X98331005Y-66295078D01*
X98224659Y-66424659D01*
X98095078Y-66531005D01*
X97947244Y-66610023D01*
X97947241Y-66610024D01*
X97947239Y-66610025D01*
X97786825Y-66658686D01*
X97786824Y-66658686D01*
X97786821Y-66658687D01*
X97661804Y-66671000D01*
X97578196Y-66671000D01*
X97453179Y-66658687D01*
X97453176Y-66658686D01*
X97453175Y-66658686D01*
X97292761Y-66610025D01*
X97292759Y-66610024D01*
X97292756Y-66610023D01*
X97144922Y-66531005D01*
X97015341Y-66424659D01*
X96908995Y-66295078D01*
X96829977Y-66147244D01*
X96781313Y-65986821D01*
X96764883Y-65820000D01*
X96781313Y-65653179D01*
X96829977Y-65492756D01*
X96908995Y-65344922D01*
X97015341Y-65215341D01*
X97144922Y-65108995D01*
X97292756Y-65029977D01*
X97292759Y-65029976D01*
X97292761Y-65029975D01*
X97453175Y-64981314D01*
X97453176Y-64981314D01*
X97453179Y-64981313D01*
X97578196Y-64969000D01*
X97661804Y-64969000D01*
X97786821Y-64981313D01*
X97786821Y-64981313D01*
G37*
G36*
X85233643Y-63729781D02*
X85379415Y-63790162D01*
X85510611Y-63877824D01*
X85622176Y-63989389D01*
X85709838Y-64120585D01*
X85770219Y-64266357D01*
X85801000Y-64421107D01*
X85801000Y-64578893D01*
X85770219Y-64733643D01*
X85709838Y-64879415D01*
X85622176Y-65010611D01*
X85510611Y-65122176D01*
X85379415Y-65209838D01*
X85233643Y-65270219D01*
X85078893Y-65301000D01*
X84921107Y-65301000D01*
X84766357Y-65270219D01*
X84620585Y-65209838D01*
X84489389Y-65122176D01*
X84377824Y-65010611D01*
X84290162Y-64879415D01*
X84229781Y-64733643D01*
X84199000Y-64578893D01*
X84199000Y-64421107D01*
X84229781Y-64266357D01*
X84290162Y-64120585D01*
X84377824Y-63989389D01*
X84489389Y-63877824D01*
X84620585Y-63790162D01*
X84766357Y-63729781D01*
X84921107Y-63699000D01*
X85078893Y-63699000D01*
X85233643Y-63729781D01*
X85233643Y-63729781D01*
G37*
G36*
X100588677Y-63378465D02*
X100626364Y-63389898D01*
X100661103Y-63408466D01*
X100691548Y-63433452D01*
X100716534Y-63463897D01*
X100735102Y-63498636D01*
X100746535Y-63536323D01*
X100751000Y-63581661D01*
X100751000Y-64418339D01*
X100746535Y-64463677D01*
X100735102Y-64501364D01*
X100716534Y-64536103D01*
X100691548Y-64566548D01*
X100661103Y-64591534D01*
X100626364Y-64610102D01*
X100588677Y-64621535D01*
X100543339Y-64626000D01*
X99456661Y-64626000D01*
X99411323Y-64621535D01*
X99373636Y-64610102D01*
X99338897Y-64591534D01*
X99308452Y-64566548D01*
X99283466Y-64536103D01*
X99264898Y-64501364D01*
X99253465Y-64463677D01*
X99249000Y-64418339D01*
X99249000Y-63581661D01*
X99253465Y-63536323D01*
X99264898Y-63498636D01*
X99283466Y-63463897D01*
X99308452Y-63433452D01*
X99338897Y-63408466D01*
X99373636Y-63389898D01*
X99411323Y-63378465D01*
X99456661Y-63374000D01*
X100543339Y-63374000D01*
X100588677Y-63378465D01*
X100588677Y-63378465D01*
G37*
G36*
X97786821Y-62441313D02*
X97786824Y-62441314D01*
X97786825Y-62441314D01*
X97947239Y-62489975D01*
X97947241Y-62489976D01*
X97947244Y-62489977D01*
X98095078Y-62568995D01*
X98224659Y-62675341D01*
X98331005Y-62804922D01*
X98410023Y-62952756D01*
X98458687Y-63113179D01*
X98475117Y-63280000D01*
X98458687Y-63446821D01*
X98458686Y-63446824D01*
X98458686Y-63446825D01*
X98414322Y-63593075D01*
X98410023Y-63607244D01*
X98331005Y-63755078D01*
X98224659Y-63884659D01*
X98095078Y-63991005D01*
X97947244Y-64070023D01*
X97947241Y-64070024D01*
X97947239Y-64070025D01*
X97786825Y-64118686D01*
X97786824Y-64118686D01*
X97786821Y-64118687D01*
X97661804Y-64131000D01*
X97578196Y-64131000D01*
X97453179Y-64118687D01*
X97453176Y-64118686D01*
X97453175Y-64118686D01*
X97292761Y-64070025D01*
X97292759Y-64070024D01*
X97292756Y-64070023D01*
X97144922Y-63991005D01*
X97015341Y-63884659D01*
X96908995Y-63755078D01*
X96829977Y-63607244D01*
X96825679Y-63593075D01*
X96781314Y-63446825D01*
X96781314Y-63446824D01*
X96781313Y-63446821D01*
X96764883Y-63280000D01*
X96781313Y-63113179D01*
X96829977Y-62952756D01*
X96908995Y-62804922D01*
X97015341Y-62675341D01*
X97144922Y-62568995D01*
X97292756Y-62489977D01*
X97292759Y-62489976D01*
X97292761Y-62489975D01*
X97453175Y-62441314D01*
X97453176Y-62441314D01*
X97453179Y-62441313D01*
X97578196Y-62429000D01*
X97661804Y-62429000D01*
X97786821Y-62441313D01*
X97786821Y-62441313D01*
G37*
G36*
X90166821Y-62441313D02*
X90166824Y-62441314D01*
X90166825Y-62441314D01*
X90327239Y-62489975D01*
X90327241Y-62489976D01*
X90327244Y-62489977D01*
X90475078Y-62568995D01*
X90604659Y-62675341D01*
X90711005Y-62804922D01*
X90790023Y-62952756D01*
X90838687Y-63113179D01*
X90855117Y-63280000D01*
X90838687Y-63446821D01*
X90838686Y-63446824D01*
X90838686Y-63446825D01*
X90794322Y-63593075D01*
X90790023Y-63607244D01*
X90711005Y-63755078D01*
X90604659Y-63884659D01*
X90475078Y-63991005D01*
X90327244Y-64070023D01*
X90327241Y-64070024D01*
X90327239Y-64070025D01*
X90166825Y-64118686D01*
X90166824Y-64118686D01*
X90166821Y-64118687D01*
X90041804Y-64131000D01*
X89958196Y-64131000D01*
X89833179Y-64118687D01*
X89833176Y-64118686D01*
X89833175Y-64118686D01*
X89672761Y-64070025D01*
X89672759Y-64070024D01*
X89672756Y-64070023D01*
X89524922Y-63991005D01*
X89395341Y-63884659D01*
X89288995Y-63755078D01*
X89209977Y-63607244D01*
X89205679Y-63593075D01*
X89161314Y-63446825D01*
X89161314Y-63446824D01*
X89161313Y-63446821D01*
X89144883Y-63280000D01*
X89161313Y-63113179D01*
X89209977Y-62952756D01*
X89288995Y-62804922D01*
X89395341Y-62675341D01*
X89524922Y-62568995D01*
X89672756Y-62489977D01*
X89672759Y-62489976D01*
X89672761Y-62489975D01*
X89833175Y-62441314D01*
X89833176Y-62441314D01*
X89833179Y-62441313D01*
X89958196Y-62429000D01*
X90041804Y-62429000D01*
X90166821Y-62441313D01*
X90166821Y-62441313D01*
G37*
G36*
X48610442Y-62305518D02*
X48676627Y-62312037D01*
X48789853Y-62346384D01*
X48846467Y-62363557D01*
X48968900Y-62429000D01*
X49002991Y-62447222D01*
X49038729Y-62476552D01*
X49140186Y-62559814D01*
X49223448Y-62661271D01*
X49252778Y-62697009D01*
X49252779Y-62697011D01*
X49336443Y-62853533D01*
X49336443Y-62853534D01*
X49387963Y-63023373D01*
X49405359Y-63200000D01*
X49387963Y-63376627D01*
X49364578Y-63453718D01*
X49336443Y-63546467D01*
X49283148Y-63646173D01*
X49252778Y-63702991D01*
X49230792Y-63729781D01*
X49140186Y-63840186D01*
X49038729Y-63923448D01*
X49002991Y-63952778D01*
X49002989Y-63952779D01*
X48846467Y-64036443D01*
X48789853Y-64053616D01*
X48676627Y-64087963D01*
X48610443Y-64094481D01*
X48544260Y-64101000D01*
X48455740Y-64101000D01*
X48389557Y-64094481D01*
X48323373Y-64087963D01*
X48210147Y-64053616D01*
X48153533Y-64036443D01*
X47997011Y-63952779D01*
X47997009Y-63952778D01*
X47961271Y-63923448D01*
X47859814Y-63840186D01*
X47769208Y-63729781D01*
X47747222Y-63702991D01*
X47716852Y-63646173D01*
X47663557Y-63546467D01*
X47635422Y-63453718D01*
X47612037Y-63376627D01*
X47594641Y-63200000D01*
X47612037Y-63023373D01*
X47663557Y-62853534D01*
X47663557Y-62853533D01*
X47747221Y-62697011D01*
X47747222Y-62697009D01*
X47776552Y-62661271D01*
X47859814Y-62559814D01*
X47961271Y-62476552D01*
X47997009Y-62447222D01*
X48031100Y-62429000D01*
X48153533Y-62363557D01*
X48210147Y-62346384D01*
X48323373Y-62312037D01*
X48389558Y-62305518D01*
X48455740Y-62299000D01*
X48544260Y-62299000D01*
X48610442Y-62305518D01*
X48610442Y-62305518D01*
G37*
G36*
X100588677Y-61328465D02*
X100626364Y-61339898D01*
X100661103Y-61358466D01*
X100691548Y-61383452D01*
X100716534Y-61413897D01*
X100735102Y-61448636D01*
X100746535Y-61486323D01*
X100751000Y-61531661D01*
X100751000Y-62368339D01*
X100746535Y-62413677D01*
X100735102Y-62451364D01*
X100716534Y-62486103D01*
X100691548Y-62516548D01*
X100661103Y-62541534D01*
X100626364Y-62560102D01*
X100588677Y-62571535D01*
X100543339Y-62576000D01*
X99456661Y-62576000D01*
X99411323Y-62571535D01*
X99373636Y-62560102D01*
X99338897Y-62541534D01*
X99308452Y-62516548D01*
X99283466Y-62486103D01*
X99264898Y-62451364D01*
X99253465Y-62413677D01*
X99249000Y-62368339D01*
X99249000Y-61531661D01*
X99253465Y-61486323D01*
X99264898Y-61448636D01*
X99283466Y-61413897D01*
X99308452Y-61383452D01*
X99338897Y-61358466D01*
X99373636Y-61339898D01*
X99411323Y-61328465D01*
X99456661Y-61324000D01*
X100543339Y-61324000D01*
X100588677Y-61328465D01*
X100588677Y-61328465D01*
G37*
G36*
X90166821Y-59901313D02*
X90166824Y-59901314D01*
X90166825Y-59901314D01*
X90327239Y-59949975D01*
X90327241Y-59949976D01*
X90327244Y-59949977D01*
X90475078Y-60028995D01*
X90604659Y-60135341D01*
X90711005Y-60264922D01*
X90790023Y-60412756D01*
X90838687Y-60573179D01*
X90855117Y-60740000D01*
X90838687Y-60906821D01*
X90790023Y-61067244D01*
X90711005Y-61215078D01*
X90604659Y-61344659D01*
X90475078Y-61451005D01*
X90327244Y-61530023D01*
X90327241Y-61530024D01*
X90327239Y-61530025D01*
X90166825Y-61578686D01*
X90166824Y-61578686D01*
X90166821Y-61578687D01*
X90041804Y-61591000D01*
X89958196Y-61591000D01*
X89833179Y-61578687D01*
X89833176Y-61578686D01*
X89833175Y-61578686D01*
X89672761Y-61530025D01*
X89672759Y-61530024D01*
X89672756Y-61530023D01*
X89524922Y-61451005D01*
X89395341Y-61344659D01*
X89288995Y-61215078D01*
X89209977Y-61067244D01*
X89161313Y-60906821D01*
X89144883Y-60740000D01*
X89161313Y-60573179D01*
X89209977Y-60412756D01*
X89288995Y-60264922D01*
X89395341Y-60135341D01*
X89524922Y-60028995D01*
X89672756Y-59949977D01*
X89672759Y-59949976D01*
X89672761Y-59949975D01*
X89833175Y-59901314D01*
X89833176Y-59901314D01*
X89833179Y-59901313D01*
X89958196Y-59889000D01*
X90041804Y-59889000D01*
X90166821Y-59901313D01*
X90166821Y-59901313D01*
G37*
G36*
X97786821Y-59901313D02*
X97786824Y-59901314D01*
X97786825Y-59901314D01*
X97947239Y-59949975D01*
X97947241Y-59949976D01*
X97947244Y-59949977D01*
X98095078Y-60028995D01*
X98224659Y-60135341D01*
X98331005Y-60264922D01*
X98410023Y-60412756D01*
X98458687Y-60573179D01*
X98475117Y-60740000D01*
X98458687Y-60906821D01*
X98410023Y-61067244D01*
X98331005Y-61215078D01*
X98224659Y-61344659D01*
X98095078Y-61451005D01*
X97947244Y-61530023D01*
X97947241Y-61530024D01*
X97947239Y-61530025D01*
X97786825Y-61578686D01*
X97786824Y-61578686D01*
X97786821Y-61578687D01*
X97661804Y-61591000D01*
X97578196Y-61591000D01*
X97453179Y-61578687D01*
X97453176Y-61578686D01*
X97453175Y-61578686D01*
X97292761Y-61530025D01*
X97292759Y-61530024D01*
X97292756Y-61530023D01*
X97144922Y-61451005D01*
X97015341Y-61344659D01*
X96908995Y-61215078D01*
X96829977Y-61067244D01*
X96781313Y-60906821D01*
X96764883Y-60740000D01*
X96781313Y-60573179D01*
X96829977Y-60412756D01*
X96908995Y-60264922D01*
X97015341Y-60135341D01*
X97144922Y-60028995D01*
X97292756Y-59949977D01*
X97292759Y-59949976D01*
X97292761Y-59949975D01*
X97453175Y-59901314D01*
X97453176Y-59901314D01*
X97453179Y-59901313D01*
X97578196Y-59889000D01*
X97661804Y-59889000D01*
X97786821Y-59901313D01*
X97786821Y-59901313D01*
G37*
G36*
X48610443Y-59765519D02*
X48676627Y-59772037D01*
X48789853Y-59806384D01*
X48846467Y-59823557D01*
X48968900Y-59889000D01*
X49002991Y-59907222D01*
X49038729Y-59936552D01*
X49140186Y-60019814D01*
X49223448Y-60121271D01*
X49252778Y-60157009D01*
X49252779Y-60157011D01*
X49336443Y-60313533D01*
X49336443Y-60313534D01*
X49387963Y-60483373D01*
X49405359Y-60660000D01*
X49387963Y-60836627D01*
X49353616Y-60949853D01*
X49336443Y-61006467D01*
X49262348Y-61145087D01*
X49252778Y-61162991D01*
X49223448Y-61198729D01*
X49140186Y-61300186D01*
X49038729Y-61383448D01*
X49002991Y-61412778D01*
X48985087Y-61422348D01*
X48846467Y-61496443D01*
X48789853Y-61513616D01*
X48676627Y-61547963D01*
X48610442Y-61554482D01*
X48544260Y-61561000D01*
X48455740Y-61561000D01*
X48389558Y-61554482D01*
X48323373Y-61547963D01*
X48210147Y-61513616D01*
X48153533Y-61496443D01*
X48014913Y-61422348D01*
X47997009Y-61412778D01*
X47961271Y-61383448D01*
X47859814Y-61300186D01*
X47776552Y-61198729D01*
X47747222Y-61162991D01*
X47737652Y-61145087D01*
X47663557Y-61006467D01*
X47646384Y-60949853D01*
X47612037Y-60836627D01*
X47594641Y-60660000D01*
X47612037Y-60483373D01*
X47663557Y-60313534D01*
X47663557Y-60313533D01*
X47747221Y-60157011D01*
X47747222Y-60157009D01*
X47776552Y-60121271D01*
X47859814Y-60019814D01*
X47961271Y-59936552D01*
X47997009Y-59907222D01*
X48031100Y-59889000D01*
X48153533Y-59823557D01*
X48210147Y-59806384D01*
X48323373Y-59772037D01*
X48389557Y-59765519D01*
X48455740Y-59759000D01*
X48544260Y-59759000D01*
X48610443Y-59765519D01*
X48610443Y-59765519D01*
G37*
G36*
X90166821Y-57361313D02*
X90166824Y-57361314D01*
X90166825Y-57361314D01*
X90327239Y-57409975D01*
X90327241Y-57409976D01*
X90327244Y-57409977D01*
X90475078Y-57488995D01*
X90604659Y-57595341D01*
X90711005Y-57724922D01*
X90790023Y-57872756D01*
X90838687Y-58033179D01*
X90855117Y-58200000D01*
X90838687Y-58366821D01*
X90790023Y-58527244D01*
X90711005Y-58675078D01*
X90604659Y-58804659D01*
X90475078Y-58911005D01*
X90327244Y-58990023D01*
X90327241Y-58990024D01*
X90327239Y-58990025D01*
X90166825Y-59038686D01*
X90166824Y-59038686D01*
X90166821Y-59038687D01*
X90041804Y-59051000D01*
X89958196Y-59051000D01*
X89833179Y-59038687D01*
X89833176Y-59038686D01*
X89833175Y-59038686D01*
X89672761Y-58990025D01*
X89672759Y-58990024D01*
X89672756Y-58990023D01*
X89524922Y-58911005D01*
X89395341Y-58804659D01*
X89288995Y-58675078D01*
X89209977Y-58527244D01*
X89161313Y-58366821D01*
X89144883Y-58200000D01*
X89161313Y-58033179D01*
X89209977Y-57872756D01*
X89288995Y-57724922D01*
X89395341Y-57595341D01*
X89524922Y-57488995D01*
X89672756Y-57409977D01*
X89672759Y-57409976D01*
X89672761Y-57409975D01*
X89833175Y-57361314D01*
X89833176Y-57361314D01*
X89833179Y-57361313D01*
X89958196Y-57349000D01*
X90041804Y-57349000D01*
X90166821Y-57361313D01*
X90166821Y-57361313D01*
G37*
G36*
X97786821Y-57361313D02*
X97786824Y-57361314D01*
X97786825Y-57361314D01*
X97947239Y-57409975D01*
X97947241Y-57409976D01*
X97947244Y-57409977D01*
X98095078Y-57488995D01*
X98224659Y-57595341D01*
X98331005Y-57724922D01*
X98410023Y-57872756D01*
X98458687Y-58033179D01*
X98475117Y-58200000D01*
X98458687Y-58366821D01*
X98410023Y-58527244D01*
X98331005Y-58675078D01*
X98224659Y-58804659D01*
X98095078Y-58911005D01*
X97947244Y-58990023D01*
X97947241Y-58990024D01*
X97947239Y-58990025D01*
X97786825Y-59038686D01*
X97786824Y-59038686D01*
X97786821Y-59038687D01*
X97661804Y-59051000D01*
X97578196Y-59051000D01*
X97453179Y-59038687D01*
X97453176Y-59038686D01*
X97453175Y-59038686D01*
X97292761Y-58990025D01*
X97292759Y-58990024D01*
X97292756Y-58990023D01*
X97144922Y-58911005D01*
X97015341Y-58804659D01*
X96908995Y-58675078D01*
X96829977Y-58527244D01*
X96781313Y-58366821D01*
X96764883Y-58200000D01*
X96781313Y-58033179D01*
X96829977Y-57872756D01*
X96908995Y-57724922D01*
X97015341Y-57595341D01*
X97144922Y-57488995D01*
X97292756Y-57409977D01*
X97292759Y-57409976D01*
X97292761Y-57409975D01*
X97453175Y-57361314D01*
X97453176Y-57361314D01*
X97453179Y-57361313D01*
X97578196Y-57349000D01*
X97661804Y-57349000D01*
X97786821Y-57361313D01*
X97786821Y-57361313D01*
G37*
G36*
X48610442Y-57225518D02*
X48676627Y-57232037D01*
X48789853Y-57266384D01*
X48846467Y-57283557D01*
X48968900Y-57349000D01*
X49002991Y-57367222D01*
X49038729Y-57396552D01*
X49140186Y-57479814D01*
X49223448Y-57581271D01*
X49252778Y-57617009D01*
X49252779Y-57617011D01*
X49336443Y-57773533D01*
X49336443Y-57773534D01*
X49387963Y-57943373D01*
X49405359Y-58120000D01*
X49387963Y-58296627D01*
X49353616Y-58409853D01*
X49336443Y-58466467D01*
X49262348Y-58605087D01*
X49252778Y-58622991D01*
X49223448Y-58658729D01*
X49140186Y-58760186D01*
X49038729Y-58843448D01*
X49002991Y-58872778D01*
X49002989Y-58872779D01*
X48846467Y-58956443D01*
X48789853Y-58973616D01*
X48676627Y-59007963D01*
X48610442Y-59014482D01*
X48544260Y-59021000D01*
X48455740Y-59021000D01*
X48389558Y-59014482D01*
X48323373Y-59007963D01*
X48210147Y-58973616D01*
X48153533Y-58956443D01*
X47997011Y-58872779D01*
X47997009Y-58872778D01*
X47961271Y-58843448D01*
X47859814Y-58760186D01*
X47776552Y-58658729D01*
X47747222Y-58622991D01*
X47737652Y-58605087D01*
X47663557Y-58466467D01*
X47646384Y-58409853D01*
X47612037Y-58296627D01*
X47594641Y-58120000D01*
X47612037Y-57943373D01*
X47663557Y-57773534D01*
X47663557Y-57773533D01*
X47747221Y-57617011D01*
X47747222Y-57617009D01*
X47776552Y-57581271D01*
X47859814Y-57479814D01*
X47961271Y-57396552D01*
X47997009Y-57367222D01*
X48031100Y-57349000D01*
X48153533Y-57283557D01*
X48210147Y-57266384D01*
X48323373Y-57232037D01*
X48389558Y-57225518D01*
X48455740Y-57219000D01*
X48544260Y-57219000D01*
X48610442Y-57225518D01*
X48610442Y-57225518D01*
G37*
G36*
X97786821Y-54821313D02*
X97786824Y-54821314D01*
X97786825Y-54821314D01*
X97947239Y-54869975D01*
X97947241Y-54869976D01*
X97947244Y-54869977D01*
X98095078Y-54948995D01*
X98224659Y-55055341D01*
X98331005Y-55184922D01*
X98410023Y-55332756D01*
X98458687Y-55493179D01*
X98475117Y-55660000D01*
X98458687Y-55826821D01*
X98410023Y-55987244D01*
X98331005Y-56135078D01*
X98224659Y-56264659D01*
X98095078Y-56371005D01*
X97947244Y-56450023D01*
X97947241Y-56450024D01*
X97947239Y-56450025D01*
X97786825Y-56498686D01*
X97786824Y-56498686D01*
X97786821Y-56498687D01*
X97661804Y-56511000D01*
X97578196Y-56511000D01*
X97453179Y-56498687D01*
X97453176Y-56498686D01*
X97453175Y-56498686D01*
X97292761Y-56450025D01*
X97292759Y-56450024D01*
X97292756Y-56450023D01*
X97144922Y-56371005D01*
X97015341Y-56264659D01*
X96908995Y-56135078D01*
X96829977Y-55987244D01*
X96781313Y-55826821D01*
X96764883Y-55660000D01*
X96781313Y-55493179D01*
X96829977Y-55332756D01*
X96908995Y-55184922D01*
X97015341Y-55055341D01*
X97144922Y-54948995D01*
X97292756Y-54869977D01*
X97292759Y-54869976D01*
X97292761Y-54869975D01*
X97453175Y-54821314D01*
X97453176Y-54821314D01*
X97453179Y-54821313D01*
X97578196Y-54809000D01*
X97661804Y-54809000D01*
X97786821Y-54821313D01*
X97786821Y-54821313D01*
G37*
G36*
X90166821Y-54821313D02*
X90166824Y-54821314D01*
X90166825Y-54821314D01*
X90327239Y-54869975D01*
X90327241Y-54869976D01*
X90327244Y-54869977D01*
X90475078Y-54948995D01*
X90604659Y-55055341D01*
X90711005Y-55184922D01*
X90790023Y-55332756D01*
X90838687Y-55493179D01*
X90855117Y-55660000D01*
X90838687Y-55826821D01*
X90790023Y-55987244D01*
X90711005Y-56135078D01*
X90604659Y-56264659D01*
X90475078Y-56371005D01*
X90327244Y-56450023D01*
X90327241Y-56450024D01*
X90327239Y-56450025D01*
X90166825Y-56498686D01*
X90166824Y-56498686D01*
X90166821Y-56498687D01*
X90041804Y-56511000D01*
X89958196Y-56511000D01*
X89833179Y-56498687D01*
X89833176Y-56498686D01*
X89833175Y-56498686D01*
X89672761Y-56450025D01*
X89672759Y-56450024D01*
X89672756Y-56450023D01*
X89524922Y-56371005D01*
X89395341Y-56264659D01*
X89288995Y-56135078D01*
X89209977Y-55987244D01*
X89161313Y-55826821D01*
X89144883Y-55660000D01*
X89161313Y-55493179D01*
X89209977Y-55332756D01*
X89288995Y-55184922D01*
X89395341Y-55055341D01*
X89524922Y-54948995D01*
X89672756Y-54869977D01*
X89672759Y-54869976D01*
X89672761Y-54869975D01*
X89833175Y-54821314D01*
X89833176Y-54821314D01*
X89833179Y-54821313D01*
X89958196Y-54809000D01*
X90041804Y-54809000D01*
X90166821Y-54821313D01*
X90166821Y-54821313D01*
G37*
G36*
X48610442Y-54685518D02*
X48676627Y-54692037D01*
X48789853Y-54726384D01*
X48846467Y-54743557D01*
X48968900Y-54809000D01*
X49002991Y-54827222D01*
X49038729Y-54856552D01*
X49140186Y-54939814D01*
X49223448Y-55041271D01*
X49252778Y-55077009D01*
X49252779Y-55077011D01*
X49336443Y-55233533D01*
X49336443Y-55233534D01*
X49387963Y-55403373D01*
X49405359Y-55580000D01*
X49387963Y-55756627D01*
X49353616Y-55869853D01*
X49336443Y-55926467D01*
X49262348Y-56065087D01*
X49252778Y-56082991D01*
X49223448Y-56118729D01*
X49140186Y-56220186D01*
X49038729Y-56303448D01*
X49002991Y-56332778D01*
X49002989Y-56332779D01*
X48846467Y-56416443D01*
X48789853Y-56433616D01*
X48676627Y-56467963D01*
X48610442Y-56474482D01*
X48544260Y-56481000D01*
X48455740Y-56481000D01*
X48389558Y-56474482D01*
X48323373Y-56467963D01*
X48210147Y-56433616D01*
X48153533Y-56416443D01*
X47997011Y-56332779D01*
X47997009Y-56332778D01*
X47961271Y-56303448D01*
X47859814Y-56220186D01*
X47776552Y-56118729D01*
X47747222Y-56082991D01*
X47737652Y-56065087D01*
X47663557Y-55926467D01*
X47646384Y-55869853D01*
X47612037Y-55756627D01*
X47594641Y-55580000D01*
X47612037Y-55403373D01*
X47663557Y-55233534D01*
X47663557Y-55233533D01*
X47747221Y-55077011D01*
X47747222Y-55077009D01*
X47776552Y-55041271D01*
X47859814Y-54939814D01*
X47961271Y-54856552D01*
X47997009Y-54827222D01*
X48031100Y-54809000D01*
X48153533Y-54743557D01*
X48210147Y-54726384D01*
X48323373Y-54692037D01*
X48389558Y-54685518D01*
X48455740Y-54679000D01*
X48544260Y-54679000D01*
X48610442Y-54685518D01*
X48610442Y-54685518D01*
G37*
G36*
X54963677Y-52753465D02*
X55001364Y-52764898D01*
X55036103Y-52783466D01*
X55066548Y-52808452D01*
X55091534Y-52838897D01*
X55110102Y-52873636D01*
X55121535Y-52911323D01*
X55126000Y-52956661D01*
X55126000Y-54043339D01*
X55121535Y-54088677D01*
X55110102Y-54126364D01*
X55091534Y-54161103D01*
X55066548Y-54191548D01*
X55036103Y-54216534D01*
X55001364Y-54235102D01*
X54963677Y-54246535D01*
X54918339Y-54251000D01*
X54081661Y-54251000D01*
X54036323Y-54246535D01*
X53998636Y-54235102D01*
X53963897Y-54216534D01*
X53933452Y-54191548D01*
X53908466Y-54161103D01*
X53889898Y-54126364D01*
X53878465Y-54088677D01*
X53874000Y-54043339D01*
X53874000Y-52956661D01*
X53878465Y-52911323D01*
X53889898Y-52873636D01*
X53908466Y-52838897D01*
X53933452Y-52808452D01*
X53963897Y-52783466D01*
X53998636Y-52764898D01*
X54036323Y-52753465D01*
X54081661Y-52749000D01*
X54918339Y-52749000D01*
X54963677Y-52753465D01*
X54963677Y-52753465D01*
G37*
G36*
X52913677Y-52753465D02*
X52951364Y-52764898D01*
X52986103Y-52783466D01*
X53016548Y-52808452D01*
X53041534Y-52838897D01*
X53060102Y-52873636D01*
X53071535Y-52911323D01*
X53076000Y-52956661D01*
X53076000Y-54043339D01*
X53071535Y-54088677D01*
X53060102Y-54126364D01*
X53041534Y-54161103D01*
X53016548Y-54191548D01*
X52986103Y-54216534D01*
X52951364Y-54235102D01*
X52913677Y-54246535D01*
X52868339Y-54251000D01*
X52031661Y-54251000D01*
X51986323Y-54246535D01*
X51948636Y-54235102D01*
X51913897Y-54216534D01*
X51883452Y-54191548D01*
X51858466Y-54161103D01*
X51839898Y-54126364D01*
X51828465Y-54088677D01*
X51824000Y-54043339D01*
X51824000Y-52956661D01*
X51828465Y-52911323D01*
X51839898Y-52873636D01*
X51858466Y-52838897D01*
X51883452Y-52808452D01*
X51913897Y-52783466D01*
X51948636Y-52764898D01*
X51986323Y-52753465D01*
X52031661Y-52749000D01*
X52868339Y-52749000D01*
X52913677Y-52753465D01*
X52913677Y-52753465D01*
G37*
G36*
X90166821Y-52281313D02*
X90166824Y-52281314D01*
X90166825Y-52281314D01*
X90327239Y-52329975D01*
X90327241Y-52329976D01*
X90327244Y-52329977D01*
X90475078Y-52408995D01*
X90604659Y-52515341D01*
X90711005Y-52644922D01*
X90790023Y-52792756D01*
X90790024Y-52792759D01*
X90790025Y-52792761D01*
X90838686Y-52953175D01*
X90838687Y-52953179D01*
X90855117Y-53120000D01*
X90838687Y-53286821D01*
X90790023Y-53447244D01*
X90711005Y-53595078D01*
X90604659Y-53724659D01*
X90475078Y-53831005D01*
X90327244Y-53910023D01*
X90327241Y-53910024D01*
X90327239Y-53910025D01*
X90166825Y-53958686D01*
X90166824Y-53958686D01*
X90166821Y-53958687D01*
X90041804Y-53971000D01*
X89958196Y-53971000D01*
X89833179Y-53958687D01*
X89833176Y-53958686D01*
X89833175Y-53958686D01*
X89672761Y-53910025D01*
X89672759Y-53910024D01*
X89672756Y-53910023D01*
X89524922Y-53831005D01*
X89395341Y-53724659D01*
X89288995Y-53595078D01*
X89209977Y-53447244D01*
X89161313Y-53286821D01*
X89144883Y-53120000D01*
X89161313Y-52953179D01*
X89161314Y-52953175D01*
X89209975Y-52792761D01*
X89209976Y-52792759D01*
X89209977Y-52792756D01*
X89288995Y-52644922D01*
X89395341Y-52515341D01*
X89524922Y-52408995D01*
X89672756Y-52329977D01*
X89672759Y-52329976D01*
X89672761Y-52329975D01*
X89833175Y-52281314D01*
X89833176Y-52281314D01*
X89833179Y-52281313D01*
X89958196Y-52269000D01*
X90041804Y-52269000D01*
X90166821Y-52281313D01*
X90166821Y-52281313D01*
G37*
G36*
X97786821Y-52281313D02*
X97786824Y-52281314D01*
X97786825Y-52281314D01*
X97947239Y-52329975D01*
X97947241Y-52329976D01*
X97947244Y-52329977D01*
X98095078Y-52408995D01*
X98224659Y-52515341D01*
X98331005Y-52644922D01*
X98410023Y-52792756D01*
X98410024Y-52792759D01*
X98410025Y-52792761D01*
X98458686Y-52953175D01*
X98458687Y-52953179D01*
X98475117Y-53120000D01*
X98458687Y-53286821D01*
X98410023Y-53447244D01*
X98331005Y-53595078D01*
X98224659Y-53724659D01*
X98095078Y-53831005D01*
X97947244Y-53910023D01*
X97947241Y-53910024D01*
X97947239Y-53910025D01*
X97786825Y-53958686D01*
X97786824Y-53958686D01*
X97786821Y-53958687D01*
X97661804Y-53971000D01*
X97578196Y-53971000D01*
X97453179Y-53958687D01*
X97453176Y-53958686D01*
X97453175Y-53958686D01*
X97292761Y-53910025D01*
X97292759Y-53910024D01*
X97292756Y-53910023D01*
X97144922Y-53831005D01*
X97015341Y-53724659D01*
X96908995Y-53595078D01*
X96829977Y-53447244D01*
X96781313Y-53286821D01*
X96764883Y-53120000D01*
X96781313Y-52953179D01*
X96781314Y-52953175D01*
X96829975Y-52792761D01*
X96829976Y-52792759D01*
X96829977Y-52792756D01*
X96908995Y-52644922D01*
X97015341Y-52515341D01*
X97144922Y-52408995D01*
X97292756Y-52329977D01*
X97292759Y-52329976D01*
X97292761Y-52329975D01*
X97453175Y-52281314D01*
X97453176Y-52281314D01*
X97453179Y-52281313D01*
X97578196Y-52269000D01*
X97661804Y-52269000D01*
X97786821Y-52281313D01*
X97786821Y-52281313D01*
G37*
G36*
X48610443Y-52145519D02*
X48676627Y-52152037D01*
X48789853Y-52186384D01*
X48846467Y-52203557D01*
X48968900Y-52269000D01*
X49002991Y-52287222D01*
X49038729Y-52316552D01*
X49140186Y-52399814D01*
X49223448Y-52501271D01*
X49252778Y-52537009D01*
X49252779Y-52537011D01*
X49336443Y-52693533D01*
X49336443Y-52693534D01*
X49387963Y-52863373D01*
X49405359Y-53040000D01*
X49387963Y-53216627D01*
X49353616Y-53329853D01*
X49336443Y-53386467D01*
X49262348Y-53525087D01*
X49252778Y-53542991D01*
X49223448Y-53578729D01*
X49140186Y-53680186D01*
X49038729Y-53763448D01*
X49002991Y-53792778D01*
X49002989Y-53792779D01*
X48846467Y-53876443D01*
X48789853Y-53893616D01*
X48676627Y-53927963D01*
X48610443Y-53934481D01*
X48544260Y-53941000D01*
X48455740Y-53941000D01*
X48389557Y-53934481D01*
X48323373Y-53927963D01*
X48210147Y-53893616D01*
X48153533Y-53876443D01*
X47997011Y-53792779D01*
X47997009Y-53792778D01*
X47961271Y-53763448D01*
X47859814Y-53680186D01*
X47776552Y-53578729D01*
X47747222Y-53542991D01*
X47737652Y-53525087D01*
X47663557Y-53386467D01*
X47646384Y-53329853D01*
X47612037Y-53216627D01*
X47594641Y-53040000D01*
X47612037Y-52863373D01*
X47663557Y-52693534D01*
X47663557Y-52693533D01*
X47747221Y-52537011D01*
X47747222Y-52537009D01*
X47776552Y-52501271D01*
X47859814Y-52399814D01*
X47961271Y-52316552D01*
X47997009Y-52287222D01*
X48031100Y-52269000D01*
X48153533Y-52203557D01*
X48210147Y-52186384D01*
X48323373Y-52152037D01*
X48389558Y-52145518D01*
X48455740Y-52139000D01*
X48544260Y-52139000D01*
X48610443Y-52145519D01*
X48610443Y-52145519D01*
G37*
G36*
X52913677Y-50253465D02*
X52951364Y-50264898D01*
X52986103Y-50283466D01*
X53016548Y-50308452D01*
X53041534Y-50338897D01*
X53060102Y-50373636D01*
X53071535Y-50411323D01*
X53076000Y-50456661D01*
X53076000Y-51543339D01*
X53071535Y-51588677D01*
X53060102Y-51626364D01*
X53041534Y-51661103D01*
X53016548Y-51691548D01*
X52986103Y-51716534D01*
X52951364Y-51735102D01*
X52913677Y-51746535D01*
X52868339Y-51751000D01*
X52031661Y-51751000D01*
X51986323Y-51746535D01*
X51948636Y-51735102D01*
X51913897Y-51716534D01*
X51883452Y-51691548D01*
X51858466Y-51661103D01*
X51839898Y-51626364D01*
X51828465Y-51588677D01*
X51824000Y-51543339D01*
X51824000Y-50456661D01*
X51828465Y-50411323D01*
X51839898Y-50373636D01*
X51858466Y-50338897D01*
X51883452Y-50308452D01*
X51913897Y-50283466D01*
X51948636Y-50264898D01*
X51986323Y-50253465D01*
X52031661Y-50249000D01*
X52868339Y-50249000D01*
X52913677Y-50253465D01*
X52913677Y-50253465D01*
G37*
G36*
X54963677Y-50253465D02*
X55001364Y-50264898D01*
X55036103Y-50283466D01*
X55066548Y-50308452D01*
X55091534Y-50338897D01*
X55110102Y-50373636D01*
X55121535Y-50411323D01*
X55126000Y-50456661D01*
X55126000Y-51543339D01*
X55121535Y-51588677D01*
X55110102Y-51626364D01*
X55091534Y-51661103D01*
X55066548Y-51691548D01*
X55036103Y-51716534D01*
X55001364Y-51735102D01*
X54963677Y-51746535D01*
X54918339Y-51751000D01*
X54081661Y-51751000D01*
X54036323Y-51746535D01*
X53998636Y-51735102D01*
X53963897Y-51716534D01*
X53933452Y-51691548D01*
X53908466Y-51661103D01*
X53889898Y-51626364D01*
X53878465Y-51588677D01*
X53874000Y-51543339D01*
X53874000Y-50456661D01*
X53878465Y-50411323D01*
X53889898Y-50373636D01*
X53908466Y-50338897D01*
X53933452Y-50308452D01*
X53963897Y-50283466D01*
X53998636Y-50264898D01*
X54036323Y-50253465D01*
X54081661Y-50249000D01*
X54918339Y-50249000D01*
X54963677Y-50253465D01*
X54963677Y-50253465D01*
G37*
G36*
X97786821Y-49741313D02*
X97786824Y-49741314D01*
X97786825Y-49741314D01*
X97947239Y-49789975D01*
X97947241Y-49789976D01*
X97947244Y-49789977D01*
X98095078Y-49868995D01*
X98224659Y-49975341D01*
X98331005Y-50104922D01*
X98410023Y-50252756D01*
X98410024Y-50252759D01*
X98410025Y-50252761D01*
X98433066Y-50328718D01*
X98458687Y-50413179D01*
X98475117Y-50580000D01*
X98458687Y-50746821D01*
X98410023Y-50907244D01*
X98331005Y-51055078D01*
X98224659Y-51184659D01*
X98095078Y-51291005D01*
X97947244Y-51370023D01*
X97947241Y-51370024D01*
X97947239Y-51370025D01*
X97786825Y-51418686D01*
X97786824Y-51418686D01*
X97786821Y-51418687D01*
X97661804Y-51431000D01*
X97578196Y-51431000D01*
X97453179Y-51418687D01*
X97453176Y-51418686D01*
X97453175Y-51418686D01*
X97292761Y-51370025D01*
X97292759Y-51370024D01*
X97292756Y-51370023D01*
X97144922Y-51291005D01*
X97015341Y-51184659D01*
X96908995Y-51055078D01*
X96829977Y-50907244D01*
X96781313Y-50746821D01*
X96764883Y-50580000D01*
X96781313Y-50413179D01*
X96806934Y-50328718D01*
X96829975Y-50252761D01*
X96829976Y-50252759D01*
X96829977Y-50252756D01*
X96908995Y-50104922D01*
X97015341Y-49975341D01*
X97144922Y-49868995D01*
X97292756Y-49789977D01*
X97292759Y-49789976D01*
X97292761Y-49789975D01*
X97453175Y-49741314D01*
X97453176Y-49741314D01*
X97453179Y-49741313D01*
X97578196Y-49729000D01*
X97661804Y-49729000D01*
X97786821Y-49741313D01*
X97786821Y-49741313D01*
G37*
G36*
X90166821Y-49741313D02*
X90166824Y-49741314D01*
X90166825Y-49741314D01*
X90327239Y-49789975D01*
X90327241Y-49789976D01*
X90327244Y-49789977D01*
X90475078Y-49868995D01*
X90604659Y-49975341D01*
X90711005Y-50104922D01*
X90790023Y-50252756D01*
X90790024Y-50252759D01*
X90790025Y-50252761D01*
X90813066Y-50328718D01*
X90838687Y-50413179D01*
X90855117Y-50580000D01*
X90838687Y-50746821D01*
X90790023Y-50907244D01*
X90711005Y-51055078D01*
X90604659Y-51184659D01*
X90475078Y-51291005D01*
X90327244Y-51370023D01*
X90327241Y-51370024D01*
X90327239Y-51370025D01*
X90166825Y-51418686D01*
X90166824Y-51418686D01*
X90166821Y-51418687D01*
X90041804Y-51431000D01*
X89958196Y-51431000D01*
X89833179Y-51418687D01*
X89833176Y-51418686D01*
X89833175Y-51418686D01*
X89672761Y-51370025D01*
X89672759Y-51370024D01*
X89672756Y-51370023D01*
X89524922Y-51291005D01*
X89395341Y-51184659D01*
X89288995Y-51055078D01*
X89209977Y-50907244D01*
X89161313Y-50746821D01*
X89144883Y-50580000D01*
X89161313Y-50413179D01*
X89186934Y-50328718D01*
X89209975Y-50252761D01*
X89209976Y-50252759D01*
X89209977Y-50252756D01*
X89288995Y-50104922D01*
X89395341Y-49975341D01*
X89524922Y-49868995D01*
X89672756Y-49789977D01*
X89672759Y-49789976D01*
X89672761Y-49789975D01*
X89833175Y-49741314D01*
X89833176Y-49741314D01*
X89833179Y-49741313D01*
X89958196Y-49729000D01*
X90041804Y-49729000D01*
X90166821Y-49741313D01*
X90166821Y-49741313D01*
G37*
G36*
X49401000Y-51401000D02*
X47599000Y-51401000D01*
X47599000Y-49599000D01*
X49401000Y-49599000D01*
X49401000Y-51401000D01*
X49401000Y-51401000D01*
G37*
G36*
X90166821Y-47201313D02*
X90166824Y-47201314D01*
X90166825Y-47201314D01*
X90327239Y-47249975D01*
X90327241Y-47249976D01*
X90327244Y-47249977D01*
X90475078Y-47328995D01*
X90604659Y-47435341D01*
X90711005Y-47564922D01*
X90790023Y-47712756D01*
X90838687Y-47873179D01*
X90855117Y-48040000D01*
X90838687Y-48206821D01*
X90790023Y-48367244D01*
X90711005Y-48515078D01*
X90604659Y-48644659D01*
X90475078Y-48751005D01*
X90327244Y-48830023D01*
X90327241Y-48830024D01*
X90327239Y-48830025D01*
X90166825Y-48878686D01*
X90166824Y-48878686D01*
X90166821Y-48878687D01*
X90041804Y-48891000D01*
X89958196Y-48891000D01*
X89833179Y-48878687D01*
X89833176Y-48878686D01*
X89833175Y-48878686D01*
X89672761Y-48830025D01*
X89672759Y-48830024D01*
X89672756Y-48830023D01*
X89524922Y-48751005D01*
X89395341Y-48644659D01*
X89288995Y-48515078D01*
X89209977Y-48367244D01*
X89161313Y-48206821D01*
X89144883Y-48040000D01*
X89161313Y-47873179D01*
X89209977Y-47712756D01*
X89288995Y-47564922D01*
X89395341Y-47435341D01*
X89524922Y-47328995D01*
X89672756Y-47249977D01*
X89672759Y-47249976D01*
X89672761Y-47249975D01*
X89833175Y-47201314D01*
X89833176Y-47201314D01*
X89833179Y-47201313D01*
X89958196Y-47189000D01*
X90041804Y-47189000D01*
X90166821Y-47201313D01*
X90166821Y-47201313D01*
G37*
G36*
X97786821Y-47201313D02*
X97786824Y-47201314D01*
X97786825Y-47201314D01*
X97947239Y-47249975D01*
X97947241Y-47249976D01*
X97947244Y-47249977D01*
X98095078Y-47328995D01*
X98224659Y-47435341D01*
X98331005Y-47564922D01*
X98410023Y-47712756D01*
X98458687Y-47873179D01*
X98475117Y-48040000D01*
X98458687Y-48206821D01*
X98410023Y-48367244D01*
X98331005Y-48515078D01*
X98224659Y-48644659D01*
X98095078Y-48751005D01*
X97947244Y-48830023D01*
X97947241Y-48830024D01*
X97947239Y-48830025D01*
X97786825Y-48878686D01*
X97786824Y-48878686D01*
X97786821Y-48878687D01*
X97661804Y-48891000D01*
X97578196Y-48891000D01*
X97453179Y-48878687D01*
X97453176Y-48878686D01*
X97453175Y-48878686D01*
X97292761Y-48830025D01*
X97292759Y-48830024D01*
X97292756Y-48830023D01*
X97144922Y-48751005D01*
X97015341Y-48644659D01*
X96908995Y-48515078D01*
X96829977Y-48367244D01*
X96781313Y-48206821D01*
X96764883Y-48040000D01*
X96781313Y-47873179D01*
X96829977Y-47712756D01*
X96908995Y-47564922D01*
X97015341Y-47435341D01*
X97144922Y-47328995D01*
X97292756Y-47249977D01*
X97292759Y-47249976D01*
X97292761Y-47249975D01*
X97453175Y-47201314D01*
X97453176Y-47201314D01*
X97453179Y-47201313D01*
X97578196Y-47189000D01*
X97661804Y-47189000D01*
X97786821Y-47201313D01*
X97786821Y-47201313D01*
G37*
G36*
X54963677Y-47253465D02*
X55001364Y-47264898D01*
X55036103Y-47283466D01*
X55066548Y-47308452D01*
X55091534Y-47338897D01*
X55110102Y-47373636D01*
X55121535Y-47411323D01*
X55126000Y-47456661D01*
X55126000Y-48543339D01*
X55121535Y-48588677D01*
X55110102Y-48626364D01*
X55091534Y-48661103D01*
X55066548Y-48691548D01*
X55036103Y-48716534D01*
X55001364Y-48735102D01*
X54963677Y-48746535D01*
X54918339Y-48751000D01*
X54081661Y-48751000D01*
X54036323Y-48746535D01*
X53998636Y-48735102D01*
X53963897Y-48716534D01*
X53933452Y-48691548D01*
X53908466Y-48661103D01*
X53889898Y-48626364D01*
X53878465Y-48588677D01*
X53874000Y-48543339D01*
X53874000Y-47456661D01*
X53878465Y-47411323D01*
X53889898Y-47373636D01*
X53908466Y-47338897D01*
X53933452Y-47308452D01*
X53963897Y-47283466D01*
X53998636Y-47264898D01*
X54036323Y-47253465D01*
X54081661Y-47249000D01*
X54918339Y-47249000D01*
X54963677Y-47253465D01*
X54963677Y-47253465D01*
G37*
G36*
X52913677Y-47253465D02*
X52951364Y-47264898D01*
X52986103Y-47283466D01*
X53016548Y-47308452D01*
X53041534Y-47338897D01*
X53060102Y-47373636D01*
X53071535Y-47411323D01*
X53076000Y-47456661D01*
X53076000Y-48543339D01*
X53071535Y-48588677D01*
X53060102Y-48626364D01*
X53041534Y-48661103D01*
X53016548Y-48691548D01*
X52986103Y-48716534D01*
X52951364Y-48735102D01*
X52913677Y-48746535D01*
X52868339Y-48751000D01*
X52031661Y-48751000D01*
X51986323Y-48746535D01*
X51948636Y-48735102D01*
X51913897Y-48716534D01*
X51883452Y-48691548D01*
X51858466Y-48661103D01*
X51839898Y-48626364D01*
X51828465Y-48588677D01*
X51824000Y-48543339D01*
X51824000Y-47456661D01*
X51828465Y-47411323D01*
X51839898Y-47373636D01*
X51858466Y-47338897D01*
X51883452Y-47308452D01*
X51913897Y-47283466D01*
X51948636Y-47264898D01*
X51986323Y-47253465D01*
X52031661Y-47249000D01*
X52868339Y-47249000D01*
X52913677Y-47253465D01*
X52913677Y-47253465D01*
G37*
G36*
X46613062Y-45078181D02*
X46647977Y-45088773D01*
X46680165Y-45105978D01*
X46708373Y-45129127D01*
X46731522Y-45157335D01*
X46748727Y-45189523D01*
X46759319Y-45224438D01*
X46763500Y-45266895D01*
X46763500Y-46733105D01*
X46759319Y-46775562D01*
X46748727Y-46810477D01*
X46731522Y-46842665D01*
X46708373Y-46870873D01*
X46680165Y-46894022D01*
X46647977Y-46911227D01*
X46613062Y-46921819D01*
X46570605Y-46926000D01*
X45429395Y-46926000D01*
X45386938Y-46921819D01*
X45352023Y-46911227D01*
X45319835Y-46894022D01*
X45291627Y-46870873D01*
X45268478Y-46842665D01*
X45251273Y-46810477D01*
X45240681Y-46775562D01*
X45236500Y-46733105D01*
X45236500Y-45266895D01*
X45240681Y-45224438D01*
X45251273Y-45189523D01*
X45268478Y-45157335D01*
X45291627Y-45129127D01*
X45319835Y-45105978D01*
X45352023Y-45088773D01*
X45386938Y-45078181D01*
X45429395Y-45074000D01*
X46570605Y-45074000D01*
X46613062Y-45078181D01*
X46613062Y-45078181D01*
G37*
G36*
X49588062Y-45078181D02*
X49622977Y-45088773D01*
X49655165Y-45105978D01*
X49683373Y-45129127D01*
X49706522Y-45157335D01*
X49723727Y-45189523D01*
X49734319Y-45224438D01*
X49738500Y-45266895D01*
X49738500Y-46733105D01*
X49734319Y-46775562D01*
X49723727Y-46810477D01*
X49706522Y-46842665D01*
X49683373Y-46870873D01*
X49655165Y-46894022D01*
X49622977Y-46911227D01*
X49588062Y-46921819D01*
X49545605Y-46926000D01*
X48404395Y-46926000D01*
X48361938Y-46921819D01*
X48327023Y-46911227D01*
X48294835Y-46894022D01*
X48266627Y-46870873D01*
X48243478Y-46842665D01*
X48226273Y-46810477D01*
X48215681Y-46775562D01*
X48211500Y-46733105D01*
X48211500Y-45266895D01*
X48215681Y-45224438D01*
X48226273Y-45189523D01*
X48243478Y-45157335D01*
X48266627Y-45129127D01*
X48294835Y-45105978D01*
X48327023Y-45088773D01*
X48361938Y-45078181D01*
X48404395Y-45074000D01*
X49545605Y-45074000D01*
X49588062Y-45078181D01*
X49588062Y-45078181D01*
G37*
G36*
X97786821Y-44661313D02*
X97786824Y-44661314D01*
X97786825Y-44661314D01*
X97947239Y-44709975D01*
X97947241Y-44709976D01*
X97947244Y-44709977D01*
X98095078Y-44788995D01*
X98224659Y-44895341D01*
X98331005Y-45024922D01*
X98410023Y-45172756D01*
X98410024Y-45172759D01*
X98410025Y-45172761D01*
X98425701Y-45224438D01*
X98458687Y-45333179D01*
X98475117Y-45500000D01*
X98458687Y-45666821D01*
X98410023Y-45827244D01*
X98331005Y-45975078D01*
X98224659Y-46104659D01*
X98095078Y-46211005D01*
X97947244Y-46290023D01*
X97947241Y-46290024D01*
X97947239Y-46290025D01*
X97786825Y-46338686D01*
X97786824Y-46338686D01*
X97786821Y-46338687D01*
X97661804Y-46351000D01*
X97578196Y-46351000D01*
X97453179Y-46338687D01*
X97453176Y-46338686D01*
X97453175Y-46338686D01*
X97292761Y-46290025D01*
X97292759Y-46290024D01*
X97292756Y-46290023D01*
X97144922Y-46211005D01*
X97015341Y-46104659D01*
X96908995Y-45975078D01*
X96829977Y-45827244D01*
X96781313Y-45666821D01*
X96764883Y-45500000D01*
X96781313Y-45333179D01*
X96814299Y-45224438D01*
X96829975Y-45172761D01*
X96829976Y-45172759D01*
X96829977Y-45172756D01*
X96908995Y-45024922D01*
X97015341Y-44895341D01*
X97144922Y-44788995D01*
X97292756Y-44709977D01*
X97292759Y-44709976D01*
X97292761Y-44709975D01*
X97453175Y-44661314D01*
X97453176Y-44661314D01*
X97453179Y-44661313D01*
X97578196Y-44649000D01*
X97661804Y-44649000D01*
X97786821Y-44661313D01*
X97786821Y-44661313D01*
G37*
G36*
X90851000Y-46351000D02*
X89149000Y-46351000D01*
X89149000Y-44649000D01*
X90851000Y-44649000D01*
X90851000Y-46351000D01*
X90851000Y-46351000D01*
G37*
G36*
X70598252Y-37527818D02*
X70598254Y-37527819D01*
X70598255Y-37527819D01*
X70971513Y-37682427D01*
X70971514Y-37682428D01*
X71307439Y-37906886D01*
X71593114Y-38192561D01*
X71593116Y-38192564D01*
X71817573Y-38528487D01*
X71972181Y-38901745D01*
X72051000Y-39297994D01*
X72051000Y-39702006D01*
X71972181Y-40098255D01*
X71817573Y-40471513D01*
X71684433Y-40670770D01*
X71593114Y-40807439D01*
X71307439Y-41093114D01*
X71307436Y-41093116D01*
X70971513Y-41317573D01*
X70598255Y-41472181D01*
X70598254Y-41472181D01*
X70598252Y-41472182D01*
X70202007Y-41551000D01*
X69797993Y-41551000D01*
X69401748Y-41472182D01*
X69401746Y-41472181D01*
X69401745Y-41472181D01*
X69028487Y-41317573D01*
X68692564Y-41093116D01*
X68692561Y-41093114D01*
X68406886Y-40807439D01*
X68315567Y-40670770D01*
X68182427Y-40471513D01*
X68027819Y-40098255D01*
X67949000Y-39702006D01*
X67949000Y-39297994D01*
X68027819Y-38901745D01*
X68182427Y-38528487D01*
X68406884Y-38192564D01*
X68406886Y-38192561D01*
X68692561Y-37906886D01*
X69028486Y-37682428D01*
X69028487Y-37682427D01*
X69401745Y-37527819D01*
X69401746Y-37527819D01*
X69401748Y-37527818D01*
X69797993Y-37449000D01*
X70202007Y-37449000D01*
X70598252Y-37527818D01*
X70598252Y-37527818D01*
G37*
G36*
X41588677Y-39428465D02*
X41626364Y-39439898D01*
X41661103Y-39458466D01*
X41691548Y-39483452D01*
X41716534Y-39513897D01*
X41735102Y-39548636D01*
X41746535Y-39586323D01*
X41751000Y-39631661D01*
X41751000Y-40468339D01*
X41746535Y-40513677D01*
X41735102Y-40551364D01*
X41716534Y-40586103D01*
X41691548Y-40616548D01*
X41661103Y-40641534D01*
X41626364Y-40660102D01*
X41588677Y-40671535D01*
X41543339Y-40676000D01*
X40456661Y-40676000D01*
X40411323Y-40671535D01*
X40373636Y-40660102D01*
X40338897Y-40641534D01*
X40308452Y-40616548D01*
X40283466Y-40586103D01*
X40264898Y-40551364D01*
X40253465Y-40513677D01*
X40249000Y-40468339D01*
X40249000Y-39631661D01*
X40253465Y-39586323D01*
X40264898Y-39548636D01*
X40283466Y-39513897D01*
X40308452Y-39483452D01*
X40338897Y-39458466D01*
X40373636Y-39439898D01*
X40411323Y-39428465D01*
X40456661Y-39424000D01*
X41543339Y-39424000D01*
X41588677Y-39428465D01*
X41588677Y-39428465D01*
G37*
G36*
X48588677Y-39378465D02*
X48626364Y-39389898D01*
X48661103Y-39408466D01*
X48691548Y-39433452D01*
X48716534Y-39463897D01*
X48735102Y-39498636D01*
X48746535Y-39536323D01*
X48751000Y-39581661D01*
X48751000Y-40418339D01*
X48746535Y-40463677D01*
X48735102Y-40501364D01*
X48716534Y-40536103D01*
X48691548Y-40566548D01*
X48661103Y-40591534D01*
X48626364Y-40610102D01*
X48588677Y-40621535D01*
X48543339Y-40626000D01*
X47456661Y-40626000D01*
X47411323Y-40621535D01*
X47373636Y-40610102D01*
X47338897Y-40591534D01*
X47308452Y-40566548D01*
X47283466Y-40536103D01*
X47264898Y-40501364D01*
X47253465Y-40463677D01*
X47249000Y-40418339D01*
X47249000Y-39581661D01*
X47253465Y-39536323D01*
X47264898Y-39498636D01*
X47283466Y-39463897D01*
X47308452Y-39433452D01*
X47338897Y-39408466D01*
X47373636Y-39389898D01*
X47411323Y-39378465D01*
X47456661Y-39374000D01*
X48543339Y-39374000D01*
X48588677Y-39378465D01*
X48588677Y-39378465D01*
G37*
G36*
X43981000Y-40326000D02*
X42819000Y-40326000D01*
X42819000Y-37674000D01*
X43981000Y-37674000D01*
X43981000Y-40326000D01*
X43981000Y-40326000D01*
G37*
G36*
X46181000Y-40326000D02*
X45019000Y-40326000D01*
X45019000Y-39574000D01*
X46181000Y-39574000D01*
X46181000Y-40326000D01*
X46181000Y-40326000D01*
G37*
G36*
X41588677Y-37378465D02*
X41626364Y-37389898D01*
X41661103Y-37408466D01*
X41691548Y-37433452D01*
X41716534Y-37463897D01*
X41735102Y-37498636D01*
X41746535Y-37536323D01*
X41751000Y-37581661D01*
X41751000Y-38418339D01*
X41746535Y-38463677D01*
X41735102Y-38501364D01*
X41716534Y-38536103D01*
X41691548Y-38566548D01*
X41661103Y-38591534D01*
X41626364Y-38610102D01*
X41588677Y-38621535D01*
X41543339Y-38626000D01*
X40456661Y-38626000D01*
X40411323Y-38621535D01*
X40373636Y-38610102D01*
X40338897Y-38591534D01*
X40308452Y-38566548D01*
X40283466Y-38536103D01*
X40264898Y-38501364D01*
X40253465Y-38463677D01*
X40249000Y-38418339D01*
X40249000Y-37581661D01*
X40253465Y-37536323D01*
X40264898Y-37498636D01*
X40283466Y-37463897D01*
X40308452Y-37433452D01*
X40338897Y-37408466D01*
X40373636Y-37389898D01*
X40411323Y-37378465D01*
X40456661Y-37374000D01*
X41543339Y-37374000D01*
X41588677Y-37378465D01*
X41588677Y-37378465D01*
G37*
G36*
X48588677Y-37328465D02*
X48626364Y-37339898D01*
X48661103Y-37358466D01*
X48691548Y-37383452D01*
X48716534Y-37413897D01*
X48735102Y-37448636D01*
X48746535Y-37486323D01*
X48751000Y-37531661D01*
X48751000Y-38368339D01*
X48746535Y-38413677D01*
X48735102Y-38451364D01*
X48716534Y-38486103D01*
X48691548Y-38516548D01*
X48661103Y-38541534D01*
X48626364Y-38560102D01*
X48588677Y-38571535D01*
X48543339Y-38576000D01*
X47456661Y-38576000D01*
X47411323Y-38571535D01*
X47373636Y-38560102D01*
X47338897Y-38541534D01*
X47308452Y-38516548D01*
X47283466Y-38486103D01*
X47264898Y-38451364D01*
X47253465Y-38413677D01*
X47249000Y-38368339D01*
X47249000Y-37531661D01*
X47253465Y-37486323D01*
X47264898Y-37448636D01*
X47283466Y-37413897D01*
X47308452Y-37383452D01*
X47338897Y-37358466D01*
X47373636Y-37339898D01*
X47411323Y-37328465D01*
X47456661Y-37324000D01*
X48543339Y-37324000D01*
X48588677Y-37328465D01*
X48588677Y-37328465D01*
G37*
G36*
X46181000Y-38426000D02*
X45019000Y-38426000D01*
X45019000Y-37674000D01*
X46181000Y-37674000D01*
X46181000Y-38426000D01*
X46181000Y-38426000D01*
G37*
G36*
X92463677Y-35753465D02*
X92501364Y-35764898D01*
X92536103Y-35783466D01*
X92566548Y-35808452D01*
X92591534Y-35838897D01*
X92610102Y-35873636D01*
X92621535Y-35911323D01*
X92626000Y-35956661D01*
X92626000Y-37043339D01*
X92621535Y-37088677D01*
X92610102Y-37126364D01*
X92591534Y-37161103D01*
X92566548Y-37191548D01*
X92536103Y-37216534D01*
X92501364Y-37235102D01*
X92463677Y-37246535D01*
X92418339Y-37251000D01*
X91581661Y-37251000D01*
X91536323Y-37246535D01*
X91498636Y-37235102D01*
X91463897Y-37216534D01*
X91433452Y-37191548D01*
X91408466Y-37161103D01*
X91389898Y-37126364D01*
X91378465Y-37088677D01*
X91374000Y-37043339D01*
X91374000Y-35956661D01*
X91378465Y-35911323D01*
X91389898Y-35873636D01*
X91408466Y-35838897D01*
X91433452Y-35808452D01*
X91463897Y-35783466D01*
X91498636Y-35764898D01*
X91536323Y-35753465D01*
X91581661Y-35749000D01*
X92418339Y-35749000D01*
X92463677Y-35753465D01*
X92463677Y-35753465D01*
G37*
G36*
X90413677Y-35753465D02*
X90451364Y-35764898D01*
X90486103Y-35783466D01*
X90516548Y-35808452D01*
X90541534Y-35838897D01*
X90560102Y-35873636D01*
X90571535Y-35911323D01*
X90576000Y-35956661D01*
X90576000Y-37043339D01*
X90571535Y-37088677D01*
X90560102Y-37126364D01*
X90541534Y-37161103D01*
X90516548Y-37191548D01*
X90486103Y-37216534D01*
X90451364Y-37235102D01*
X90413677Y-37246535D01*
X90368339Y-37251000D01*
X89531661Y-37251000D01*
X89486323Y-37246535D01*
X89448636Y-37235102D01*
X89413897Y-37216534D01*
X89383452Y-37191548D01*
X89358466Y-37161103D01*
X89339898Y-37126364D01*
X89328465Y-37088677D01*
X89324000Y-37043339D01*
X89324000Y-35956661D01*
X89328465Y-35911323D01*
X89339898Y-35873636D01*
X89358466Y-35838897D01*
X89383452Y-35808452D01*
X89413897Y-35783466D01*
X89448636Y-35764898D01*
X89486323Y-35753465D01*
X89531661Y-35749000D01*
X90368339Y-35749000D01*
X90413677Y-35753465D01*
X90413677Y-35753465D01*
G37*
G36*
X83413677Y-35753465D02*
X83451364Y-35764898D01*
X83486103Y-35783466D01*
X83516548Y-35808452D01*
X83541534Y-35838897D01*
X83560102Y-35873636D01*
X83571535Y-35911323D01*
X83576000Y-35956661D01*
X83576000Y-37043339D01*
X83571535Y-37088677D01*
X83560102Y-37126364D01*
X83541534Y-37161103D01*
X83516548Y-37191548D01*
X83486103Y-37216534D01*
X83451364Y-37235102D01*
X83413677Y-37246535D01*
X83368339Y-37251000D01*
X82531661Y-37251000D01*
X82486323Y-37246535D01*
X82448636Y-37235102D01*
X82413897Y-37216534D01*
X82383452Y-37191548D01*
X82358466Y-37161103D01*
X82339898Y-37126364D01*
X82328465Y-37088677D01*
X82324000Y-37043339D01*
X82324000Y-35956661D01*
X82328465Y-35911323D01*
X82339898Y-35873636D01*
X82358466Y-35838897D01*
X82383452Y-35808452D01*
X82413897Y-35783466D01*
X82448636Y-35764898D01*
X82486323Y-35753465D01*
X82531661Y-35749000D01*
X83368339Y-35749000D01*
X83413677Y-35753465D01*
X83413677Y-35753465D01*
G37*
G36*
X85463677Y-35753465D02*
X85501364Y-35764898D01*
X85536103Y-35783466D01*
X85566548Y-35808452D01*
X85591534Y-35838897D01*
X85610102Y-35873636D01*
X85621535Y-35911323D01*
X85626000Y-35956661D01*
X85626000Y-37043339D01*
X85621535Y-37088677D01*
X85610102Y-37126364D01*
X85591534Y-37161103D01*
X85566548Y-37191548D01*
X85536103Y-37216534D01*
X85501364Y-37235102D01*
X85463677Y-37246535D01*
X85418339Y-37251000D01*
X84581661Y-37251000D01*
X84536323Y-37246535D01*
X84498636Y-37235102D01*
X84463897Y-37216534D01*
X84433452Y-37191548D01*
X84408466Y-37161103D01*
X84389898Y-37126364D01*
X84378465Y-37088677D01*
X84374000Y-37043339D01*
X84374000Y-35956661D01*
X84378465Y-35911323D01*
X84389898Y-35873636D01*
X84408466Y-35838897D01*
X84433452Y-35808452D01*
X84463897Y-35783466D01*
X84498636Y-35764898D01*
X84536323Y-35753465D01*
X84581661Y-35749000D01*
X85418339Y-35749000D01*
X85463677Y-35753465D01*
X85463677Y-35753465D01*
G37*
G36*
X53463677Y-35253465D02*
X53501364Y-35264898D01*
X53536103Y-35283466D01*
X53566548Y-35308452D01*
X53591534Y-35338897D01*
X53610102Y-35373636D01*
X53621535Y-35411323D01*
X53626000Y-35456661D01*
X53626000Y-36543339D01*
X53621535Y-36588677D01*
X53610102Y-36626364D01*
X53591534Y-36661103D01*
X53566548Y-36691548D01*
X53536103Y-36716534D01*
X53501364Y-36735102D01*
X53463677Y-36746535D01*
X53418339Y-36751000D01*
X52581661Y-36751000D01*
X52536323Y-36746535D01*
X52498636Y-36735102D01*
X52463897Y-36716534D01*
X52433452Y-36691548D01*
X52408466Y-36661103D01*
X52389898Y-36626364D01*
X52378465Y-36588677D01*
X52374000Y-36543339D01*
X52374000Y-35456661D01*
X52378465Y-35411323D01*
X52389898Y-35373636D01*
X52408466Y-35338897D01*
X52433452Y-35308452D01*
X52463897Y-35283466D01*
X52498636Y-35264898D01*
X52536323Y-35253465D01*
X52581661Y-35249000D01*
X53418339Y-35249000D01*
X53463677Y-35253465D01*
X53463677Y-35253465D01*
G37*
G36*
X55513677Y-35253465D02*
X55551364Y-35264898D01*
X55586103Y-35283466D01*
X55616548Y-35308452D01*
X55641534Y-35338897D01*
X55660102Y-35373636D01*
X55671535Y-35411323D01*
X55676000Y-35456661D01*
X55676000Y-36543339D01*
X55671535Y-36588677D01*
X55660102Y-36626364D01*
X55641534Y-36661103D01*
X55616548Y-36691548D01*
X55586103Y-36716534D01*
X55551364Y-36735102D01*
X55513677Y-36746535D01*
X55468339Y-36751000D01*
X54631661Y-36751000D01*
X54586323Y-36746535D01*
X54548636Y-36735102D01*
X54513897Y-36716534D01*
X54483452Y-36691548D01*
X54458466Y-36661103D01*
X54439898Y-36626364D01*
X54428465Y-36588677D01*
X54424000Y-36543339D01*
X54424000Y-35456661D01*
X54428465Y-35411323D01*
X54439898Y-35373636D01*
X54458466Y-35338897D01*
X54483452Y-35308452D01*
X54513897Y-35283466D01*
X54548636Y-35264898D01*
X54586323Y-35253465D01*
X54631661Y-35249000D01*
X55468339Y-35249000D01*
X55513677Y-35253465D01*
X55513677Y-35253465D01*
G37*
G36*
X46438677Y-34753465D02*
X46476364Y-34764898D01*
X46511103Y-34783466D01*
X46541548Y-34808452D01*
X46566534Y-34838897D01*
X46585102Y-34873636D01*
X46596535Y-34911323D01*
X46601000Y-34956661D01*
X46601000Y-36043339D01*
X46596535Y-36088677D01*
X46585102Y-36126364D01*
X46566534Y-36161103D01*
X46541548Y-36191548D01*
X46511103Y-36216534D01*
X46476364Y-36235102D01*
X46438677Y-36246535D01*
X46393339Y-36251000D01*
X45556661Y-36251000D01*
X45511323Y-36246535D01*
X45473636Y-36235102D01*
X45438897Y-36216534D01*
X45408452Y-36191548D01*
X45383466Y-36161103D01*
X45364898Y-36126364D01*
X45353465Y-36088677D01*
X45349000Y-36043339D01*
X45349000Y-34956661D01*
X45353465Y-34911323D01*
X45364898Y-34873636D01*
X45383466Y-34838897D01*
X45408452Y-34808452D01*
X45438897Y-34783466D01*
X45473636Y-34764898D01*
X45511323Y-34753465D01*
X45556661Y-34749000D01*
X46393339Y-34749000D01*
X46438677Y-34753465D01*
X46438677Y-34753465D01*
G37*
G36*
X48488677Y-34753465D02*
X48526364Y-34764898D01*
X48561103Y-34783466D01*
X48591548Y-34808452D01*
X48616534Y-34838897D01*
X48635102Y-34873636D01*
X48646535Y-34911323D01*
X48651000Y-34956661D01*
X48651000Y-36043339D01*
X48646535Y-36088677D01*
X48635102Y-36126364D01*
X48616534Y-36161103D01*
X48591548Y-36191548D01*
X48561103Y-36216534D01*
X48526364Y-36235102D01*
X48488677Y-36246535D01*
X48443339Y-36251000D01*
X47606661Y-36251000D01*
X47561323Y-36246535D01*
X47523636Y-36235102D01*
X47488897Y-36216534D01*
X47458452Y-36191548D01*
X47433466Y-36161103D01*
X47414898Y-36126364D01*
X47403465Y-36088677D01*
X47399000Y-36043339D01*
X47399000Y-34956661D01*
X47403465Y-34911323D01*
X47414898Y-34873636D01*
X47433466Y-34838897D01*
X47458452Y-34808452D01*
X47488897Y-34783466D01*
X47523636Y-34764898D01*
X47561323Y-34753465D01*
X47606661Y-34749000D01*
X48443339Y-34749000D01*
X48488677Y-34753465D01*
X48488677Y-34753465D01*
G37*
G36*
X44088677Y-34878465D02*
X44126364Y-34889898D01*
X44161103Y-34908466D01*
X44191548Y-34933452D01*
X44216534Y-34963897D01*
X44235102Y-34998636D01*
X44246535Y-35036323D01*
X44251000Y-35081661D01*
X44251000Y-35918339D01*
X44246535Y-35963677D01*
X44235102Y-36001364D01*
X44216534Y-36036103D01*
X44191548Y-36066548D01*
X44161103Y-36091534D01*
X44126364Y-36110102D01*
X44088677Y-36121535D01*
X44043339Y-36126000D01*
X42956661Y-36126000D01*
X42911323Y-36121535D01*
X42873636Y-36110102D01*
X42838897Y-36091534D01*
X42808452Y-36066548D01*
X42783466Y-36036103D01*
X42764898Y-36001364D01*
X42753465Y-35963677D01*
X42749000Y-35918339D01*
X42749000Y-35081661D01*
X42753465Y-35036323D01*
X42764898Y-34998636D01*
X42783466Y-34963897D01*
X42808452Y-34933452D01*
X42838897Y-34908466D01*
X42873636Y-34889898D01*
X42911323Y-34878465D01*
X42956661Y-34874000D01*
X44043339Y-34874000D01*
X44088677Y-34878465D01*
X44088677Y-34878465D01*
G37*
G36*
X83413677Y-33253465D02*
X83451364Y-33264898D01*
X83486103Y-33283466D01*
X83516548Y-33308452D01*
X83541534Y-33338897D01*
X83560102Y-33373636D01*
X83571535Y-33411323D01*
X83576000Y-33456661D01*
X83576000Y-34543339D01*
X83571535Y-34588677D01*
X83560102Y-34626364D01*
X83541534Y-34661103D01*
X83516548Y-34691548D01*
X83486103Y-34716534D01*
X83451364Y-34735102D01*
X83413677Y-34746535D01*
X83368339Y-34751000D01*
X82531661Y-34751000D01*
X82486323Y-34746535D01*
X82448636Y-34735102D01*
X82413897Y-34716534D01*
X82383452Y-34691548D01*
X82358466Y-34661103D01*
X82339898Y-34626364D01*
X82328465Y-34588677D01*
X82324000Y-34543339D01*
X82324000Y-33456661D01*
X82328465Y-33411323D01*
X82339898Y-33373636D01*
X82358466Y-33338897D01*
X82383452Y-33308452D01*
X82413897Y-33283466D01*
X82448636Y-33264898D01*
X82486323Y-33253465D01*
X82531661Y-33249000D01*
X83368339Y-33249000D01*
X83413677Y-33253465D01*
X83413677Y-33253465D01*
G37*
G36*
X85463677Y-33253465D02*
X85501364Y-33264898D01*
X85536103Y-33283466D01*
X85566548Y-33308452D01*
X85591534Y-33338897D01*
X85610102Y-33373636D01*
X85621535Y-33411323D01*
X85626000Y-33456661D01*
X85626000Y-34543339D01*
X85621535Y-34588677D01*
X85610102Y-34626364D01*
X85591534Y-34661103D01*
X85566548Y-34691548D01*
X85536103Y-34716534D01*
X85501364Y-34735102D01*
X85463677Y-34746535D01*
X85418339Y-34751000D01*
X84581661Y-34751000D01*
X84536323Y-34746535D01*
X84498636Y-34735102D01*
X84463897Y-34716534D01*
X84433452Y-34691548D01*
X84408466Y-34661103D01*
X84389898Y-34626364D01*
X84378465Y-34588677D01*
X84374000Y-34543339D01*
X84374000Y-33456661D01*
X84378465Y-33411323D01*
X84389898Y-33373636D01*
X84408466Y-33338897D01*
X84433452Y-33308452D01*
X84463897Y-33283466D01*
X84498636Y-33264898D01*
X84536323Y-33253465D01*
X84581661Y-33249000D01*
X85418339Y-33249000D01*
X85463677Y-33253465D01*
X85463677Y-33253465D01*
G37*
G36*
X90413677Y-33253465D02*
X90451364Y-33264898D01*
X90486103Y-33283466D01*
X90516548Y-33308452D01*
X90541534Y-33338897D01*
X90560102Y-33373636D01*
X90571535Y-33411323D01*
X90576000Y-33456661D01*
X90576000Y-34543339D01*
X90571535Y-34588677D01*
X90560102Y-34626364D01*
X90541534Y-34661103D01*
X90516548Y-34691548D01*
X90486103Y-34716534D01*
X90451364Y-34735102D01*
X90413677Y-34746535D01*
X90368339Y-34751000D01*
X89531661Y-34751000D01*
X89486323Y-34746535D01*
X89448636Y-34735102D01*
X89413897Y-34716534D01*
X89383452Y-34691548D01*
X89358466Y-34661103D01*
X89339898Y-34626364D01*
X89328465Y-34588677D01*
X89324000Y-34543339D01*
X89324000Y-33456661D01*
X89328465Y-33411323D01*
X89339898Y-33373636D01*
X89358466Y-33338897D01*
X89383452Y-33308452D01*
X89413897Y-33283466D01*
X89448636Y-33264898D01*
X89486323Y-33253465D01*
X89531661Y-33249000D01*
X90368339Y-33249000D01*
X90413677Y-33253465D01*
X90413677Y-33253465D01*
G37*
G36*
X92463677Y-33253465D02*
X92501364Y-33264898D01*
X92536103Y-33283466D01*
X92566548Y-33308452D01*
X92591534Y-33338897D01*
X92610102Y-33373636D01*
X92621535Y-33411323D01*
X92626000Y-33456661D01*
X92626000Y-34543339D01*
X92621535Y-34588677D01*
X92610102Y-34626364D01*
X92591534Y-34661103D01*
X92566548Y-34691548D01*
X92536103Y-34716534D01*
X92501364Y-34735102D01*
X92463677Y-34746535D01*
X92418339Y-34751000D01*
X91581661Y-34751000D01*
X91536323Y-34746535D01*
X91498636Y-34735102D01*
X91463897Y-34716534D01*
X91433452Y-34691548D01*
X91408466Y-34661103D01*
X91389898Y-34626364D01*
X91378465Y-34588677D01*
X91374000Y-34543339D01*
X91374000Y-33456661D01*
X91378465Y-33411323D01*
X91389898Y-33373636D01*
X91408466Y-33338897D01*
X91433452Y-33308452D01*
X91463897Y-33283466D01*
X91498636Y-33264898D01*
X91536323Y-33253465D01*
X91581661Y-33249000D01*
X92418339Y-33249000D01*
X92463677Y-33253465D01*
X92463677Y-33253465D01*
G37*
G36*
X53320782Y-30753295D02*
X53356815Y-30764226D01*
X53390028Y-30781979D01*
X53419134Y-30805866D01*
X53443021Y-30834972D01*
X53460774Y-30868185D01*
X53471705Y-30904218D01*
X53476000Y-30947830D01*
X53476000Y-34052170D01*
X53471705Y-34095782D01*
X53460774Y-34131815D01*
X53443021Y-34165028D01*
X53419134Y-34194134D01*
X53390028Y-34218021D01*
X53356815Y-34235774D01*
X53320782Y-34246705D01*
X53277170Y-34251000D01*
X52272830Y-34251000D01*
X52229218Y-34246705D01*
X52193185Y-34235774D01*
X52159972Y-34218021D01*
X52130866Y-34194134D01*
X52106979Y-34165028D01*
X52089226Y-34131815D01*
X52078295Y-34095782D01*
X52074000Y-34052170D01*
X52074000Y-30947830D01*
X52078295Y-30904218D01*
X52089226Y-30868185D01*
X52106979Y-30834972D01*
X52130866Y-30805866D01*
X52159972Y-30781979D01*
X52193185Y-30764226D01*
X52229218Y-30753295D01*
X52272830Y-30749000D01*
X53277170Y-30749000D01*
X53320782Y-30753295D01*
X53320782Y-30753295D01*
G37*
G36*
X57770782Y-30753295D02*
X57806815Y-30764226D01*
X57840028Y-30781979D01*
X57869134Y-30805866D01*
X57893021Y-30834972D01*
X57910774Y-30868185D01*
X57921705Y-30904218D01*
X57926000Y-30947830D01*
X57926000Y-34052170D01*
X57921705Y-34095782D01*
X57910774Y-34131815D01*
X57893021Y-34165028D01*
X57869134Y-34194134D01*
X57840028Y-34218021D01*
X57806815Y-34235774D01*
X57770782Y-34246705D01*
X57727170Y-34251000D01*
X56722830Y-34251000D01*
X56679218Y-34246705D01*
X56643185Y-34235774D01*
X56609972Y-34218021D01*
X56580866Y-34194134D01*
X56556979Y-34165028D01*
X56539226Y-34131815D01*
X56528295Y-34095782D01*
X56524000Y-34052170D01*
X56524000Y-30947830D01*
X56528295Y-30904218D01*
X56539226Y-30868185D01*
X56556979Y-30834972D01*
X56580866Y-30805866D01*
X56609972Y-30781979D01*
X56643185Y-30764226D01*
X56679218Y-30753295D01*
X56722830Y-30749000D01*
X57727170Y-30749000D01*
X57770782Y-30753295D01*
X57770782Y-30753295D01*
G37*
G36*
X44088677Y-32828465D02*
X44126364Y-32839898D01*
X44161103Y-32858466D01*
X44191548Y-32883452D01*
X44216534Y-32913897D01*
X44235102Y-32948636D01*
X44246535Y-32986323D01*
X44251000Y-33031661D01*
X44251000Y-33868339D01*
X44246535Y-33913677D01*
X44235102Y-33951364D01*
X44216534Y-33986103D01*
X44191548Y-34016548D01*
X44161103Y-34041534D01*
X44126364Y-34060102D01*
X44088677Y-34071535D01*
X44043339Y-34076000D01*
X42956661Y-34076000D01*
X42911323Y-34071535D01*
X42873636Y-34060102D01*
X42838897Y-34041534D01*
X42808452Y-34016548D01*
X42783466Y-33986103D01*
X42764898Y-33951364D01*
X42753465Y-33913677D01*
X42749000Y-33868339D01*
X42749000Y-33031661D01*
X42753465Y-32986323D01*
X42764898Y-32948636D01*
X42783466Y-32913897D01*
X42808452Y-32883452D01*
X42838897Y-32858466D01*
X42873636Y-32839898D01*
X42911323Y-32828465D01*
X42956661Y-32824000D01*
X44043339Y-32824000D01*
X44088677Y-32828465D01*
X44088677Y-32828465D01*
G37*
G36*
X92488677Y-30753465D02*
X92526364Y-30764898D01*
X92561103Y-30783466D01*
X92591548Y-30808452D01*
X92616534Y-30838897D01*
X92635102Y-30873636D01*
X92646535Y-30911323D01*
X92651000Y-30956661D01*
X92651000Y-32043339D01*
X92646535Y-32088677D01*
X92635102Y-32126364D01*
X92616534Y-32161103D01*
X92591548Y-32191548D01*
X92561103Y-32216534D01*
X92526364Y-32235102D01*
X92488677Y-32246535D01*
X92443339Y-32251000D01*
X91606661Y-32251000D01*
X91561323Y-32246535D01*
X91523636Y-32235102D01*
X91488897Y-32216534D01*
X91458452Y-32191548D01*
X91433466Y-32161103D01*
X91414898Y-32126364D01*
X91403465Y-32088677D01*
X91399000Y-32043339D01*
X91399000Y-30956661D01*
X91403465Y-30911323D01*
X91414898Y-30873636D01*
X91433466Y-30838897D01*
X91458452Y-30808452D01*
X91488897Y-30783466D01*
X91523636Y-30764898D01*
X91561323Y-30753465D01*
X91606661Y-30749000D01*
X92443339Y-30749000D01*
X92488677Y-30753465D01*
X92488677Y-30753465D01*
G37*
G36*
X90438677Y-30753465D02*
X90476364Y-30764898D01*
X90511103Y-30783466D01*
X90541548Y-30808452D01*
X90566534Y-30838897D01*
X90585102Y-30873636D01*
X90596535Y-30911323D01*
X90601000Y-30956661D01*
X90601000Y-32043339D01*
X90596535Y-32088677D01*
X90585102Y-32126364D01*
X90566534Y-32161103D01*
X90541548Y-32191548D01*
X90511103Y-32216534D01*
X90476364Y-32235102D01*
X90438677Y-32246535D01*
X90393339Y-32251000D01*
X89556661Y-32251000D01*
X89511323Y-32246535D01*
X89473636Y-32235102D01*
X89438897Y-32216534D01*
X89408452Y-32191548D01*
X89383466Y-32161103D01*
X89364898Y-32126364D01*
X89353465Y-32088677D01*
X89349000Y-32043339D01*
X89349000Y-30956661D01*
X89353465Y-30911323D01*
X89364898Y-30873636D01*
X89383466Y-30838897D01*
X89408452Y-30808452D01*
X89438897Y-30783466D01*
X89473636Y-30764898D01*
X89511323Y-30753465D01*
X89556661Y-30749000D01*
X90393339Y-30749000D01*
X90438677Y-30753465D01*
X90438677Y-30753465D01*
G37*
G36*
X85463677Y-30753465D02*
X85501364Y-30764898D01*
X85536103Y-30783466D01*
X85566548Y-30808452D01*
X85591534Y-30838897D01*
X85610102Y-30873636D01*
X85621535Y-30911323D01*
X85626000Y-30956661D01*
X85626000Y-32043339D01*
X85621535Y-32088677D01*
X85610102Y-32126364D01*
X85591534Y-32161103D01*
X85566548Y-32191548D01*
X85536103Y-32216534D01*
X85501364Y-32235102D01*
X85463677Y-32246535D01*
X85418339Y-32251000D01*
X84581661Y-32251000D01*
X84536323Y-32246535D01*
X84498636Y-32235102D01*
X84463897Y-32216534D01*
X84433452Y-32191548D01*
X84408466Y-32161103D01*
X84389898Y-32126364D01*
X84378465Y-32088677D01*
X84374000Y-32043339D01*
X84374000Y-30956661D01*
X84378465Y-30911323D01*
X84389898Y-30873636D01*
X84408466Y-30838897D01*
X84433452Y-30808452D01*
X84463897Y-30783466D01*
X84498636Y-30764898D01*
X84536323Y-30753465D01*
X84581661Y-30749000D01*
X85418339Y-30749000D01*
X85463677Y-30753465D01*
X85463677Y-30753465D01*
G37*
G36*
X83413677Y-30753465D02*
X83451364Y-30764898D01*
X83486103Y-30783466D01*
X83516548Y-30808452D01*
X83541534Y-30838897D01*
X83560102Y-30873636D01*
X83571535Y-30911323D01*
X83576000Y-30956661D01*
X83576000Y-32043339D01*
X83571535Y-32088677D01*
X83560102Y-32126364D01*
X83541534Y-32161103D01*
X83516548Y-32191548D01*
X83486103Y-32216534D01*
X83451364Y-32235102D01*
X83413677Y-32246535D01*
X83368339Y-32251000D01*
X82531661Y-32251000D01*
X82486323Y-32246535D01*
X82448636Y-32235102D01*
X82413897Y-32216534D01*
X82383452Y-32191548D01*
X82358466Y-32161103D01*
X82339898Y-32126364D01*
X82328465Y-32088677D01*
X82324000Y-32043339D01*
X82324000Y-30956661D01*
X82328465Y-30911323D01*
X82339898Y-30873636D01*
X82358466Y-30838897D01*
X82383452Y-30808452D01*
X82413897Y-30783466D01*
X82448636Y-30764898D01*
X82486323Y-30753465D01*
X82531661Y-30749000D01*
X83368339Y-30749000D01*
X83413677Y-30753465D01*
X83413677Y-30753465D01*
G37*
G36*
X70361112Y-27184566D02*
X70539917Y-27220133D01*
X70876777Y-27359665D01*
X71177902Y-27560870D01*
X71179947Y-27562237D01*
X71437763Y-27820053D01*
X71437765Y-27820056D01*
X71640335Y-28123223D01*
X71640335Y-28123224D01*
X71779867Y-28460084D01*
X71851000Y-28817691D01*
X71851000Y-29182309D01*
X71837336Y-29251000D01*
X71779867Y-29539917D01*
X71640335Y-29876777D01*
X71439130Y-30177902D01*
X71437763Y-30179947D01*
X71179947Y-30437763D01*
X71179944Y-30437765D01*
X70876777Y-30640335D01*
X70539917Y-30779867D01*
X70409211Y-30805866D01*
X70182309Y-30851000D01*
X69817691Y-30851000D01*
X69590789Y-30805866D01*
X69460083Y-30779867D01*
X69123223Y-30640335D01*
X68820056Y-30437765D01*
X68820053Y-30437763D01*
X68562237Y-30179947D01*
X68560870Y-30177902D01*
X68359665Y-29876777D01*
X68220133Y-29539917D01*
X68162664Y-29251000D01*
X68149000Y-29182309D01*
X68149000Y-28817691D01*
X68220133Y-28460084D01*
X68359665Y-28123224D01*
X68359665Y-28123223D01*
X68562235Y-27820056D01*
X68562237Y-27820053D01*
X68820053Y-27562237D01*
X68822098Y-27560870D01*
X69123223Y-27359665D01*
X69460083Y-27220133D01*
X69638888Y-27184566D01*
X69817691Y-27149000D01*
X70182309Y-27149000D01*
X70361112Y-27184566D01*
X70361112Y-27184566D01*
G37*
G36*
X46413677Y-27753465D02*
X46451364Y-27764898D01*
X46486103Y-27783466D01*
X46516548Y-27808452D01*
X46541534Y-27838897D01*
X46560102Y-27873636D01*
X46571535Y-27911323D01*
X46576000Y-27956661D01*
X46576000Y-29043339D01*
X46571535Y-29088677D01*
X46560102Y-29126364D01*
X46541534Y-29161103D01*
X46516548Y-29191548D01*
X46486103Y-29216534D01*
X46451364Y-29235102D01*
X46413677Y-29246535D01*
X46368339Y-29251000D01*
X45531661Y-29251000D01*
X45486323Y-29246535D01*
X45448636Y-29235102D01*
X45413897Y-29216534D01*
X45383452Y-29191548D01*
X45358466Y-29161103D01*
X45339898Y-29126364D01*
X45328465Y-29088677D01*
X45324000Y-29043339D01*
X45324000Y-27956661D01*
X45328465Y-27911323D01*
X45339898Y-27873636D01*
X45358466Y-27838897D01*
X45383452Y-27808452D01*
X45413897Y-27783466D01*
X45448636Y-27764898D01*
X45486323Y-27753465D01*
X45531661Y-27749000D01*
X46368339Y-27749000D01*
X46413677Y-27753465D01*
X46413677Y-27753465D01*
G37*
G36*
X48463677Y-27753465D02*
X48501364Y-27764898D01*
X48536103Y-27783466D01*
X48566548Y-27808452D01*
X48591534Y-27838897D01*
X48610102Y-27873636D01*
X48621535Y-27911323D01*
X48626000Y-27956661D01*
X48626000Y-29043339D01*
X48621535Y-29088677D01*
X48610102Y-29126364D01*
X48591534Y-29161103D01*
X48566548Y-29191548D01*
X48536103Y-29216534D01*
X48501364Y-29235102D01*
X48463677Y-29246535D01*
X48418339Y-29251000D01*
X47581661Y-29251000D01*
X47536323Y-29246535D01*
X47498636Y-29235102D01*
X47463897Y-29216534D01*
X47433452Y-29191548D01*
X47408466Y-29161103D01*
X47389898Y-29126364D01*
X47378465Y-29088677D01*
X47374000Y-29043339D01*
X47374000Y-27956661D01*
X47378465Y-27911323D01*
X47389898Y-27873636D01*
X47408466Y-27838897D01*
X47433452Y-27808452D01*
X47463897Y-27783466D01*
X47498636Y-27764898D01*
X47536323Y-27753465D01*
X47581661Y-27749000D01*
X48418339Y-27749000D01*
X48463677Y-27753465D01*
X48463677Y-27753465D01*
G37*
G36*
X53320782Y-25253295D02*
X53356815Y-25264226D01*
X53390028Y-25281979D01*
X53419134Y-25305866D01*
X53443021Y-25334972D01*
X53460774Y-25368185D01*
X53471705Y-25404218D01*
X53476000Y-25447830D01*
X53476000Y-28552170D01*
X53471705Y-28595782D01*
X53460774Y-28631815D01*
X53443021Y-28665028D01*
X53419134Y-28694134D01*
X53390028Y-28718021D01*
X53356815Y-28735774D01*
X53320782Y-28746705D01*
X53277170Y-28751000D01*
X52272830Y-28751000D01*
X52229218Y-28746705D01*
X52193185Y-28735774D01*
X52159972Y-28718021D01*
X52130866Y-28694134D01*
X52106979Y-28665028D01*
X52089226Y-28631815D01*
X52078295Y-28595782D01*
X52074000Y-28552170D01*
X52074000Y-25447830D01*
X52078295Y-25404218D01*
X52089226Y-25368185D01*
X52106979Y-25334972D01*
X52130866Y-25305866D01*
X52159972Y-25281979D01*
X52193185Y-25264226D01*
X52229218Y-25253295D01*
X52272830Y-25249000D01*
X53277170Y-25249000D01*
X53320782Y-25253295D01*
X53320782Y-25253295D01*
G37*
G36*
X57770782Y-25253295D02*
X57806815Y-25264226D01*
X57840028Y-25281979D01*
X57869134Y-25305866D01*
X57893021Y-25334972D01*
X57910774Y-25368185D01*
X57921705Y-25404218D01*
X57926000Y-25447830D01*
X57926000Y-28552170D01*
X57921705Y-28595782D01*
X57910774Y-28631815D01*
X57893021Y-28665028D01*
X57869134Y-28694134D01*
X57840028Y-28718021D01*
X57806815Y-28735774D01*
X57770782Y-28746705D01*
X57727170Y-28751000D01*
X56722830Y-28751000D01*
X56679218Y-28746705D01*
X56643185Y-28735774D01*
X56609972Y-28718021D01*
X56580866Y-28694134D01*
X56556979Y-28665028D01*
X56539226Y-28631815D01*
X56528295Y-28595782D01*
X56524000Y-28552170D01*
X56524000Y-25447830D01*
X56528295Y-25404218D01*
X56539226Y-25368185D01*
X56556979Y-25334972D01*
X56580866Y-25305866D01*
X56609972Y-25281979D01*
X56643185Y-25264226D01*
X56679218Y-25253295D01*
X56722830Y-25249000D01*
X57727170Y-25249000D01*
X57770782Y-25253295D01*
X57770782Y-25253295D01*
G37*
G36*
X50088062Y-25078181D02*
X50122977Y-25088773D01*
X50155165Y-25105978D01*
X50183373Y-25129127D01*
X50206522Y-25157335D01*
X50223727Y-25189523D01*
X50234319Y-25224438D01*
X50238500Y-25266895D01*
X50238500Y-26733105D01*
X50234319Y-26775562D01*
X50223727Y-26810477D01*
X50206522Y-26842665D01*
X50183373Y-26870873D01*
X50155165Y-26894022D01*
X50122977Y-26911227D01*
X50088062Y-26921819D01*
X50045605Y-26926000D01*
X48904395Y-26926000D01*
X48861938Y-26921819D01*
X48827023Y-26911227D01*
X48794835Y-26894022D01*
X48766627Y-26870873D01*
X48743478Y-26842665D01*
X48726273Y-26810477D01*
X48715681Y-26775562D01*
X48711500Y-26733105D01*
X48711500Y-25266895D01*
X48715681Y-25224438D01*
X48726273Y-25189523D01*
X48743478Y-25157335D01*
X48766627Y-25129127D01*
X48794835Y-25105978D01*
X48827023Y-25088773D01*
X48861938Y-25078181D01*
X48904395Y-25074000D01*
X50045605Y-25074000D01*
X50088062Y-25078181D01*
X50088062Y-25078181D01*
G37*
G36*
X47113062Y-25078181D02*
X47147977Y-25088773D01*
X47180165Y-25105978D01*
X47208373Y-25129127D01*
X47231522Y-25157335D01*
X47248727Y-25189523D01*
X47259319Y-25224438D01*
X47263500Y-25266895D01*
X47263500Y-26733105D01*
X47259319Y-26775562D01*
X47248727Y-26810477D01*
X47231522Y-26842665D01*
X47208373Y-26870873D01*
X47180165Y-26894022D01*
X47147977Y-26911227D01*
X47113062Y-26921819D01*
X47070605Y-26926000D01*
X45929395Y-26926000D01*
X45886938Y-26921819D01*
X45852023Y-26911227D01*
X45819835Y-26894022D01*
X45791627Y-26870873D01*
X45768478Y-26842665D01*
X45751273Y-26810477D01*
X45740681Y-26775562D01*
X45736500Y-26733105D01*
X45736500Y-25266895D01*
X45740681Y-25224438D01*
X45751273Y-25189523D01*
X45768478Y-25157335D01*
X45791627Y-25129127D01*
X45819835Y-25105978D01*
X45852023Y-25088773D01*
X45886938Y-25078181D01*
X45929395Y-25074000D01*
X47070605Y-25074000D01*
X47113062Y-25078181D01*
X47113062Y-25078181D01*
G37*
G36*
X74101000Y-24201000D02*
X70499000Y-24201000D01*
X70499000Y-21799000D01*
X74101000Y-21799000D01*
X74101000Y-24201000D01*
X74101000Y-24201000D01*
G37*
G36*
X79501000Y-24201000D02*
X75899000Y-24201000D01*
X75899000Y-21799000D01*
X79501000Y-21799000D01*
X79501000Y-24201000D01*
X79501000Y-24201000D01*
G37*
G36*
X63775562Y-22240681D02*
X63810477Y-22251273D01*
X63842665Y-22268478D01*
X63870873Y-22291627D01*
X63894022Y-22319835D01*
X63911227Y-22352023D01*
X63921819Y-22386938D01*
X63926000Y-22429395D01*
X63926000Y-23570605D01*
X63921819Y-23613062D01*
X63911227Y-23647977D01*
X63894022Y-23680165D01*
X63870873Y-23708373D01*
X63842665Y-23731522D01*
X63810477Y-23748727D01*
X63775562Y-23759319D01*
X63733105Y-23763500D01*
X62266895Y-23763500D01*
X62224438Y-23759319D01*
X62189523Y-23748727D01*
X62157335Y-23731522D01*
X62129127Y-23708373D01*
X62105978Y-23680165D01*
X62088773Y-23647977D01*
X62078181Y-23613062D01*
X62074000Y-23570605D01*
X62074000Y-22429395D01*
X62078181Y-22386938D01*
X62088773Y-22352023D01*
X62105978Y-22319835D01*
X62129127Y-22291627D01*
X62157335Y-22268478D01*
X62189523Y-22251273D01*
X62224438Y-22240681D01*
X62266895Y-22236500D01*
X63733105Y-22236500D01*
X63775562Y-22240681D01*
X63775562Y-22240681D01*
G37*
G36*
X57701000Y-22801000D02*
X56099000Y-22801000D01*
X56099000Y-21199000D01*
X57701000Y-21199000D01*
X57701000Y-22801000D01*
X57701000Y-22801000D01*
G37*
G36*
X83901000Y-22801000D02*
X82299000Y-22801000D01*
X82299000Y-21199000D01*
X83901000Y-21199000D01*
X83901000Y-22801000D01*
X83901000Y-22801000D01*
G37*
G36*
X49901000Y-22801000D02*
X48299000Y-22801000D01*
X48299000Y-21199000D01*
X49901000Y-21199000D01*
X49901000Y-22801000D01*
X49901000Y-22801000D01*
G37*
G36*
X91701000Y-22801000D02*
X90099000Y-22801000D01*
X90099000Y-21199000D01*
X91701000Y-21199000D01*
X91701000Y-22801000D01*
X91701000Y-22801000D01*
G37*
G36*
X66963677Y-21253465D02*
X67001364Y-21264898D01*
X67036103Y-21283466D01*
X67066548Y-21308452D01*
X67091534Y-21338897D01*
X67110102Y-21373636D01*
X67121535Y-21411323D01*
X67126000Y-21456661D01*
X67126000Y-22543339D01*
X67121535Y-22588677D01*
X67110102Y-22626364D01*
X67091534Y-22661103D01*
X67066548Y-22691548D01*
X67036103Y-22716534D01*
X67001364Y-22735102D01*
X66963677Y-22746535D01*
X66918339Y-22751000D01*
X66081661Y-22751000D01*
X66036323Y-22746535D01*
X65998636Y-22735102D01*
X65963897Y-22716534D01*
X65933452Y-22691548D01*
X65908466Y-22661103D01*
X65889898Y-22626364D01*
X65878465Y-22588677D01*
X65874000Y-22543339D01*
X65874000Y-21456661D01*
X65878465Y-21411323D01*
X65889898Y-21373636D01*
X65908466Y-21338897D01*
X65933452Y-21308452D01*
X65963897Y-21283466D01*
X65998636Y-21264898D01*
X66036323Y-21253465D01*
X66081661Y-21249000D01*
X66918339Y-21249000D01*
X66963677Y-21253465D01*
X66963677Y-21253465D01*
G37*
G36*
X69013677Y-21253465D02*
X69051364Y-21264898D01*
X69086103Y-21283466D01*
X69116548Y-21308452D01*
X69141534Y-21338897D01*
X69160102Y-21373636D01*
X69171535Y-21411323D01*
X69176000Y-21456661D01*
X69176000Y-22543339D01*
X69171535Y-22588677D01*
X69160102Y-22626364D01*
X69141534Y-22661103D01*
X69116548Y-22691548D01*
X69086103Y-22716534D01*
X69051364Y-22735102D01*
X69013677Y-22746535D01*
X68968339Y-22751000D01*
X68131661Y-22751000D01*
X68086323Y-22746535D01*
X68048636Y-22735102D01*
X68013897Y-22716534D01*
X67983452Y-22691548D01*
X67958466Y-22661103D01*
X67939898Y-22626364D01*
X67928465Y-22588677D01*
X67924000Y-22543339D01*
X67924000Y-21456661D01*
X67928465Y-21411323D01*
X67939898Y-21373636D01*
X67958466Y-21338897D01*
X67983452Y-21308452D01*
X68013897Y-21283466D01*
X68048636Y-21264898D01*
X68086323Y-21253465D01*
X68131661Y-21249000D01*
X68968339Y-21249000D01*
X69013677Y-21253465D01*
X69013677Y-21253465D01*
G37*
G36*
X63775562Y-19265681D02*
X63810477Y-19276273D01*
X63842665Y-19293478D01*
X63870873Y-19316627D01*
X63894022Y-19344835D01*
X63911227Y-19377023D01*
X63921819Y-19411938D01*
X63926000Y-19454395D01*
X63926000Y-20595605D01*
X63921819Y-20638062D01*
X63911227Y-20672977D01*
X63894022Y-20705165D01*
X63870873Y-20733373D01*
X63842665Y-20756522D01*
X63810477Y-20773727D01*
X63775562Y-20784319D01*
X63733105Y-20788500D01*
X62266895Y-20788500D01*
X62224438Y-20784319D01*
X62189523Y-20773727D01*
X62157335Y-20756522D01*
X62129127Y-20733373D01*
X62105978Y-20705165D01*
X62088773Y-20672977D01*
X62078181Y-20638062D01*
X62074000Y-20595605D01*
X62074000Y-19454395D01*
X62078181Y-19411938D01*
X62088773Y-19377023D01*
X62105978Y-19344835D01*
X62129127Y-19316627D01*
X62157335Y-19293478D01*
X62189523Y-19276273D01*
X62224438Y-19265681D01*
X62266895Y-19261500D01*
X63733105Y-19261500D01*
X63775562Y-19265681D01*
X63775562Y-19265681D01*
G37*
G36*
X67726349Y-18453820D02*
X67726352Y-18453821D01*
X67726351Y-18453821D01*
X67867574Y-18512317D01*
X67867575Y-18512318D01*
X67994674Y-18597243D01*
X68102757Y-18705326D01*
X68102759Y-18705329D01*
X68187683Y-18832426D01*
X68188701Y-18834884D01*
X68208515Y-18882720D01*
X68220067Y-18904331D01*
X68235612Y-18923273D01*
X68254554Y-18938818D01*
X68276165Y-18950369D01*
X68299614Y-18957482D01*
X68324000Y-18959884D01*
X68348387Y-18957482D01*
X68371836Y-18950369D01*
X68393447Y-18938817D01*
X68412389Y-18923272D01*
X68427934Y-18904330D01*
X68439485Y-18882719D01*
X68446598Y-18859270D01*
X68449000Y-18834884D01*
X68449000Y-18474000D01*
X71551000Y-18474000D01*
X71551000Y-18834884D01*
X71553402Y-18859270D01*
X71560515Y-18882719D01*
X71572066Y-18904330D01*
X71587612Y-18923272D01*
X71606554Y-18938818D01*
X71628165Y-18950369D01*
X71651614Y-18957482D01*
X71676000Y-18959884D01*
X71700386Y-18957482D01*
X71723835Y-18950369D01*
X71745446Y-18938818D01*
X71764388Y-18923272D01*
X71779934Y-18904330D01*
X71791485Y-18882720D01*
X71811299Y-18834884D01*
X71812317Y-18832426D01*
X71897241Y-18705329D01*
X71897243Y-18705326D01*
X72005326Y-18597243D01*
X72132425Y-18512318D01*
X72132426Y-18512317D01*
X72273649Y-18453821D01*
X72273648Y-18453821D01*
X72273651Y-18453820D01*
X72423569Y-18424000D01*
X72576431Y-18424000D01*
X72726349Y-18453820D01*
X72726352Y-18453821D01*
X72726351Y-18453821D01*
X72867574Y-18512317D01*
X72867575Y-18512318D01*
X72994674Y-18597243D01*
X73102757Y-18705326D01*
X73102759Y-18705329D01*
X73187683Y-18832426D01*
X73188701Y-18834884D01*
X73246180Y-18973651D01*
X73276000Y-19123569D01*
X73276000Y-19276431D01*
X73246180Y-19426349D01*
X73236536Y-19449631D01*
X73187683Y-19567574D01*
X73187682Y-19567575D01*
X73102757Y-19694674D01*
X72994674Y-19802757D01*
X72994671Y-19802759D01*
X72867574Y-19887683D01*
X72758343Y-19932927D01*
X72726349Y-19946180D01*
X72576431Y-19976000D01*
X72423569Y-19976000D01*
X72273651Y-19946180D01*
X72241657Y-19932927D01*
X72132426Y-19887683D01*
X72005329Y-19802759D01*
X72005326Y-19802757D01*
X71897243Y-19694674D01*
X71812318Y-19567575D01*
X71812317Y-19567574D01*
X71791484Y-19517278D01*
X71779933Y-19495669D01*
X71764388Y-19476727D01*
X71745446Y-19461182D01*
X71723835Y-19449631D01*
X71700386Y-19442518D01*
X71676000Y-19440116D01*
X71651613Y-19442518D01*
X71628164Y-19449631D01*
X71606553Y-19461183D01*
X71587611Y-19476728D01*
X71572066Y-19495670D01*
X71560515Y-19517281D01*
X71553402Y-19540730D01*
X71551000Y-19565116D01*
X71551000Y-20126000D01*
X68449000Y-20126000D01*
X68449000Y-19565116D01*
X68446598Y-19540730D01*
X68439485Y-19517281D01*
X68427934Y-19495670D01*
X68412388Y-19476728D01*
X68393446Y-19461182D01*
X68371835Y-19449631D01*
X68348386Y-19442518D01*
X68324000Y-19440116D01*
X68299614Y-19442518D01*
X68276165Y-19449631D01*
X68254554Y-19461182D01*
X68235612Y-19476728D01*
X68220066Y-19495670D01*
X68208516Y-19517278D01*
X68187683Y-19567574D01*
X68187682Y-19567575D01*
X68102757Y-19694674D01*
X67994674Y-19802757D01*
X67994671Y-19802759D01*
X67867574Y-19887683D01*
X67758343Y-19932927D01*
X67726349Y-19946180D01*
X67576431Y-19976000D01*
X67423569Y-19976000D01*
X67273651Y-19946180D01*
X67241657Y-19932927D01*
X67132426Y-19887683D01*
X67005329Y-19802759D01*
X67005326Y-19802757D01*
X66897243Y-19694674D01*
X66812318Y-19567575D01*
X66812317Y-19567574D01*
X66763464Y-19449631D01*
X66753820Y-19426349D01*
X66724000Y-19276431D01*
X66724000Y-19123569D01*
X66753820Y-18973651D01*
X66811299Y-18834884D01*
X66812317Y-18832426D01*
X66897241Y-18705329D01*
X66897243Y-18705326D01*
X67005326Y-18597243D01*
X67132425Y-18512318D01*
X67132426Y-18512317D01*
X67273649Y-18453821D01*
X67273648Y-18453821D01*
X67273651Y-18453820D01*
X67423569Y-18424000D01*
X67576431Y-18424000D01*
X67726349Y-18453820D01*
X67726349Y-18453820D01*
G37*
G36*
X73818453Y-15507529D02*
X73895821Y-15530998D01*
X73967111Y-15569103D01*
X74029607Y-15620393D01*
X74080897Y-15682889D01*
X74119002Y-15754179D01*
X74142471Y-15831547D01*
X74151000Y-15918141D01*
X74151000Y-17081859D01*
X74142471Y-17168453D01*
X74119002Y-17245821D01*
X74080897Y-17317111D01*
X74029607Y-17379607D01*
X73967111Y-17430897D01*
X73895821Y-17469002D01*
X73818453Y-17492471D01*
X73731859Y-17501000D01*
X72668141Y-17501000D01*
X72581547Y-17492471D01*
X72504179Y-17469002D01*
X72432889Y-17430897D01*
X72370393Y-17379607D01*
X72319103Y-17317111D01*
X72280998Y-17245821D01*
X72257529Y-17168453D01*
X72249000Y-17081859D01*
X72249000Y-15918141D01*
X72257529Y-15831547D01*
X72280998Y-15754179D01*
X72319103Y-15682889D01*
X72370393Y-15620393D01*
X72432889Y-15569103D01*
X72504179Y-15530998D01*
X72581547Y-15507529D01*
X72668141Y-15499000D01*
X73731859Y-15499000D01*
X73818453Y-15507529D01*
X73818453Y-15507529D01*
G37*
G36*
X67418453Y-15507529D02*
X67495821Y-15530998D01*
X67567111Y-15569103D01*
X67629607Y-15620393D01*
X67680897Y-15682889D01*
X67719002Y-15754179D01*
X67742471Y-15831547D01*
X67751000Y-15918141D01*
X67751000Y-17081859D01*
X67742471Y-17168453D01*
X67719002Y-17245821D01*
X67680897Y-17317111D01*
X67629607Y-17379607D01*
X67567111Y-17430897D01*
X67495821Y-17469002D01*
X67418453Y-17492471D01*
X67331859Y-17501000D01*
X66268141Y-17501000D01*
X66181547Y-17492471D01*
X66104179Y-17469002D01*
X66032889Y-17430897D01*
X65970393Y-17379607D01*
X65919103Y-17317111D01*
X65880998Y-17245821D01*
X65857529Y-17168453D01*
X65849000Y-17081859D01*
X65849000Y-15918141D01*
X65857529Y-15831547D01*
X65880998Y-15754179D01*
X65919103Y-15682889D01*
X65970393Y-15620393D01*
X66032889Y-15569103D01*
X66104179Y-15530998D01*
X66181547Y-15507529D01*
X66268141Y-15499000D01*
X67331859Y-15499000D01*
X67418453Y-15507529D01*
X67418453Y-15507529D01*
G37*
M02*
