G04 #@! TF.GenerationSoftware,KiCad,Pcbnew,5.0.2-bee76a0~70~ubuntu18.04.1*
G04 #@! TF.CreationDate,2021-08-22T23:20:32+02:00*
G04 #@! TF.ProjectId,snailbot,736e6169-6c62-46f7-942e-6b696361645f,3*
G04 #@! TF.SameCoordinates,Original*
G04 #@! TF.FileFunction,Legend,Top*
G04 #@! TF.FilePolarity,Positive*
%FSLAX46Y46*%
G04 Gerber Fmt 4.6, Leading zero omitted, Abs format (unit mm)*
G04 Created by KiCad (PCBNEW 5.0.2-bee76a0~70~ubuntu18.04.1) date nie, 22 sie 2021, 23:20:32*
%MOMM*%
%LPD*%
G01*
G04 APERTURE LIST*
%ADD10C,0.300000*%
%ADD11C,0.400000*%
%ADD12C,0.120000*%
%ADD13C,0.150000*%
%ADD14C,0.160000*%
G04 APERTURE END LIST*
D10*
X43000000Y-51232142D02*
X43214285Y-51303571D01*
X43571428Y-51303571D01*
X43714285Y-51232142D01*
X43785714Y-51160714D01*
X43857142Y-51017857D01*
X43857142Y-50875000D01*
X43785714Y-50732142D01*
X43714285Y-50660714D01*
X43571428Y-50589285D01*
X43285714Y-50517857D01*
X43142857Y-50446428D01*
X43071428Y-50375000D01*
X43000000Y-50232142D01*
X43000000Y-50089285D01*
X43071428Y-49946428D01*
X43142857Y-49875000D01*
X43285714Y-49803571D01*
X43642857Y-49803571D01*
X43857142Y-49875000D01*
X44285714Y-49803571D02*
X45142857Y-49803571D01*
X44714285Y-51303571D02*
X44714285Y-49803571D01*
X43000000Y-53853571D02*
X42500000Y-53139285D01*
X42142857Y-53853571D02*
X42142857Y-52353571D01*
X42714285Y-52353571D01*
X42857142Y-52425000D01*
X42928571Y-52496428D01*
X43000000Y-52639285D01*
X43000000Y-52853571D01*
X42928571Y-52996428D01*
X42857142Y-53067857D01*
X42714285Y-53139285D01*
X42142857Y-53139285D01*
X43500000Y-52353571D02*
X44500000Y-53853571D01*
X44500000Y-52353571D02*
X43500000Y-53853571D01*
X45071428Y-53853571D02*
X45071428Y-52353571D01*
X45428571Y-52353571D01*
X45642857Y-52425000D01*
X45785714Y-52567857D01*
X45857142Y-52710714D01*
X45928571Y-52996428D01*
X45928571Y-53210714D01*
X45857142Y-53496428D01*
X45785714Y-53639285D01*
X45642857Y-53782142D01*
X45428571Y-53853571D01*
X45071428Y-53853571D01*
X42107142Y-54903571D02*
X42964285Y-54903571D01*
X42535714Y-56403571D02*
X42535714Y-54903571D01*
X43321428Y-54903571D02*
X44321428Y-56403571D01*
X44321428Y-54903571D02*
X43321428Y-56403571D01*
X44892857Y-56403571D02*
X44892857Y-54903571D01*
X45250000Y-54903571D01*
X45464285Y-54975000D01*
X45607142Y-55117857D01*
X45678571Y-55260714D01*
X45750000Y-55546428D01*
X45750000Y-55760714D01*
X45678571Y-56046428D01*
X45607142Y-56189285D01*
X45464285Y-56332142D01*
X45250000Y-56403571D01*
X44892857Y-56403571D01*
X42857142Y-57525000D02*
X42714285Y-57453571D01*
X42500000Y-57453571D01*
X42285714Y-57525000D01*
X42142857Y-57667857D01*
X42071428Y-57810714D01*
X42000000Y-58096428D01*
X42000000Y-58310714D01*
X42071428Y-58596428D01*
X42142857Y-58739285D01*
X42285714Y-58882142D01*
X42500000Y-58953571D01*
X42642857Y-58953571D01*
X42857142Y-58882142D01*
X42928571Y-58810714D01*
X42928571Y-58310714D01*
X42642857Y-58310714D01*
X43571428Y-58953571D02*
X43571428Y-57453571D01*
X44428571Y-58953571D01*
X44428571Y-57453571D01*
X45142857Y-58953571D02*
X45142857Y-57453571D01*
X45500000Y-57453571D01*
X45714285Y-57525000D01*
X45857142Y-57667857D01*
X45928571Y-57810714D01*
X46000000Y-58096428D01*
X46000000Y-58310714D01*
X45928571Y-58596428D01*
X45857142Y-58739285D01*
X45714285Y-58882142D01*
X45500000Y-58953571D01*
X45142857Y-58953571D01*
X42000000Y-60003571D02*
X42500000Y-61503571D01*
X43000000Y-60003571D01*
X44357142Y-61360714D02*
X44285714Y-61432142D01*
X44071428Y-61503571D01*
X43928571Y-61503571D01*
X43714285Y-61432142D01*
X43571428Y-61289285D01*
X43500000Y-61146428D01*
X43428571Y-60860714D01*
X43428571Y-60646428D01*
X43500000Y-60360714D01*
X43571428Y-60217857D01*
X43714285Y-60075000D01*
X43928571Y-60003571D01*
X44071428Y-60003571D01*
X44285714Y-60075000D01*
X44357142Y-60146428D01*
X45857142Y-61360714D02*
X45785714Y-61432142D01*
X45571428Y-61503571D01*
X45428571Y-61503571D01*
X45214285Y-61432142D01*
X45071428Y-61289285D01*
X45000000Y-61146428D01*
X44928571Y-60860714D01*
X44928571Y-60646428D01*
X45000000Y-60360714D01*
X45071428Y-60217857D01*
X45214285Y-60075000D01*
X45428571Y-60003571D01*
X45571428Y-60003571D01*
X45785714Y-60075000D01*
X45857142Y-60146428D01*
X42892857Y-63267857D02*
X43392857Y-63267857D01*
X43607142Y-64053571D02*
X42892857Y-64053571D01*
X42892857Y-62553571D01*
X43607142Y-62553571D01*
X44250000Y-64053571D02*
X44250000Y-62553571D01*
X45107142Y-64053571D01*
X45107142Y-62553571D01*
X96619047Y-99595238D02*
X97000000Y-99309523D01*
X97380952Y-99595238D01*
X42619047Y-99595238D02*
X43000000Y-99309523D01*
X43380952Y-99595238D01*
X98821428Y-41285714D02*
X98750000Y-41214285D01*
X98678571Y-41071428D01*
X98678571Y-40714285D01*
X98750000Y-40571428D01*
X98821428Y-40500000D01*
X98964285Y-40428571D01*
X99107142Y-40428571D01*
X99321428Y-40500000D01*
X100178571Y-41357142D01*
X100178571Y-40428571D01*
X98678571Y-39500000D02*
X98678571Y-39357142D01*
X98750000Y-39214285D01*
X98821428Y-39142857D01*
X98964285Y-39071428D01*
X99250000Y-39000000D01*
X99607142Y-39000000D01*
X99892857Y-39071428D01*
X100035714Y-39142857D01*
X100107142Y-39214285D01*
X100178571Y-39357142D01*
X100178571Y-39500000D01*
X100107142Y-39642857D01*
X100035714Y-39714285D01*
X99892857Y-39785714D01*
X99607142Y-39857142D01*
X99250000Y-39857142D01*
X98964285Y-39785714D01*
X98821428Y-39714285D01*
X98750000Y-39642857D01*
X98678571Y-39500000D01*
X98821428Y-38428571D02*
X98750000Y-38357142D01*
X98678571Y-38214285D01*
X98678571Y-37857142D01*
X98750000Y-37714285D01*
X98821428Y-37642857D01*
X98964285Y-37571428D01*
X99107142Y-37571428D01*
X99321428Y-37642857D01*
X100178571Y-38500000D01*
X100178571Y-37571428D01*
X100178571Y-36142857D02*
X100178571Y-37000000D01*
X100178571Y-36571428D02*
X98678571Y-36571428D01*
X98892857Y-36714285D01*
X99035714Y-36857142D01*
X99107142Y-37000000D01*
X99607142Y-35500000D02*
X99607142Y-34357142D01*
X98678571Y-33357142D02*
X98678571Y-33214285D01*
X98750000Y-33071428D01*
X98821428Y-33000000D01*
X98964285Y-32928571D01*
X99250000Y-32857142D01*
X99607142Y-32857142D01*
X99892857Y-32928571D01*
X100035714Y-33000000D01*
X100107142Y-33071428D01*
X100178571Y-33214285D01*
X100178571Y-33357142D01*
X100107142Y-33500000D01*
X100035714Y-33571428D01*
X99892857Y-33642857D01*
X99607142Y-33714285D01*
X99250000Y-33714285D01*
X98964285Y-33642857D01*
X98821428Y-33571428D01*
X98750000Y-33500000D01*
X98678571Y-33357142D01*
X99321428Y-32000000D02*
X99250000Y-32142857D01*
X99178571Y-32214285D01*
X99035714Y-32285714D01*
X98964285Y-32285714D01*
X98821428Y-32214285D01*
X98750000Y-32142857D01*
X98678571Y-32000000D01*
X98678571Y-31714285D01*
X98750000Y-31571428D01*
X98821428Y-31500000D01*
X98964285Y-31428571D01*
X99035714Y-31428571D01*
X99178571Y-31500000D01*
X99250000Y-31571428D01*
X99321428Y-31714285D01*
X99321428Y-32000000D01*
X99392857Y-32142857D01*
X99464285Y-32214285D01*
X99607142Y-32285714D01*
X99892857Y-32285714D01*
X100035714Y-32214285D01*
X100107142Y-32142857D01*
X100178571Y-32000000D01*
X100178571Y-31714285D01*
X100107142Y-31571428D01*
X100035714Y-31500000D01*
X99892857Y-31428571D01*
X99607142Y-31428571D01*
X99464285Y-31500000D01*
X99392857Y-31571428D01*
X99321428Y-31714285D01*
X99607142Y-30785714D02*
X99607142Y-29642857D01*
X98821428Y-29000000D02*
X98750000Y-28928571D01*
X98678571Y-28785714D01*
X98678571Y-28428571D01*
X98750000Y-28285714D01*
X98821428Y-28214285D01*
X98964285Y-28142857D01*
X99107142Y-28142857D01*
X99321428Y-28214285D01*
X100178571Y-29071428D01*
X100178571Y-28142857D01*
X98678571Y-27642857D02*
X98678571Y-26714285D01*
X99250000Y-27214285D01*
X99250000Y-27000000D01*
X99321428Y-26857142D01*
X99392857Y-26785714D01*
X99535714Y-26714285D01*
X99892857Y-26714285D01*
X100035714Y-26785714D01*
X100107142Y-26857142D01*
X100178571Y-27000000D01*
X100178571Y-27428571D01*
X100107142Y-27571428D01*
X100035714Y-27642857D01*
X65547619Y-113904761D02*
X65547619Y-112571428D01*
X65547619Y-112952380D02*
X65642857Y-112761904D01*
X65738095Y-112666666D01*
X65928571Y-112571428D01*
X66119047Y-112571428D01*
X67547619Y-113809523D02*
X67357142Y-113904761D01*
X66976190Y-113904761D01*
X66785714Y-113809523D01*
X66690476Y-113619047D01*
X66690476Y-112857142D01*
X66785714Y-112666666D01*
X66976190Y-112571428D01*
X67357142Y-112571428D01*
X67547619Y-112666666D01*
X67642857Y-112857142D01*
X67642857Y-113047619D01*
X66690476Y-113238095D01*
X68309523Y-112571428D02*
X68785714Y-113904761D01*
X69261904Y-112571428D01*
X70023809Y-113714285D02*
X70119047Y-113809523D01*
X70023809Y-113904761D01*
X69928571Y-113809523D01*
X70023809Y-113714285D01*
X70023809Y-113904761D01*
X72309523Y-111904761D02*
X73547619Y-111904761D01*
X72880952Y-112666666D01*
X73166666Y-112666666D01*
X73357142Y-112761904D01*
X73452380Y-112857142D01*
X73547619Y-113047619D01*
X73547619Y-113523809D01*
X73452380Y-113714285D01*
X73357142Y-113809523D01*
X73166666Y-113904761D01*
X72595238Y-113904761D01*
X72404761Y-113809523D01*
X72309523Y-113714285D01*
D11*
X46476190Y-113511904D02*
X46714285Y-113630952D01*
X47190476Y-113630952D01*
X47428571Y-113511904D01*
X47547619Y-113273809D01*
X47547619Y-113154761D01*
X47428571Y-112916666D01*
X47190476Y-112797619D01*
X46833333Y-112797619D01*
X46595238Y-112678571D01*
X46476190Y-112440476D01*
X46476190Y-112321428D01*
X46595238Y-112083333D01*
X46833333Y-111964285D01*
X47190476Y-111964285D01*
X47428571Y-112083333D01*
X48619047Y-111964285D02*
X48619047Y-113630952D01*
X48619047Y-112202380D02*
X48738095Y-112083333D01*
X48976190Y-111964285D01*
X49333333Y-111964285D01*
X49571428Y-112083333D01*
X49690476Y-112321428D01*
X49690476Y-113630952D01*
X51952380Y-113630952D02*
X51952380Y-112321428D01*
X51833333Y-112083333D01*
X51595238Y-111964285D01*
X51119047Y-111964285D01*
X50880952Y-112083333D01*
X51952380Y-113511904D02*
X51714285Y-113630952D01*
X51119047Y-113630952D01*
X50880952Y-113511904D01*
X50761904Y-113273809D01*
X50761904Y-113035714D01*
X50880952Y-112797619D01*
X51119047Y-112678571D01*
X51714285Y-112678571D01*
X51952380Y-112559523D01*
X53142857Y-113630952D02*
X53142857Y-111964285D01*
X53142857Y-111130952D02*
X53023809Y-111250000D01*
X53142857Y-111369047D01*
X53261904Y-111250000D01*
X53142857Y-111130952D01*
X53142857Y-111369047D01*
X54690476Y-113630952D02*
X54452380Y-113511904D01*
X54333333Y-113273809D01*
X54333333Y-111130952D01*
X55642857Y-113630952D02*
X55642857Y-111130952D01*
X55642857Y-112083333D02*
X55880952Y-111964285D01*
X56357142Y-111964285D01*
X56595238Y-112083333D01*
X56714285Y-112202380D01*
X56833333Y-112440476D01*
X56833333Y-113154761D01*
X56714285Y-113392857D01*
X56595238Y-113511904D01*
X56357142Y-113630952D01*
X55880952Y-113630952D01*
X55642857Y-113511904D01*
X58261904Y-113630952D02*
X58023809Y-113511904D01*
X57904761Y-113392857D01*
X57785714Y-113154761D01*
X57785714Y-112440476D01*
X57904761Y-112202380D01*
X58023809Y-112083333D01*
X58261904Y-111964285D01*
X58619047Y-111964285D01*
X58857142Y-112083333D01*
X58976190Y-112202380D01*
X59095238Y-112440476D01*
X59095238Y-113154761D01*
X58976190Y-113392857D01*
X58857142Y-113511904D01*
X58619047Y-113630952D01*
X58261904Y-113630952D01*
X59809523Y-111964285D02*
X60761904Y-111964285D01*
X60166666Y-111130952D02*
X60166666Y-113273809D01*
X60285714Y-113511904D01*
X60523809Y-113630952D01*
X60761904Y-113630952D01*
X58047619Y-19095238D02*
X57666666Y-19095238D01*
X57476190Y-19000000D01*
X57285714Y-18809523D01*
X57190476Y-18428571D01*
X57190476Y-17761904D01*
X57285714Y-17380952D01*
X57476190Y-17190476D01*
X57666666Y-17095238D01*
X58047619Y-17095238D01*
X58238095Y-17190476D01*
X58428571Y-17380952D01*
X58523809Y-17761904D01*
X58523809Y-18428571D01*
X58428571Y-18809523D01*
X58238095Y-19000000D01*
X58047619Y-19095238D01*
X56333333Y-17095238D02*
X56333333Y-19095238D01*
X55190476Y-17095238D01*
X55190476Y-19095238D01*
X52809523Y-19190476D02*
X54523809Y-16619047D01*
X51761904Y-19095238D02*
X51380952Y-19095238D01*
X51190476Y-19000000D01*
X51000000Y-18809523D01*
X50904761Y-18428571D01*
X50904761Y-17761904D01*
X51000000Y-17380952D01*
X51190476Y-17190476D01*
X51380952Y-17095238D01*
X51761904Y-17095238D01*
X51952380Y-17190476D01*
X52142857Y-17380952D01*
X52238095Y-17761904D01*
X52238095Y-18428571D01*
X52142857Y-18809523D01*
X51952380Y-19000000D01*
X51761904Y-19095238D01*
X49380952Y-18142857D02*
X50047619Y-18142857D01*
X50047619Y-17095238D02*
X50047619Y-19095238D01*
X49095238Y-19095238D01*
X47666666Y-18142857D02*
X48333333Y-18142857D01*
X48333333Y-17095238D02*
X48333333Y-19095238D01*
X47380952Y-19095238D01*
X89904761Y-17095238D02*
X90571428Y-18047619D01*
X91047619Y-17095238D02*
X91047619Y-19095238D01*
X90285714Y-19095238D01*
X90095238Y-19000000D01*
X90000000Y-18904761D01*
X89904761Y-18714285D01*
X89904761Y-18428571D01*
X90000000Y-18238095D01*
X90095238Y-18142857D01*
X90285714Y-18047619D01*
X91047619Y-18047619D01*
X89047619Y-18142857D02*
X88380952Y-18142857D01*
X88095238Y-17095238D02*
X89047619Y-17095238D01*
X89047619Y-19095238D01*
X88095238Y-19095238D01*
X87333333Y-17190476D02*
X87047619Y-17095238D01*
X86571428Y-17095238D01*
X86380952Y-17190476D01*
X86285714Y-17285714D01*
X86190476Y-17476190D01*
X86190476Y-17666666D01*
X86285714Y-17857142D01*
X86380952Y-17952380D01*
X86571428Y-18047619D01*
X86952380Y-18142857D01*
X87142857Y-18238095D01*
X87238095Y-18333333D01*
X87333333Y-18523809D01*
X87333333Y-18714285D01*
X87238095Y-18904761D01*
X87142857Y-19000000D01*
X86952380Y-19095238D01*
X86476190Y-19095238D01*
X86190476Y-19000000D01*
X85333333Y-18142857D02*
X84666666Y-18142857D01*
X84380952Y-17095238D02*
X85333333Y-17095238D01*
X85333333Y-19095238D01*
X84380952Y-19095238D01*
X83809523Y-19095238D02*
X82666666Y-19095238D01*
X83238095Y-17095238D02*
X83238095Y-19095238D01*
X84190476Y-111857142D02*
X83523809Y-111857142D01*
X83523809Y-112904761D02*
X83523809Y-110904761D01*
X84476190Y-110904761D01*
X85238095Y-110904761D02*
X85238095Y-112523809D01*
X85333333Y-112714285D01*
X85428571Y-112809523D01*
X85619047Y-112904761D01*
X86000000Y-112904761D01*
X86190476Y-112809523D01*
X86285714Y-112714285D01*
X86380952Y-112523809D01*
X86380952Y-110904761D01*
X87333333Y-112904761D02*
X87333333Y-110904761D01*
X88476190Y-112904761D01*
X88476190Y-110904761D01*
X90571428Y-112714285D02*
X90476190Y-112809523D01*
X90190476Y-112904761D01*
X90000000Y-112904761D01*
X89714285Y-112809523D01*
X89523809Y-112619047D01*
X89428571Y-112428571D01*
X89333333Y-112047619D01*
X89333333Y-111761904D01*
X89428571Y-111380952D01*
X89523809Y-111190476D01*
X89714285Y-111000000D01*
X90000000Y-110904761D01*
X90190476Y-110904761D01*
X90476190Y-111000000D01*
X90571428Y-111095238D01*
D12*
G04 #@! TO.C,BT1*
X82750000Y-99750000D02*
X82750000Y-102250000D01*
X59500000Y-26500000D02*
X80500000Y-26500000D01*
X59500000Y-103500000D02*
X59500000Y-26500000D01*
X80500000Y-103500000D02*
X59500000Y-103500000D01*
X80500000Y-103500000D02*
X80500000Y-26500000D01*
X82750000Y-27750000D02*
X82750000Y-30250000D01*
X81500000Y-29000000D02*
X84000000Y-29000000D01*
G04 #@! TO.C,SW2*
X90060000Y-20150000D02*
X90060000Y-23850000D01*
X83940000Y-20150000D02*
X90060000Y-20150000D01*
X83940000Y-23850000D02*
X83940000Y-20150000D01*
X90060000Y-23850000D02*
X83940000Y-23850000D01*
G04 #@! TO.C,F2*
X53613748Y-34210000D02*
X56386252Y-34210000D01*
X53613748Y-30790000D02*
X56386252Y-30790000D01*
G04 #@! TO.C,C1*
X48710000Y-39236252D02*
X48710000Y-38713748D01*
X47290000Y-39236252D02*
X47290000Y-38713748D01*
G04 #@! TO.C,C4*
X42290000Y-73263748D02*
X42290000Y-73786252D01*
X43710000Y-73263748D02*
X43710000Y-73786252D01*
G04 #@! TO.C,C5*
X50710000Y-76786252D02*
X50710000Y-76263748D01*
X49290000Y-76786252D02*
X49290000Y-76263748D01*
G04 #@! TO.C,C6*
X53210000Y-76786252D02*
X53210000Y-76263748D01*
X51790000Y-76786252D02*
X51790000Y-76263748D01*
G04 #@! TO.C,C7*
X83713748Y-32210000D02*
X84236252Y-32210000D01*
X83713748Y-30790000D02*
X84236252Y-30790000D01*
G04 #@! TO.C,C9*
X99290000Y-62713748D02*
X99290000Y-63236252D01*
X100710000Y-62713748D02*
X100710000Y-63236252D01*
G04 #@! TO.C,C13*
X90713748Y-34710000D02*
X91236252Y-34710000D01*
X90713748Y-33290000D02*
X91236252Y-33290000D01*
G04 #@! TO.C,D1*
X61865000Y-19052500D02*
X61865000Y-23112500D01*
X64135000Y-19052500D02*
X61865000Y-19052500D01*
X64135000Y-23112500D02*
X64135000Y-19052500D01*
G04 #@! TO.C,D2*
X70400000Y-20850000D02*
X70400000Y-25150000D01*
X70400000Y-25150000D02*
X77700000Y-25150000D01*
X70400000Y-20850000D02*
X77700000Y-20850000D01*
G04 #@! TO.C,D3*
X45527500Y-27135000D02*
X49587500Y-27135000D01*
X45527500Y-24865000D02*
X45527500Y-27135000D01*
X49587500Y-24865000D02*
X45527500Y-24865000D01*
G04 #@! TO.C,D4*
X49947500Y-44865000D02*
X45887500Y-44865000D01*
X49947500Y-47135000D02*
X49947500Y-44865000D01*
X45887500Y-47135000D02*
X49947500Y-47135000D01*
G04 #@! TO.C,D5*
X55135000Y-110472500D02*
X55135000Y-106412500D01*
X52865000Y-110472500D02*
X55135000Y-110472500D01*
X52865000Y-106412500D02*
X52865000Y-110472500D01*
G04 #@! TO.C,F1*
X53613748Y-28710000D02*
X56386252Y-28710000D01*
X53613748Y-25290000D02*
X56386252Y-25290000D01*
G04 #@! TO.C,J2*
X74830000Y-105670000D02*
X74830000Y-107000000D01*
X73500000Y-105670000D02*
X74830000Y-105670000D01*
X72230000Y-105670000D02*
X72230000Y-108330000D01*
X72230000Y-108330000D02*
X64550000Y-108330000D01*
X72230000Y-105670000D02*
X64550000Y-105670000D01*
X64550000Y-105670000D02*
X64550000Y-108330000D01*
G04 #@! TO.C,J3*
X95670000Y-85670000D02*
X97000000Y-85670000D01*
X95670000Y-87000000D02*
X95670000Y-85670000D01*
X95670000Y-88270000D02*
X98330000Y-88270000D01*
X98330000Y-88270000D02*
X98330000Y-98490000D01*
X95670000Y-88270000D02*
X95670000Y-98490000D01*
X95670000Y-98490000D02*
X98330000Y-98490000D01*
G04 #@! TO.C,J4*
X47170000Y-49170000D02*
X48500000Y-49170000D01*
X47170000Y-50500000D02*
X47170000Y-49170000D01*
X47170000Y-51770000D02*
X49830000Y-51770000D01*
X49830000Y-51770000D02*
X49830000Y-64530000D01*
X47170000Y-51770000D02*
X47170000Y-64530000D01*
X47170000Y-64530000D02*
X49830000Y-64530000D01*
G04 #@! TO.C,J5*
X41670000Y-85670000D02*
X43000000Y-85670000D01*
X41670000Y-87000000D02*
X41670000Y-85670000D01*
X41670000Y-88270000D02*
X44330000Y-88270000D01*
X44330000Y-88270000D02*
X44330000Y-98490000D01*
X41670000Y-88270000D02*
X41670000Y-98490000D01*
X41670000Y-98490000D02*
X44330000Y-98490000D01*
G04 #@! TO.C,L1*
X47114564Y-67640000D02*
X45910436Y-67640000D01*
X47114564Y-70360000D02*
X45910436Y-70360000D01*
G04 #@! TO.C,R1*
X44210000Y-34736252D02*
X44210000Y-34213748D01*
X42790000Y-34736252D02*
X42790000Y-34213748D01*
G04 #@! TO.C,R2*
X46738748Y-36210000D02*
X47261252Y-36210000D01*
X46738748Y-34790000D02*
X47261252Y-34790000D01*
G04 #@! TO.C,R3*
X48736252Y-79790000D02*
X48213748Y-79790000D01*
X48736252Y-81210000D02*
X48213748Y-81210000D01*
G04 #@! TO.C,R4*
X47236252Y-27790000D02*
X46713748Y-27790000D01*
X47236252Y-29210000D02*
X46713748Y-29210000D01*
G04 #@! TO.C,R5*
X83713748Y-37210000D02*
X84236252Y-37210000D01*
X83713748Y-35790000D02*
X84236252Y-35790000D01*
G04 #@! TO.C,R6*
X43236252Y-79790000D02*
X42713748Y-79790000D01*
X43236252Y-81210000D02*
X42713748Y-81210000D01*
G04 #@! TO.C,R7*
X67786252Y-21290000D02*
X67263748Y-21290000D01*
X67786252Y-22710000D02*
X67263748Y-22710000D01*
G04 #@! TO.C,R8*
X84236252Y-33290000D02*
X83713748Y-33290000D01*
X84236252Y-34710000D02*
X83713748Y-34710000D01*
G04 #@! TO.C,R9*
X53736252Y-47290000D02*
X53213748Y-47290000D01*
X53736252Y-48710000D02*
X53213748Y-48710000D01*
G04 #@! TO.C,R10*
X53213748Y-54210000D02*
X53736252Y-54210000D01*
X53213748Y-52790000D02*
X53736252Y-52790000D01*
G04 #@! TO.C,R11*
X53736252Y-50290000D02*
X53213748Y-50290000D01*
X53736252Y-51710000D02*
X53213748Y-51710000D01*
G04 #@! TO.C,R12*
X57290000Y-107713748D02*
X57290000Y-108236252D01*
X58710000Y-107713748D02*
X58710000Y-108236252D01*
G04 #@! TO.C,R13*
X90713748Y-37210000D02*
X91236252Y-37210000D01*
X90713748Y-35790000D02*
X91236252Y-35790000D01*
G04 #@! TO.C,R14*
X90738748Y-32210000D02*
X91261252Y-32210000D01*
X90738748Y-30790000D02*
X91261252Y-30790000D01*
G04 #@! TO.C,R15*
X79290000Y-107738748D02*
X79290000Y-108261252D01*
X80710000Y-107738748D02*
X80710000Y-108261252D01*
G04 #@! TO.C,SW1*
X49940000Y-23850000D02*
X49940000Y-20150000D01*
X56060000Y-23850000D02*
X49940000Y-23850000D01*
X56060000Y-20150000D02*
X56060000Y-23850000D01*
X49940000Y-20150000D02*
X56060000Y-20150000D01*
G04 #@! TO.C,SW3*
X83940000Y-109850000D02*
X83940000Y-106150000D01*
X90060000Y-109850000D02*
X83940000Y-109850000D01*
X90060000Y-106150000D02*
X90060000Y-109850000D01*
X83940000Y-106150000D02*
X90060000Y-106150000D01*
G04 #@! TO.C,U1*
X45400000Y-37390000D02*
X42950000Y-37390000D01*
X43600000Y-40610000D02*
X45400000Y-40610000D01*
D13*
G04 #@! TO.C,U3*
X85925000Y-86950000D02*
X84550000Y-86950000D01*
X85925000Y-97075000D02*
X90075000Y-97075000D01*
X85925000Y-86925000D02*
X90075000Y-86925000D01*
X85925000Y-97075000D02*
X85925000Y-96970000D01*
X90075000Y-97075000D02*
X90075000Y-96970000D01*
X90075000Y-86925000D02*
X90075000Y-87030000D01*
X85925000Y-86925000D02*
X85925000Y-86950000D01*
D12*
G04 #@! TO.C,U4*
X96460000Y-44170000D02*
X94810000Y-44170000D01*
X96460000Y-79850000D02*
X96460000Y-44170000D01*
X91160000Y-79850000D02*
X96460000Y-79850000D01*
X91160000Y-44170000D02*
X91160000Y-79850000D01*
X92810000Y-44170000D02*
X91160000Y-44170000D01*
X94810000Y-44170000D02*
G75*
G02X92810000Y-44170000I-1000000J0D01*
G01*
D13*
G04 #@! TO.C,U5*
X54075000Y-97550000D02*
X55450000Y-97550000D01*
X54075000Y-87425000D02*
X49925000Y-87425000D01*
X54075000Y-97575000D02*
X49925000Y-97575000D01*
X54075000Y-87425000D02*
X54075000Y-87530000D01*
X49925000Y-87425000D02*
X49925000Y-87530000D01*
X49925000Y-97575000D02*
X49925000Y-97470000D01*
X54075000Y-97575000D02*
X54075000Y-97550000D01*
D12*
G04 #@! TO.C,Y1*
X82475000Y-70065000D02*
G75*
G03X87525000Y-70065000I2525000J0D01*
G01*
X82475000Y-63815000D02*
G75*
G02X87525000Y-63815000I2525000J0D01*
G01*
X82475000Y-63815000D02*
X82475000Y-70065000D01*
X87525000Y-63815000D02*
X87525000Y-70065000D01*
G04 #@! TO.C,U2*
X48110000Y-73390000D02*
X47910000Y-73390000D01*
X44890000Y-73390000D02*
X45090000Y-73390000D01*
X45090000Y-76610000D02*
X45090000Y-78000000D01*
X44890000Y-76610000D02*
X45090000Y-76610000D01*
X44890000Y-76610000D02*
X44890000Y-73390000D01*
X48110000Y-76610000D02*
X47910000Y-76610000D01*
X48110000Y-76610000D02*
X48110000Y-73390000D01*
D13*
G04 #@! TO.C,J1*
X74000000Y-19700000D02*
X74000000Y-17700000D01*
X74000000Y-19700000D02*
X73300000Y-19700000D01*
X66000000Y-19700000D02*
X66700000Y-19700000D01*
X66000000Y-19700000D02*
X66000000Y-17700000D01*
D12*
G04 #@! TO.C,C2*
X40290000Y-39286252D02*
X40290000Y-38763748D01*
X41710000Y-39286252D02*
X41710000Y-38763748D01*
G04 #@! TO.C,C3*
X83713748Y-41290000D02*
X84236252Y-41290000D01*
X83713748Y-42710000D02*
X84236252Y-42710000D01*
G04 #@! TO.C,Q1*
X57580000Y-39240000D02*
X56650000Y-39240000D01*
X54420000Y-39240000D02*
X55350000Y-39240000D01*
X54420000Y-39240000D02*
X54420000Y-41400000D01*
X57580000Y-39240000D02*
X57580000Y-40700000D01*
G04 #@! TO.C,BT1*
D14*
X69928571Y-65785714D02*
X69976190Y-65642857D01*
X70023809Y-65595238D01*
X70119047Y-65547619D01*
X70261904Y-65547619D01*
X70357142Y-65595238D01*
X70404761Y-65642857D01*
X70452380Y-65738095D01*
X70452380Y-66119047D01*
X69452380Y-66119047D01*
X69452380Y-65785714D01*
X69500000Y-65690476D01*
X69547619Y-65642857D01*
X69642857Y-65595238D01*
X69738095Y-65595238D01*
X69833333Y-65642857D01*
X69880952Y-65690476D01*
X69928571Y-65785714D01*
X69928571Y-66119047D01*
X69452380Y-65261904D02*
X69452380Y-64690476D01*
X70452380Y-64976190D02*
X69452380Y-64976190D01*
X70452380Y-63833333D02*
X70452380Y-64404761D01*
X70452380Y-64119047D02*
X69452380Y-64119047D01*
X69595238Y-64214285D01*
X69690476Y-64309523D01*
X69738095Y-64404761D01*
G04 #@! TO.C,SW2*
X85666666Y-25404761D02*
X85809523Y-25452380D01*
X86047619Y-25452380D01*
X86142857Y-25404761D01*
X86190476Y-25357142D01*
X86238095Y-25261904D01*
X86238095Y-25166666D01*
X86190476Y-25071428D01*
X86142857Y-25023809D01*
X86047619Y-24976190D01*
X85857142Y-24928571D01*
X85761904Y-24880952D01*
X85714285Y-24833333D01*
X85666666Y-24738095D01*
X85666666Y-24642857D01*
X85714285Y-24547619D01*
X85761904Y-24500000D01*
X85857142Y-24452380D01*
X86095238Y-24452380D01*
X86238095Y-24500000D01*
X86571428Y-24452380D02*
X86809523Y-25452380D01*
X87000000Y-24738095D01*
X87190476Y-25452380D01*
X87428571Y-24452380D01*
X87761904Y-24547619D02*
X87809523Y-24500000D01*
X87904761Y-24452380D01*
X88142857Y-24452380D01*
X88238095Y-24500000D01*
X88285714Y-24547619D01*
X88333333Y-24642857D01*
X88333333Y-24738095D01*
X88285714Y-24880952D01*
X87714285Y-25452380D01*
X88333333Y-25452380D01*
G04 #@! TO.C,F2*
X50391666Y-33428571D02*
X50058333Y-33428571D01*
X50058333Y-33952380D02*
X50058333Y-32952380D01*
X50534523Y-32952380D01*
X50867857Y-33047619D02*
X50915476Y-33000000D01*
X51010714Y-32952380D01*
X51248809Y-32952380D01*
X51344047Y-33000000D01*
X51391666Y-33047619D01*
X51439285Y-33142857D01*
X51439285Y-33238095D01*
X51391666Y-33380952D01*
X50820238Y-33952380D01*
X51439285Y-33952380D01*
G04 #@! TO.C,C1*
X48357142Y-42116666D02*
X48404761Y-42164285D01*
X48452380Y-42307142D01*
X48452380Y-42402380D01*
X48404761Y-42545238D01*
X48309523Y-42640476D01*
X48214285Y-42688095D01*
X48023809Y-42735714D01*
X47880952Y-42735714D01*
X47690476Y-42688095D01*
X47595238Y-42640476D01*
X47500000Y-42545238D01*
X47452380Y-42402380D01*
X47452380Y-42307142D01*
X47500000Y-42164285D01*
X47547619Y-42116666D01*
X48452380Y-41164285D02*
X48452380Y-41735714D01*
X48452380Y-41450000D02*
X47452380Y-41450000D01*
X47595238Y-41545238D01*
X47690476Y-41640476D01*
X47738095Y-41735714D01*
G04 #@! TO.C,C4*
X41857142Y-73666666D02*
X41904761Y-73714285D01*
X41952380Y-73857142D01*
X41952380Y-73952380D01*
X41904761Y-74095238D01*
X41809523Y-74190476D01*
X41714285Y-74238095D01*
X41523809Y-74285714D01*
X41380952Y-74285714D01*
X41190476Y-74238095D01*
X41095238Y-74190476D01*
X41000000Y-74095238D01*
X40952380Y-73952380D01*
X40952380Y-73857142D01*
X41000000Y-73714285D01*
X41047619Y-73666666D01*
X41285714Y-72809523D02*
X41952380Y-72809523D01*
X40904761Y-73047619D02*
X41619047Y-73285714D01*
X41619047Y-72666666D01*
G04 #@! TO.C,C5*
X50357142Y-73666666D02*
X50404761Y-73714285D01*
X50452380Y-73857142D01*
X50452380Y-73952380D01*
X50404761Y-74095238D01*
X50309523Y-74190476D01*
X50214285Y-74238095D01*
X50023809Y-74285714D01*
X49880952Y-74285714D01*
X49690476Y-74238095D01*
X49595238Y-74190476D01*
X49500000Y-74095238D01*
X49452380Y-73952380D01*
X49452380Y-73857142D01*
X49500000Y-73714285D01*
X49547619Y-73666666D01*
X49452380Y-72761904D02*
X49452380Y-73238095D01*
X49928571Y-73285714D01*
X49880952Y-73238095D01*
X49833333Y-73142857D01*
X49833333Y-72904761D01*
X49880952Y-72809523D01*
X49928571Y-72761904D01*
X50023809Y-72714285D01*
X50261904Y-72714285D01*
X50357142Y-72761904D01*
X50404761Y-72809523D01*
X50452380Y-72904761D01*
X50452380Y-73142857D01*
X50404761Y-73238095D01*
X50357142Y-73285714D01*
G04 #@! TO.C,C6*
X52857142Y-73666666D02*
X52904761Y-73714285D01*
X52952380Y-73857142D01*
X52952380Y-73952380D01*
X52904761Y-74095238D01*
X52809523Y-74190476D01*
X52714285Y-74238095D01*
X52523809Y-74285714D01*
X52380952Y-74285714D01*
X52190476Y-74238095D01*
X52095238Y-74190476D01*
X52000000Y-74095238D01*
X51952380Y-73952380D01*
X51952380Y-73857142D01*
X52000000Y-73714285D01*
X52047619Y-73666666D01*
X51952380Y-72809523D02*
X51952380Y-73000000D01*
X52000000Y-73095238D01*
X52047619Y-73142857D01*
X52190476Y-73238095D01*
X52380952Y-73285714D01*
X52761904Y-73285714D01*
X52857142Y-73238095D01*
X52904761Y-73190476D01*
X52952380Y-73095238D01*
X52952380Y-72904761D01*
X52904761Y-72809523D01*
X52857142Y-72761904D01*
X52761904Y-72714285D01*
X52523809Y-72714285D01*
X52428571Y-72761904D01*
X52380952Y-72809523D01*
X52333333Y-72904761D01*
X52333333Y-73095238D01*
X52380952Y-73190476D01*
X52428571Y-73238095D01*
X52523809Y-73285714D01*
G04 #@! TO.C,C7*
X86833333Y-31857142D02*
X86785714Y-31904761D01*
X86642857Y-31952380D01*
X86547619Y-31952380D01*
X86404761Y-31904761D01*
X86309523Y-31809523D01*
X86261904Y-31714285D01*
X86214285Y-31523809D01*
X86214285Y-31380952D01*
X86261904Y-31190476D01*
X86309523Y-31095238D01*
X86404761Y-31000000D01*
X86547619Y-30952380D01*
X86642857Y-30952380D01*
X86785714Y-31000000D01*
X86833333Y-31047619D01*
X87166666Y-30952380D02*
X87833333Y-30952380D01*
X87404761Y-31952380D01*
G04 #@! TO.C,C9*
X100357142Y-60166666D02*
X100404761Y-60214285D01*
X100452380Y-60357142D01*
X100452380Y-60452380D01*
X100404761Y-60595238D01*
X100309523Y-60690476D01*
X100214285Y-60738095D01*
X100023809Y-60785714D01*
X99880952Y-60785714D01*
X99690476Y-60738095D01*
X99595238Y-60690476D01*
X99500000Y-60595238D01*
X99452380Y-60452380D01*
X99452380Y-60357142D01*
X99500000Y-60214285D01*
X99547619Y-60166666D01*
X100452380Y-59690476D02*
X100452380Y-59500000D01*
X100404761Y-59404761D01*
X100357142Y-59357142D01*
X100214285Y-59261904D01*
X100023809Y-59214285D01*
X99642857Y-59214285D01*
X99547619Y-59261904D01*
X99500000Y-59309523D01*
X99452380Y-59404761D01*
X99452380Y-59595238D01*
X99500000Y-59690476D01*
X99547619Y-59738095D01*
X99642857Y-59785714D01*
X99880952Y-59785714D01*
X99976190Y-59738095D01*
X100023809Y-59690476D01*
X100071428Y-59595238D01*
X100071428Y-59404761D01*
X100023809Y-59309523D01*
X99976190Y-59261904D01*
X99880952Y-59214285D01*
G04 #@! TO.C,C13*
X93857142Y-34357142D02*
X93809523Y-34404761D01*
X93666666Y-34452380D01*
X93571428Y-34452380D01*
X93428571Y-34404761D01*
X93333333Y-34309523D01*
X93285714Y-34214285D01*
X93238095Y-34023809D01*
X93238095Y-33880952D01*
X93285714Y-33690476D01*
X93333333Y-33595238D01*
X93428571Y-33500000D01*
X93571428Y-33452380D01*
X93666666Y-33452380D01*
X93809523Y-33500000D01*
X93857142Y-33547619D01*
X94809523Y-34452380D02*
X94238095Y-34452380D01*
X94523809Y-34452380D02*
X94523809Y-33452380D01*
X94428571Y-33595238D01*
X94333333Y-33690476D01*
X94238095Y-33738095D01*
X95142857Y-33452380D02*
X95761904Y-33452380D01*
X95428571Y-33833333D01*
X95571428Y-33833333D01*
X95666666Y-33880952D01*
X95714285Y-33928571D01*
X95761904Y-34023809D01*
X95761904Y-34261904D01*
X95714285Y-34357142D01*
X95666666Y-34404761D01*
X95571428Y-34452380D01*
X95285714Y-34452380D01*
X95190476Y-34404761D01*
X95142857Y-34357142D01*
G04 #@! TO.C,D1*
X63452380Y-25738095D02*
X62452380Y-25738095D01*
X62452380Y-25500000D01*
X62500000Y-25357142D01*
X62595238Y-25261904D01*
X62690476Y-25214285D01*
X62880952Y-25166666D01*
X63023809Y-25166666D01*
X63214285Y-25214285D01*
X63309523Y-25261904D01*
X63404761Y-25357142D01*
X63452380Y-25500000D01*
X63452380Y-25738095D01*
X63452380Y-24214285D02*
X63452380Y-24785714D01*
X63452380Y-24500000D02*
X62452380Y-24500000D01*
X62595238Y-24595238D01*
X62690476Y-24690476D01*
X62738095Y-24785714D01*
G04 #@! TO.C,D2*
X75761904Y-20452380D02*
X75761904Y-19452380D01*
X76000000Y-19452380D01*
X76142857Y-19500000D01*
X76238095Y-19595238D01*
X76285714Y-19690476D01*
X76333333Y-19880952D01*
X76333333Y-20023809D01*
X76285714Y-20214285D01*
X76238095Y-20309523D01*
X76142857Y-20404761D01*
X76000000Y-20452380D01*
X75761904Y-20452380D01*
X76714285Y-19547619D02*
X76761904Y-19500000D01*
X76857142Y-19452380D01*
X77095238Y-19452380D01*
X77190476Y-19500000D01*
X77238095Y-19547619D01*
X77285714Y-19642857D01*
X77285714Y-19738095D01*
X77238095Y-19880952D01*
X76666666Y-20452380D01*
X77285714Y-20452380D01*
G04 #@! TO.C,D3*
X43761904Y-26452380D02*
X43761904Y-25452380D01*
X44000000Y-25452380D01*
X44142857Y-25500000D01*
X44238095Y-25595238D01*
X44285714Y-25690476D01*
X44333333Y-25880952D01*
X44333333Y-26023809D01*
X44285714Y-26214285D01*
X44238095Y-26309523D01*
X44142857Y-26404761D01*
X44000000Y-26452380D01*
X43761904Y-26452380D01*
X44666666Y-25452380D02*
X45285714Y-25452380D01*
X44952380Y-25833333D01*
X45095238Y-25833333D01*
X45190476Y-25880952D01*
X45238095Y-25928571D01*
X45285714Y-26023809D01*
X45285714Y-26261904D01*
X45238095Y-26357142D01*
X45190476Y-26404761D01*
X45095238Y-26452380D01*
X44809523Y-26452380D01*
X44714285Y-26404761D01*
X44666666Y-26357142D01*
G04 #@! TO.C,D4*
X46749404Y-44452380D02*
X46749404Y-43452380D01*
X46987500Y-43452380D01*
X47130357Y-43500000D01*
X47225595Y-43595238D01*
X47273214Y-43690476D01*
X47320833Y-43880952D01*
X47320833Y-44023809D01*
X47273214Y-44214285D01*
X47225595Y-44309523D01*
X47130357Y-44404761D01*
X46987500Y-44452380D01*
X46749404Y-44452380D01*
X48177976Y-43785714D02*
X48177976Y-44452380D01*
X47939880Y-43404761D02*
X47701785Y-44119047D01*
X48320833Y-44119047D01*
G04 #@! TO.C,D5*
X52452380Y-108738095D02*
X51452380Y-108738095D01*
X51452380Y-108500000D01*
X51500000Y-108357142D01*
X51595238Y-108261904D01*
X51690476Y-108214285D01*
X51880952Y-108166666D01*
X52023809Y-108166666D01*
X52214285Y-108214285D01*
X52309523Y-108261904D01*
X52404761Y-108357142D01*
X52452380Y-108500000D01*
X52452380Y-108738095D01*
X51452380Y-107261904D02*
X51452380Y-107738095D01*
X51928571Y-107785714D01*
X51880952Y-107738095D01*
X51833333Y-107642857D01*
X51833333Y-107404761D01*
X51880952Y-107309523D01*
X51928571Y-107261904D01*
X52023809Y-107214285D01*
X52261904Y-107214285D01*
X52357142Y-107261904D01*
X52404761Y-107309523D01*
X52452380Y-107404761D01*
X52452380Y-107642857D01*
X52404761Y-107738095D01*
X52357142Y-107785714D01*
G04 #@! TO.C,F1*
X50391666Y-28428571D02*
X50058333Y-28428571D01*
X50058333Y-28952380D02*
X50058333Y-27952380D01*
X50534523Y-27952380D01*
X51439285Y-28952380D02*
X50867857Y-28952380D01*
X51153571Y-28952380D02*
X51153571Y-27952380D01*
X51058333Y-28095238D01*
X50963095Y-28190476D01*
X50867857Y-28238095D01*
G04 #@! TO.C,J2*
X62952380Y-107333333D02*
X63666666Y-107333333D01*
X63809523Y-107380952D01*
X63904761Y-107476190D01*
X63952380Y-107619047D01*
X63952380Y-107714285D01*
X63047619Y-106904761D02*
X63000000Y-106857142D01*
X62952380Y-106761904D01*
X62952380Y-106523809D01*
X63000000Y-106428571D01*
X63047619Y-106380952D01*
X63142857Y-106333333D01*
X63238095Y-106333333D01*
X63380952Y-106380952D01*
X63952380Y-106952380D01*
X63952380Y-106333333D01*
G04 #@! TO.C,J3*
X96666666Y-84122380D02*
X96666666Y-84836666D01*
X96619047Y-84979523D01*
X96523809Y-85074761D01*
X96380952Y-85122380D01*
X96285714Y-85122380D01*
X97047619Y-84122380D02*
X97666666Y-84122380D01*
X97333333Y-84503333D01*
X97476190Y-84503333D01*
X97571428Y-84550952D01*
X97619047Y-84598571D01*
X97666666Y-84693809D01*
X97666666Y-84931904D01*
X97619047Y-85027142D01*
X97571428Y-85074761D01*
X97476190Y-85122380D01*
X97190476Y-85122380D01*
X97095238Y-85074761D01*
X97047619Y-85027142D01*
G04 #@! TO.C,J4*
X48166666Y-47622380D02*
X48166666Y-48336666D01*
X48119047Y-48479523D01*
X48023809Y-48574761D01*
X47880952Y-48622380D01*
X47785714Y-48622380D01*
X49071428Y-47955714D02*
X49071428Y-48622380D01*
X48833333Y-47574761D02*
X48595238Y-48289047D01*
X49214285Y-48289047D01*
G04 #@! TO.C,J5*
X42666666Y-84122380D02*
X42666666Y-84836666D01*
X42619047Y-84979523D01*
X42523809Y-85074761D01*
X42380952Y-85122380D01*
X42285714Y-85122380D01*
X43619047Y-84122380D02*
X43142857Y-84122380D01*
X43095238Y-84598571D01*
X43142857Y-84550952D01*
X43238095Y-84503333D01*
X43476190Y-84503333D01*
X43571428Y-84550952D01*
X43619047Y-84598571D01*
X43666666Y-84693809D01*
X43666666Y-84931904D01*
X43619047Y-85027142D01*
X43571428Y-85074761D01*
X43476190Y-85122380D01*
X43238095Y-85122380D01*
X43142857Y-85074761D01*
X43095238Y-85027142D01*
G04 #@! TO.C,L1*
X46333333Y-66952380D02*
X45857142Y-66952380D01*
X45857142Y-65952380D01*
X47190476Y-66952380D02*
X46619047Y-66952380D01*
X46904761Y-66952380D02*
X46904761Y-65952380D01*
X46809523Y-66095238D01*
X46714285Y-66190476D01*
X46619047Y-66238095D01*
G04 #@! TO.C,R1*
X42302380Y-34641666D02*
X41826190Y-34975000D01*
X42302380Y-35213095D02*
X41302380Y-35213095D01*
X41302380Y-34832142D01*
X41350000Y-34736904D01*
X41397619Y-34689285D01*
X41492857Y-34641666D01*
X41635714Y-34641666D01*
X41730952Y-34689285D01*
X41778571Y-34736904D01*
X41826190Y-34832142D01*
X41826190Y-35213095D01*
X42302380Y-33689285D02*
X42302380Y-34260714D01*
X42302380Y-33975000D02*
X41302380Y-33975000D01*
X41445238Y-34070238D01*
X41540476Y-34165476D01*
X41588095Y-34260714D01*
G04 #@! TO.C,R2*
X46833333Y-34302380D02*
X46500000Y-33826190D01*
X46261904Y-34302380D02*
X46261904Y-33302380D01*
X46642857Y-33302380D01*
X46738095Y-33350000D01*
X46785714Y-33397619D01*
X46833333Y-33492857D01*
X46833333Y-33635714D01*
X46785714Y-33730952D01*
X46738095Y-33778571D01*
X46642857Y-33826190D01*
X46261904Y-33826190D01*
X47214285Y-33397619D02*
X47261904Y-33350000D01*
X47357142Y-33302380D01*
X47595238Y-33302380D01*
X47690476Y-33350000D01*
X47738095Y-33397619D01*
X47785714Y-33492857D01*
X47785714Y-33588095D01*
X47738095Y-33730952D01*
X47166666Y-34302380D01*
X47785714Y-34302380D01*
G04 #@! TO.C,R3*
X48308333Y-82602380D02*
X47975000Y-82126190D01*
X47736904Y-82602380D02*
X47736904Y-81602380D01*
X48117857Y-81602380D01*
X48213095Y-81650000D01*
X48260714Y-81697619D01*
X48308333Y-81792857D01*
X48308333Y-81935714D01*
X48260714Y-82030952D01*
X48213095Y-82078571D01*
X48117857Y-82126190D01*
X47736904Y-82126190D01*
X48641666Y-81602380D02*
X49260714Y-81602380D01*
X48927380Y-81983333D01*
X49070238Y-81983333D01*
X49165476Y-82030952D01*
X49213095Y-82078571D01*
X49260714Y-82173809D01*
X49260714Y-82411904D01*
X49213095Y-82507142D01*
X49165476Y-82554761D01*
X49070238Y-82602380D01*
X48784523Y-82602380D01*
X48689285Y-82554761D01*
X48641666Y-82507142D01*
G04 #@! TO.C,R4*
X43833333Y-28952380D02*
X43500000Y-28476190D01*
X43261904Y-28952380D02*
X43261904Y-27952380D01*
X43642857Y-27952380D01*
X43738095Y-28000000D01*
X43785714Y-28047619D01*
X43833333Y-28142857D01*
X43833333Y-28285714D01*
X43785714Y-28380952D01*
X43738095Y-28428571D01*
X43642857Y-28476190D01*
X43261904Y-28476190D01*
X44690476Y-28285714D02*
X44690476Y-28952380D01*
X44452380Y-27904761D02*
X44214285Y-28619047D01*
X44833333Y-28619047D01*
G04 #@! TO.C,R5*
X86833333Y-36952380D02*
X86500000Y-36476190D01*
X86261904Y-36952380D02*
X86261904Y-35952380D01*
X86642857Y-35952380D01*
X86738095Y-36000000D01*
X86785714Y-36047619D01*
X86833333Y-36142857D01*
X86833333Y-36285714D01*
X86785714Y-36380952D01*
X86738095Y-36428571D01*
X86642857Y-36476190D01*
X86261904Y-36476190D01*
X87738095Y-35952380D02*
X87261904Y-35952380D01*
X87214285Y-36428571D01*
X87261904Y-36380952D01*
X87357142Y-36333333D01*
X87595238Y-36333333D01*
X87690476Y-36380952D01*
X87738095Y-36428571D01*
X87785714Y-36523809D01*
X87785714Y-36761904D01*
X87738095Y-36857142D01*
X87690476Y-36904761D01*
X87595238Y-36952380D01*
X87357142Y-36952380D01*
X87261904Y-36904761D01*
X87214285Y-36857142D01*
G04 #@! TO.C,R6*
X42808333Y-82602380D02*
X42475000Y-82126190D01*
X42236904Y-82602380D02*
X42236904Y-81602380D01*
X42617857Y-81602380D01*
X42713095Y-81650000D01*
X42760714Y-81697619D01*
X42808333Y-81792857D01*
X42808333Y-81935714D01*
X42760714Y-82030952D01*
X42713095Y-82078571D01*
X42617857Y-82126190D01*
X42236904Y-82126190D01*
X43665476Y-81602380D02*
X43475000Y-81602380D01*
X43379761Y-81650000D01*
X43332142Y-81697619D01*
X43236904Y-81840476D01*
X43189285Y-82030952D01*
X43189285Y-82411904D01*
X43236904Y-82507142D01*
X43284523Y-82554761D01*
X43379761Y-82602380D01*
X43570238Y-82602380D01*
X43665476Y-82554761D01*
X43713095Y-82507142D01*
X43760714Y-82411904D01*
X43760714Y-82173809D01*
X43713095Y-82078571D01*
X43665476Y-82030952D01*
X43570238Y-81983333D01*
X43379761Y-81983333D01*
X43284523Y-82030952D01*
X43236904Y-82078571D01*
X43189285Y-82173809D01*
G04 #@! TO.C,R7*
X67358333Y-24102380D02*
X67025000Y-23626190D01*
X66786904Y-24102380D02*
X66786904Y-23102380D01*
X67167857Y-23102380D01*
X67263095Y-23150000D01*
X67310714Y-23197619D01*
X67358333Y-23292857D01*
X67358333Y-23435714D01*
X67310714Y-23530952D01*
X67263095Y-23578571D01*
X67167857Y-23626190D01*
X66786904Y-23626190D01*
X67691666Y-23102380D02*
X68358333Y-23102380D01*
X67929761Y-24102380D01*
G04 #@! TO.C,R8*
X86833333Y-34452380D02*
X86500000Y-33976190D01*
X86261904Y-34452380D02*
X86261904Y-33452380D01*
X86642857Y-33452380D01*
X86738095Y-33500000D01*
X86785714Y-33547619D01*
X86833333Y-33642857D01*
X86833333Y-33785714D01*
X86785714Y-33880952D01*
X86738095Y-33928571D01*
X86642857Y-33976190D01*
X86261904Y-33976190D01*
X87404761Y-33880952D02*
X87309523Y-33833333D01*
X87261904Y-33785714D01*
X87214285Y-33690476D01*
X87214285Y-33642857D01*
X87261904Y-33547619D01*
X87309523Y-33500000D01*
X87404761Y-33452380D01*
X87595238Y-33452380D01*
X87690476Y-33500000D01*
X87738095Y-33547619D01*
X87785714Y-33642857D01*
X87785714Y-33690476D01*
X87738095Y-33785714D01*
X87690476Y-33833333D01*
X87595238Y-33880952D01*
X87404761Y-33880952D01*
X87309523Y-33928571D01*
X87261904Y-33976190D01*
X87214285Y-34071428D01*
X87214285Y-34261904D01*
X87261904Y-34357142D01*
X87309523Y-34404761D01*
X87404761Y-34452380D01*
X87595238Y-34452380D01*
X87690476Y-34404761D01*
X87738095Y-34357142D01*
X87785714Y-34261904D01*
X87785714Y-34071428D01*
X87738095Y-33976190D01*
X87690476Y-33928571D01*
X87595238Y-33880952D01*
G04 #@! TO.C,R9*
X56333333Y-48452380D02*
X56000000Y-47976190D01*
X55761904Y-48452380D02*
X55761904Y-47452380D01*
X56142857Y-47452380D01*
X56238095Y-47500000D01*
X56285714Y-47547619D01*
X56333333Y-47642857D01*
X56333333Y-47785714D01*
X56285714Y-47880952D01*
X56238095Y-47928571D01*
X56142857Y-47976190D01*
X55761904Y-47976190D01*
X56809523Y-48452380D02*
X57000000Y-48452380D01*
X57095238Y-48404761D01*
X57142857Y-48357142D01*
X57238095Y-48214285D01*
X57285714Y-48023809D01*
X57285714Y-47642857D01*
X57238095Y-47547619D01*
X57190476Y-47500000D01*
X57095238Y-47452380D01*
X56904761Y-47452380D01*
X56809523Y-47500000D01*
X56761904Y-47547619D01*
X56714285Y-47642857D01*
X56714285Y-47880952D01*
X56761904Y-47976190D01*
X56809523Y-48023809D01*
X56904761Y-48071428D01*
X57095238Y-48071428D01*
X57190476Y-48023809D01*
X57238095Y-47976190D01*
X57285714Y-47880952D01*
G04 #@! TO.C,R10*
X56357142Y-53952380D02*
X56023809Y-53476190D01*
X55785714Y-53952380D02*
X55785714Y-52952380D01*
X56166666Y-52952380D01*
X56261904Y-53000000D01*
X56309523Y-53047619D01*
X56357142Y-53142857D01*
X56357142Y-53285714D01*
X56309523Y-53380952D01*
X56261904Y-53428571D01*
X56166666Y-53476190D01*
X55785714Y-53476190D01*
X57309523Y-53952380D02*
X56738095Y-53952380D01*
X57023809Y-53952380D02*
X57023809Y-52952380D01*
X56928571Y-53095238D01*
X56833333Y-53190476D01*
X56738095Y-53238095D01*
X57928571Y-52952380D02*
X58023809Y-52952380D01*
X58119047Y-53000000D01*
X58166666Y-53047619D01*
X58214285Y-53142857D01*
X58261904Y-53333333D01*
X58261904Y-53571428D01*
X58214285Y-53761904D01*
X58166666Y-53857142D01*
X58119047Y-53904761D01*
X58023809Y-53952380D01*
X57928571Y-53952380D01*
X57833333Y-53904761D01*
X57785714Y-53857142D01*
X57738095Y-53761904D01*
X57690476Y-53571428D01*
X57690476Y-53333333D01*
X57738095Y-53142857D01*
X57785714Y-53047619D01*
X57833333Y-53000000D01*
X57928571Y-52952380D01*
G04 #@! TO.C,R11*
X56357142Y-51452380D02*
X56023809Y-50976190D01*
X55785714Y-51452380D02*
X55785714Y-50452380D01*
X56166666Y-50452380D01*
X56261904Y-50500000D01*
X56309523Y-50547619D01*
X56357142Y-50642857D01*
X56357142Y-50785714D01*
X56309523Y-50880952D01*
X56261904Y-50928571D01*
X56166666Y-50976190D01*
X55785714Y-50976190D01*
X57309523Y-51452380D02*
X56738095Y-51452380D01*
X57023809Y-51452380D02*
X57023809Y-50452380D01*
X56928571Y-50595238D01*
X56833333Y-50690476D01*
X56738095Y-50738095D01*
X58261904Y-51452380D02*
X57690476Y-51452380D01*
X57976190Y-51452380D02*
X57976190Y-50452380D01*
X57880952Y-50595238D01*
X57785714Y-50690476D01*
X57690476Y-50738095D01*
G04 #@! TO.C,R12*
X60452380Y-108642857D02*
X59976190Y-108976190D01*
X60452380Y-109214285D02*
X59452380Y-109214285D01*
X59452380Y-108833333D01*
X59500000Y-108738095D01*
X59547619Y-108690476D01*
X59642857Y-108642857D01*
X59785714Y-108642857D01*
X59880952Y-108690476D01*
X59928571Y-108738095D01*
X59976190Y-108833333D01*
X59976190Y-109214285D01*
X60452380Y-107690476D02*
X60452380Y-108261904D01*
X60452380Y-107976190D02*
X59452380Y-107976190D01*
X59595238Y-108071428D01*
X59690476Y-108166666D01*
X59738095Y-108261904D01*
X59547619Y-107309523D02*
X59500000Y-107261904D01*
X59452380Y-107166666D01*
X59452380Y-106928571D01*
X59500000Y-106833333D01*
X59547619Y-106785714D01*
X59642857Y-106738095D01*
X59738095Y-106738095D01*
X59880952Y-106785714D01*
X60452380Y-107357142D01*
X60452380Y-106738095D01*
G04 #@! TO.C,R13*
X93857142Y-36952380D02*
X93523809Y-36476190D01*
X93285714Y-36952380D02*
X93285714Y-35952380D01*
X93666666Y-35952380D01*
X93761904Y-36000000D01*
X93809523Y-36047619D01*
X93857142Y-36142857D01*
X93857142Y-36285714D01*
X93809523Y-36380952D01*
X93761904Y-36428571D01*
X93666666Y-36476190D01*
X93285714Y-36476190D01*
X94809523Y-36952380D02*
X94238095Y-36952380D01*
X94523809Y-36952380D02*
X94523809Y-35952380D01*
X94428571Y-36095238D01*
X94333333Y-36190476D01*
X94238095Y-36238095D01*
X95142857Y-35952380D02*
X95761904Y-35952380D01*
X95428571Y-36333333D01*
X95571428Y-36333333D01*
X95666666Y-36380952D01*
X95714285Y-36428571D01*
X95761904Y-36523809D01*
X95761904Y-36761904D01*
X95714285Y-36857142D01*
X95666666Y-36904761D01*
X95571428Y-36952380D01*
X95285714Y-36952380D01*
X95190476Y-36904761D01*
X95142857Y-36857142D01*
G04 #@! TO.C,R14*
X93857142Y-31952380D02*
X93523809Y-31476190D01*
X93285714Y-31952380D02*
X93285714Y-30952380D01*
X93666666Y-30952380D01*
X93761904Y-31000000D01*
X93809523Y-31047619D01*
X93857142Y-31142857D01*
X93857142Y-31285714D01*
X93809523Y-31380952D01*
X93761904Y-31428571D01*
X93666666Y-31476190D01*
X93285714Y-31476190D01*
X94809523Y-31952380D02*
X94238095Y-31952380D01*
X94523809Y-31952380D02*
X94523809Y-30952380D01*
X94428571Y-31095238D01*
X94333333Y-31190476D01*
X94238095Y-31238095D01*
X95666666Y-31285714D02*
X95666666Y-31952380D01*
X95428571Y-30904761D02*
X95190476Y-31619047D01*
X95809523Y-31619047D01*
G04 #@! TO.C,R15*
X78452380Y-108642857D02*
X77976190Y-108976190D01*
X78452380Y-109214285D02*
X77452380Y-109214285D01*
X77452380Y-108833333D01*
X77500000Y-108738095D01*
X77547619Y-108690476D01*
X77642857Y-108642857D01*
X77785714Y-108642857D01*
X77880952Y-108690476D01*
X77928571Y-108738095D01*
X77976190Y-108833333D01*
X77976190Y-109214285D01*
X78452380Y-107690476D02*
X78452380Y-108261904D01*
X78452380Y-107976190D02*
X77452380Y-107976190D01*
X77595238Y-108071428D01*
X77690476Y-108166666D01*
X77738095Y-108261904D01*
X77452380Y-106785714D02*
X77452380Y-107261904D01*
X77928571Y-107309523D01*
X77880952Y-107261904D01*
X77833333Y-107166666D01*
X77833333Y-106928571D01*
X77880952Y-106833333D01*
X77928571Y-106785714D01*
X78023809Y-106738095D01*
X78261904Y-106738095D01*
X78357142Y-106785714D01*
X78404761Y-106833333D01*
X78452380Y-106928571D01*
X78452380Y-107166666D01*
X78404761Y-107261904D01*
X78357142Y-107309523D01*
G04 #@! TO.C,SW1*
X58166666Y-21904761D02*
X58309523Y-21952380D01*
X58547619Y-21952380D01*
X58642857Y-21904761D01*
X58690476Y-21857142D01*
X58738095Y-21761904D01*
X58738095Y-21666666D01*
X58690476Y-21571428D01*
X58642857Y-21523809D01*
X58547619Y-21476190D01*
X58357142Y-21428571D01*
X58261904Y-21380952D01*
X58214285Y-21333333D01*
X58166666Y-21238095D01*
X58166666Y-21142857D01*
X58214285Y-21047619D01*
X58261904Y-21000000D01*
X58357142Y-20952380D01*
X58595238Y-20952380D01*
X58738095Y-21000000D01*
X59071428Y-20952380D02*
X59309523Y-21952380D01*
X59500000Y-21238095D01*
X59690476Y-21952380D01*
X59928571Y-20952380D01*
X60833333Y-21952380D02*
X60261904Y-21952380D01*
X60547619Y-21952380D02*
X60547619Y-20952380D01*
X60452380Y-21095238D01*
X60357142Y-21190476D01*
X60261904Y-21238095D01*
G04 #@! TO.C,SW3*
X85666666Y-105804761D02*
X85809523Y-105852380D01*
X86047619Y-105852380D01*
X86142857Y-105804761D01*
X86190476Y-105757142D01*
X86238095Y-105661904D01*
X86238095Y-105566666D01*
X86190476Y-105471428D01*
X86142857Y-105423809D01*
X86047619Y-105376190D01*
X85857142Y-105328571D01*
X85761904Y-105280952D01*
X85714285Y-105233333D01*
X85666666Y-105138095D01*
X85666666Y-105042857D01*
X85714285Y-104947619D01*
X85761904Y-104900000D01*
X85857142Y-104852380D01*
X86095238Y-104852380D01*
X86238095Y-104900000D01*
X86571428Y-104852380D02*
X86809523Y-105852380D01*
X87000000Y-105138095D01*
X87190476Y-105852380D01*
X87428571Y-104852380D01*
X87714285Y-104852380D02*
X88333333Y-104852380D01*
X88000000Y-105233333D01*
X88142857Y-105233333D01*
X88238095Y-105280952D01*
X88285714Y-105328571D01*
X88333333Y-105423809D01*
X88333333Y-105661904D01*
X88285714Y-105757142D01*
X88238095Y-105804761D01*
X88142857Y-105852380D01*
X87857142Y-105852380D01*
X87761904Y-105804761D01*
X87714285Y-105757142D01*
G04 #@! TO.C,U1*
X43738095Y-40952380D02*
X43738095Y-41761904D01*
X43785714Y-41857142D01*
X43833333Y-41904761D01*
X43928571Y-41952380D01*
X44119047Y-41952380D01*
X44214285Y-41904761D01*
X44261904Y-41857142D01*
X44309523Y-41761904D01*
X44309523Y-40952380D01*
X45309523Y-41952380D02*
X44738095Y-41952380D01*
X45023809Y-41952380D02*
X45023809Y-40952380D01*
X44928571Y-41095238D01*
X44833333Y-41190476D01*
X44738095Y-41238095D01*
G04 #@! TO.C,U3*
X87238095Y-85452380D02*
X87238095Y-86261904D01*
X87285714Y-86357142D01*
X87333333Y-86404761D01*
X87428571Y-86452380D01*
X87619047Y-86452380D01*
X87714285Y-86404761D01*
X87761904Y-86357142D01*
X87809523Y-86261904D01*
X87809523Y-85452380D01*
X88190476Y-85452380D02*
X88809523Y-85452380D01*
X88476190Y-85833333D01*
X88619047Y-85833333D01*
X88714285Y-85880952D01*
X88761904Y-85928571D01*
X88809523Y-86023809D01*
X88809523Y-86261904D01*
X88761904Y-86357142D01*
X88714285Y-86404761D01*
X88619047Y-86452380D01*
X88333333Y-86452380D01*
X88238095Y-86404761D01*
X88190476Y-86357142D01*
G04 #@! TO.C,U4*
X93238095Y-42452380D02*
X93238095Y-43261904D01*
X93285714Y-43357142D01*
X93333333Y-43404761D01*
X93428571Y-43452380D01*
X93619047Y-43452380D01*
X93714285Y-43404761D01*
X93761904Y-43357142D01*
X93809523Y-43261904D01*
X93809523Y-42452380D01*
X94714285Y-42785714D02*
X94714285Y-43452380D01*
X94476190Y-42404761D02*
X94238095Y-43119047D01*
X94857142Y-43119047D01*
G04 #@! TO.C,U5*
X51238095Y-97952380D02*
X51238095Y-98761904D01*
X51285714Y-98857142D01*
X51333333Y-98904761D01*
X51428571Y-98952380D01*
X51619047Y-98952380D01*
X51714285Y-98904761D01*
X51761904Y-98857142D01*
X51809523Y-98761904D01*
X51809523Y-97952380D01*
X52761904Y-97952380D02*
X52285714Y-97952380D01*
X52238095Y-98428571D01*
X52285714Y-98380952D01*
X52380952Y-98333333D01*
X52619047Y-98333333D01*
X52714285Y-98380952D01*
X52761904Y-98428571D01*
X52809523Y-98523809D01*
X52809523Y-98761904D01*
X52761904Y-98857142D01*
X52714285Y-98904761D01*
X52619047Y-98952380D01*
X52380952Y-98952380D01*
X52285714Y-98904761D01*
X52238095Y-98857142D01*
G04 #@! TO.C,Y1*
X84523809Y-60476190D02*
X84523809Y-60952380D01*
X84190476Y-59952380D02*
X84523809Y-60476190D01*
X84857142Y-59952380D01*
X85714285Y-60952380D02*
X85142857Y-60952380D01*
X85428571Y-60952380D02*
X85428571Y-59952380D01*
X85333333Y-60095238D01*
X85238095Y-60190476D01*
X85142857Y-60238095D01*
G04 #@! TO.C,U2*
X43402380Y-77761904D02*
X44211904Y-77761904D01*
X44307142Y-77714285D01*
X44354761Y-77666666D01*
X44402380Y-77571428D01*
X44402380Y-77380952D01*
X44354761Y-77285714D01*
X44307142Y-77238095D01*
X44211904Y-77190476D01*
X43402380Y-77190476D01*
X43497619Y-76761904D02*
X43450000Y-76714285D01*
X43402380Y-76619047D01*
X43402380Y-76380952D01*
X43450000Y-76285714D01*
X43497619Y-76238095D01*
X43592857Y-76190476D01*
X43688095Y-76190476D01*
X43830952Y-76238095D01*
X44402380Y-76809523D01*
X44402380Y-76190476D01*
G04 #@! TO.C,J1*
X64666666Y-16452380D02*
X64666666Y-17166666D01*
X64619047Y-17309523D01*
X64523809Y-17404761D01*
X64380952Y-17452380D01*
X64285714Y-17452380D01*
X65666666Y-17452380D02*
X65095238Y-17452380D01*
X65380952Y-17452380D02*
X65380952Y-16452380D01*
X65285714Y-16595238D01*
X65190476Y-16690476D01*
X65095238Y-16738095D01*
G04 #@! TO.C,C2*
X39707142Y-39191666D02*
X39754761Y-39239285D01*
X39802380Y-39382142D01*
X39802380Y-39477380D01*
X39754761Y-39620238D01*
X39659523Y-39715476D01*
X39564285Y-39763095D01*
X39373809Y-39810714D01*
X39230952Y-39810714D01*
X39040476Y-39763095D01*
X38945238Y-39715476D01*
X38850000Y-39620238D01*
X38802380Y-39477380D01*
X38802380Y-39382142D01*
X38850000Y-39239285D01*
X38897619Y-39191666D01*
X38897619Y-38810714D02*
X38850000Y-38763095D01*
X38802380Y-38667857D01*
X38802380Y-38429761D01*
X38850000Y-38334523D01*
X38897619Y-38286904D01*
X38992857Y-38239285D01*
X39088095Y-38239285D01*
X39230952Y-38286904D01*
X39802380Y-38858333D01*
X39802380Y-38239285D01*
G04 #@! TO.C,C3*
D13*
X86833333Y-42357142D02*
X86785714Y-42404761D01*
X86642857Y-42452380D01*
X86547619Y-42452380D01*
X86404761Y-42404761D01*
X86309523Y-42309523D01*
X86261904Y-42214285D01*
X86214285Y-42023809D01*
X86214285Y-41880952D01*
X86261904Y-41690476D01*
X86309523Y-41595238D01*
X86404761Y-41500000D01*
X86547619Y-41452380D01*
X86642857Y-41452380D01*
X86785714Y-41500000D01*
X86833333Y-41547619D01*
X87166666Y-41452380D02*
X87785714Y-41452380D01*
X87452380Y-41833333D01*
X87595238Y-41833333D01*
X87690476Y-41880952D01*
X87738095Y-41928571D01*
X87785714Y-42023809D01*
X87785714Y-42261904D01*
X87738095Y-42357142D01*
X87690476Y-42404761D01*
X87595238Y-42452380D01*
X87309523Y-42452380D01*
X87214285Y-42404761D01*
X87166666Y-42357142D01*
G04 #@! TO.C,Q1*
X54047619Y-40095238D02*
X54000000Y-40190476D01*
X53904761Y-40285714D01*
X53761904Y-40428571D01*
X53714285Y-40523809D01*
X53714285Y-40619047D01*
X53952380Y-40571428D02*
X53904761Y-40666666D01*
X53809523Y-40761904D01*
X53619047Y-40809523D01*
X53285714Y-40809523D01*
X53095238Y-40761904D01*
X53000000Y-40666666D01*
X52952380Y-40571428D01*
X52952380Y-40380952D01*
X53000000Y-40285714D01*
X53095238Y-40190476D01*
X53285714Y-40142857D01*
X53619047Y-40142857D01*
X53809523Y-40190476D01*
X53904761Y-40285714D01*
X53952380Y-40380952D01*
X53952380Y-40571428D01*
X53952380Y-39190476D02*
X53952380Y-39761904D01*
X53952380Y-39476190D02*
X52952380Y-39476190D01*
X53095238Y-39571428D01*
X53190476Y-39666666D01*
X53238095Y-39761904D01*
G04 #@! TD*
M02*
